<svg width="101" height="100" viewBox="0 0 101 100" fill="none" xmlns="http://www.w3.org/2000/svg">
<path d="M88.2025 0H40.2025C38.1629 0.00263857 36.2073 0.813357 34.7642 2.25465C33.321 3.69595 32.5077 5.65038 32.5024 7.69V8.56999L6.40247 14.89C4.41662 15.3711 2.70296 16.6208 1.63794 18.3646C0.57292 20.1084 0.243712 22.2036 0.722535 24.19L16.5325 89.5C16.7652 90.4792 17.1885 91.403 17.7784 92.2185C18.3683 93.034 19.1131 93.7253 19.9703 94.2528C20.8275 94.7803 21.7803 95.1337 22.7742 95.2928C23.768 95.4519 24.7834 95.4136 25.7625 95.18L63.9025 85.95V83.27L25.2125 92.7C23.9394 93.0124 22.5947 92.8205 21.4597 92.1645C20.3247 91.5085 19.4872 90.4392 19.1224 89.18L19.0625 88.94L3.26245 23.63C2.94662 22.331 3.15449 20.9599 3.84119 19.8129C4.52789 18.6659 5.63833 17.8351 6.9325 17.5H7.07251L32.4824 11.33V20.16L21.4824 22.84C21.316 22.879 21.1594 22.9513 21.0219 23.0528C20.8843 23.1542 20.7689 23.2825 20.6825 23.43C20.5875 23.5763 20.5243 23.7408 20.4967 23.9131C20.4692 24.0853 20.4779 24.2614 20.5225 24.43C20.5865 24.7156 20.7464 24.9707 20.9757 25.1526C21.205 25.3346 21.4898 25.4325 21.7825 25.43C21.8855 25.4413 21.9895 25.4413 22.0925 25.43L32.5125 22.91V28.47L23.3724 30.68C23.0354 30.7625 22.7445 30.9745 22.5625 31.27C22.3872 31.5723 22.337 31.9312 22.4225 32.27C22.4541 32.4408 22.5204 32.6032 22.6173 32.7473C22.7142 32.8915 22.8396 33.0142 22.9858 33.1079C23.1321 33.2016 23.296 33.2644 23.4674 33.2923C23.6388 33.3201 23.814 33.3126 23.9824 33.27L32.5125 31.21V36.75L25.2524 38.51C25.0822 38.5466 24.9211 38.6167 24.7783 38.7164C24.6355 38.816 24.514 38.943 24.4209 39.0901C24.3278 39.2373 24.265 39.4014 24.2361 39.5731C24.2072 39.7448 24.2127 39.9205 24.2524 40.09C24.3198 40.3739 24.4807 40.6269 24.7092 40.8083C24.9378 40.9897 25.2207 41.0889 25.5125 41.09C25.615 41.1077 25.7199 41.1077 25.8225 41.09L32.4725 39.48V45.03L27.0825 46.34C26.913 46.3778 26.7526 46.4487 26.6105 46.5487C26.4684 46.6486 26.3474 46.7756 26.2545 46.9224C26.1616 47.0692 26.0986 47.2329 26.0691 47.4041C26.0396 47.5752 26.0441 47.7506 26.0825 47.92C26.1534 48.2039 26.3166 48.4561 26.5465 48.6371C26.7764 48.8181 27.0598 48.9176 27.3524 48.92C27.4556 48.9273 27.5593 48.9273 27.6625 48.92L32.4325 47.75V75.18C32.4404 77.2197 33.2542 79.1737 34.6965 80.616C36.1389 82.0583 38.0927 82.8721 40.1324 82.88H63.8325V80.28H40.1324C38.7807 80.2773 37.485 79.7392 36.5292 78.7833C35.5733 77.8274 35.0351 76.5318 35.0325 75.18V7.7C35.0351 6.3482 35.5733 5.05253 36.5292 4.09666C37.485 3.1408 38.7807 2.60263 40.1324 2.59999H88.1324C89.4842 2.60263 90.78 3.1408 91.7358 4.09666C92.6917 5.05253 93.2298 6.3482 93.2324 7.7V74.9C93.2298 76.2518 92.6917 77.5474 91.7358 78.5033C90.78 79.4592 89.4842 79.9973 88.1324 80H83.6324V82.6H88.1324C90.1722 82.5921 92.1262 81.7783 93.5685 80.336C95.0108 78.8937 95.8246 76.9397 95.8325 74.9V7.7C95.83 5.6707 95.0275 3.72422 93.5991 2.28275C92.1708 0.841274 90.2317 0.0210548 88.2025 0Z" fill="#C79954"/>
<path d="M20.9626 48.9599C20.8908 48.6237 20.6896 48.3292 20.4026 48.1399C20.189 48.0075 19.9438 47.935 19.6926 47.9299H19.3426L16.2325 48.6899C15.9004 48.7714 15.6133 48.9796 15.4326 49.2699C15.2495 49.5691 15.1919 49.9286 15.2726 50.2699C15.3435 50.5538 15.5067 50.8061 15.7366 50.9871C15.9664 51.1681 16.25 51.2676 16.5426 51.2699C16.6421 51.2839 16.7431 51.2839 16.8426 51.2699L19.9626 50.5199C20.2992 50.4427 20.5929 50.2385 20.7826 49.9499C20.8769 49.8052 20.9414 49.6431 20.9723 49.4731C21.0032 49.3031 20.9999 49.1286 20.9626 48.9599ZM19.0826 41.1799C19.0133 40.8952 18.8505 40.642 18.6202 40.4607C18.39 40.2794 18.1056 40.1806 17.8126 40.1799C17.7227 40.175 17.6325 40.175 17.5426 40.1799H17.4626L14.3525 40.9299C14.1834 40.9666 14.0232 41.0364 13.8812 41.1354C13.7392 41.2343 13.6182 41.3605 13.5253 41.5064C13.4323 41.6524 13.3691 41.8154 13.3395 41.9859C13.3098 42.1564 13.3142 42.3311 13.3525 42.4999C13.429 42.8402 13.6371 43.1364 13.9313 43.3238C14.2254 43.5112 14.5819 43.5745 14.9226 43.4999L18.0426 42.7399C18.3772 42.6706 18.6714 42.4732 18.8625 42.1899C18.9653 42.0451 19.0377 41.8809 19.0755 41.7074C19.1133 41.5338 19.1158 41.3544 19.0826 41.1799ZM17.1526 33.3799C17.1136 33.2135 17.0412 33.0568 16.9398 32.9193C16.8384 32.7818 16.7101 32.6663 16.5626 32.5799C16.362 32.4539 16.1295 32.388 15.8926 32.3899C15.7895 32.3796 15.6857 32.3796 15.5826 32.3899L12.4726 33.1499C12.1671 33.2274 11.9001 33.4132 11.7213 33.6729C11.5425 33.9325 11.4642 34.2483 11.5008 34.5614C11.5375 34.8745 11.6867 35.1636 11.9206 35.3749C12.1546 35.5861 12.4574 35.7052 12.7726 35.7099C12.8753 35.726 12.9799 35.726 13.0826 35.7099L16.1926 34.9599C16.3599 34.9201 16.5176 34.8475 16.6566 34.7463C16.7956 34.6451 16.9131 34.5173 17.0024 34.3703C17.0917 34.2234 17.151 34.0602 17.1767 33.8902C17.2025 33.7202 17.1943 33.5467 17.1526 33.3799ZM15.3226 25.6399C15.2549 25.3544 15.0925 25.1001 14.8619 24.9185C14.6313 24.737 14.3461 24.6388 14.0526 24.6399C13.9629 24.6301 13.8723 24.6301 13.7826 24.6399L10.5926 25.4099C10.2773 25.4786 9.99878 25.6621 9.81127 25.9247C9.62376 26.1874 9.5407 26.5104 9.57811 26.8309C9.61553 27.1514 9.77082 27.4465 10.0138 27.6589C10.2567 27.8713 10.5699 27.9857 10.8926 27.9799C10.9956 27.9903 11.0995 27.9903 11.2026 27.9799L14.3226 27.2199C14.4949 27.1872 14.6585 27.1195 14.8035 27.0209C14.9484 26.9224 15.0716 26.7951 15.1654 26.6469C15.2592 26.4988 15.3216 26.333 15.3486 26.1597C15.3757 25.9865 15.3668 25.8096 15.3226 25.6399ZM61.0025 35.1899H53.0025C52.6578 35.1899 52.3272 35.3269 52.0834 35.5707C51.8396 35.8145 51.7026 36.1451 51.7026 36.4899C51.7026 36.8347 51.8396 37.1654 52.0834 37.4092C52.3272 37.653 52.6578 37.7899 53.0025 37.7899H61.0025C61.3473 37.7899 61.6781 37.653 61.9219 37.4092C62.1657 37.1654 62.3026 36.8347 62.3026 36.4899C62.3026 36.1451 62.1657 35.8145 61.9219 35.5707C61.6781 35.3269 61.3473 35.1899 61.0025 35.1899ZM45.0025 35.1899H41.8126C41.4678 35.1899 41.1371 35.3269 40.8933 35.5707C40.6495 35.8145 40.5126 36.1451 40.5126 36.4899C40.5126 36.8347 40.6495 37.1654 40.8933 37.4092C41.1371 37.653 41.4678 37.7899 41.8126 37.7899H45.0025C45.3473 37.7899 45.6781 37.653 45.9219 37.4092C46.1657 37.1654 46.3026 36.8347 46.3026 36.4899C46.3026 36.1451 46.1657 35.8145 45.9219 35.5707C45.6781 35.3269 45.3473 35.1899 45.0025 35.1899ZM86.6025 27.1899H53.0025C52.6578 27.1899 52.3272 27.3269 52.0834 27.5707C51.8396 27.8145 51.7026 28.1451 51.7026 28.4899C51.7026 28.8347 51.8396 29.1654 52.0834 29.4092C52.3272 29.653 52.6578 29.7899 53.0025 29.7899H86.6025C86.9473 29.7899 87.278 29.653 87.5218 29.4092C87.7656 29.1654 87.9026 28.8347 87.9026 28.4899C87.9026 28.1451 87.7656 27.8145 87.5218 27.5707C87.278 27.3269 86.9473 27.1899 86.6025 27.1899ZM45.0025 27.1899H41.8126C41.4678 27.1899 41.1371 27.3269 40.8933 27.5707C40.6495 27.8145 40.5126 28.1451 40.5126 28.4899C40.5126 28.8347 40.6495 29.1654 40.8933 29.4092C41.1371 29.653 41.4678 29.7899 41.8126 29.7899H45.0025C45.3473 29.7899 45.6781 29.653 45.9219 29.4092C46.1657 29.1654 46.3026 28.8347 46.3026 28.4899C46.3026 28.1451 46.1657 27.8145 45.9219 27.5707C45.6781 27.3269 45.3473 27.1899 45.0025 27.1899ZM86.6025 19.1899H53.0025C52.6578 19.1899 52.3272 19.3269 52.0834 19.5707C51.8396 19.8145 51.7026 20.1451 51.7026 20.4899C51.7026 20.8347 51.8396 21.1654 52.0834 21.4092C52.3272 21.653 52.6578 21.7899 53.0025 21.7899H86.6025C86.9473 21.7899 87.278 21.653 87.5218 21.4092C87.7656 21.1654 87.9026 20.8347 87.9026 20.4899C87.9026 20.1451 87.7656 19.8145 87.5218 19.5707C87.278 19.3269 86.9473 19.1899 86.6025 19.1899ZM45.0025 19.1899H41.8126C41.4678 19.1899 41.1371 19.3269 40.8933 19.5707C40.6495 19.8145 40.5126 20.1451 40.5126 20.4899C40.5126 20.8347 40.6495 21.1654 40.8933 21.4092C41.1371 21.653 41.4678 21.7899 41.8126 21.7899H45.0025C45.3473 21.7899 45.6781 21.653 45.9219 21.4092C46.1657 21.1654 46.3026 20.8347 46.3026 20.4899C46.3026 20.1451 46.1657 19.8145 45.9219 19.5707C45.6781 19.3269 45.3473 19.1899 45.0025 19.1899ZM86.6025 11.1899H53.0025C52.6578 11.1899 52.3272 11.3269 52.0834 11.5707C51.8396 11.8145 51.7026 12.1451 51.7026 12.4899C51.7026 12.8347 51.8396 13.1654 52.0834 13.4092C52.3272 13.653 52.6578 13.7899 53.0025 13.7899H86.6025C86.9473 13.7899 87.278 13.653 87.5218 13.4092C87.7656 13.1654 87.9026 12.8347 87.9026 12.4899C87.9026 12.1451 87.7656 11.8145 87.5218 11.5707C87.278 11.3269 86.9473 11.1899 86.6025 11.1899ZM45.0025 11.1899H41.8126C41.4678 11.1899 41.1371 11.3269 40.8933 11.5707C40.6495 11.8145 40.5126 12.1451 40.5126 12.4899C40.5126 12.8347 40.6495 13.1654 40.8933 13.4092C41.1371 13.653 41.4678 13.7899 41.8126 13.7899H45.0025C45.3473 13.7899 45.6781 13.653 45.9219 13.4092C46.1657 13.1654 46.3026 12.8347 46.3026 12.4899C46.3026 12.1451 46.1657 11.8145 45.9219 11.5707C45.6781 11.3269 45.3473 11.1899 45.0025 11.1899ZM73.8026 49.2899C71.9039 49.2899 70.0478 49.853 68.4691 50.9078C66.8904 51.9627 65.6599 53.462 64.9333 55.2162C64.2067 56.9703 64.0167 58.9006 64.3871 60.7628C64.7575 62.625 65.6718 64.3356 67.0144 65.6781C68.357 67.0207 70.0675 67.9351 71.9297 68.3055C73.7919 68.6759 75.7221 68.4858 77.4763 67.7592C79.2305 67.0326 80.7298 65.8021 81.7847 64.2234C82.8395 62.6447 83.4026 60.7886 83.4026 58.8899C83.4026 56.3439 82.3912 53.9021 80.5908 52.1017C78.7905 50.3013 76.3487 49.2899 73.8026 49.2899ZM73.8026 65.2899C72.5368 65.2899 71.2994 64.9146 70.2469 64.2113C69.1945 63.5081 68.3742 62.5085 67.8898 61.3391C67.4054 60.1696 67.2785 58.8829 67.5255 57.6414C67.7724 56.3999 68.382 55.2595 69.2771 54.3645C70.1721 53.4694 71.3126 52.8598 72.5541 52.6129C73.7955 52.366 75.0824 52.4927 76.2518 52.9771C77.4213 53.4615 78.4208 54.2818 79.124 55.3343C79.8272 56.3867 80.2026 57.6241 80.2026 58.8899C80.2 60.5865 79.5248 62.2128 78.3252 63.4125C77.1255 64.6122 75.4992 65.2873 73.8026 65.2899Z" fill="#C79954"/>
<path d="M89.1299 59.6999L88.9499 59.4299C88.8416 59.2577 88.7841 59.0583 88.7841 58.8549C88.7841 58.6514 88.8416 58.4521 88.9499 58.2799L89.1198 58.0199C89.7296 57.0669 89.9372 55.9114 89.6974 54.8058C89.4575 53.7002 88.7897 52.7345 87.8399 52.1199L87.4898 51.9299L87.2099 51.7799C87.0268 51.6872 86.8745 51.5434 86.7716 51.3659C86.6686 51.1884 86.6194 50.9848 86.6299 50.7799V50.4599C86.6815 49.3304 86.2831 48.2266 85.5219 47.3905C84.7608 46.5544 83.6992 46.0543 82.5699 45.9999H81.8498C81.6449 46.0104 81.4414 45.9612 81.2639 45.8582C81.0864 45.7553 80.9425 45.603 80.8498 45.4199L80.6999 45.1399C80.4432 44.6428 80.0911 44.2012 79.6637 43.8402C79.2363 43.4793 78.742 43.206 78.209 43.0361C77.6759 42.8661 77.1146 42.8029 76.5571 42.8498C75.9996 42.8968 75.457 43.0531 74.9599 43.3099C74.8379 43.3668 74.7208 43.4336 74.6098 43.5099L74.3498 43.6799C74.1776 43.7882 73.9783 43.8457 73.7749 43.8457C73.5714 43.8457 73.3721 43.7882 73.1999 43.6799L72.9299 43.5099C72.4592 43.2069 71.9334 42.9997 71.3825 42.9001C70.8317 42.8004 70.2666 42.8103 69.7196 42.9292C69.1726 43.0481 68.6544 43.2736 68.1945 43.5929C67.7347 43.9121 67.3424 44.3189 67.0399 44.7899C66.9674 44.9031 66.9007 45.0199 66.8399 45.1399L66.6999 45.4199C66.5993 45.5962 66.4537 45.7428 66.278 45.8447C66.1024 45.9466 65.903 46.0001 65.6999 45.9999H65.3799C64.2504 45.9483 63.1466 46.3467 62.3105 47.1078C61.4744 47.8689 60.9743 48.9306 60.9199 50.0599C60.9099 50.1897 60.9099 50.3201 60.9199 50.4499V50.7699C60.9313 50.9738 60.8836 51.1766 60.7824 51.354C60.6813 51.5314 60.5311 51.6758 60.3498 51.7699L60.0699 51.9199C59.571 52.1746 59.1275 52.5257 58.765 52.9528C58.4025 53.3799 58.1283 53.8746 57.9581 54.4083C57.7879 54.942 57.7253 55.5042 57.7737 56.0623C57.822 56.6204 57.9804 57.1634 58.2398 57.6599C58.2972 57.7765 58.3607 57.8899 58.4299 57.9999L58.6098 58.2799C58.7173 58.4506 58.7744 58.6482 58.7744 58.8499C58.7744 59.0516 58.7173 59.2492 58.6098 59.4199L58.4399 59.6899C58.1369 60.1606 57.9297 60.6864 57.83 61.2372C57.7304 61.7881 57.7403 62.3532 57.8592 62.9002C57.9781 63.4472 58.2035 63.9654 58.5228 64.4252C58.8421 64.885 59.2489 65.2774 59.7199 65.5799L60.0699 65.7799L60.3498 65.9299C60.5321 66.0235 60.6838 66.1675 60.7866 66.3448C60.8894 66.5221 60.9391 66.7252 60.9299 66.9299V67.2499C60.8784 68.2369 61.1757 69.2106 61.7699 70.0005C62.3641 70.7903 63.2172 71.3459 64.1799 71.5699V92.4599C64.181 93.092 64.3692 93.7096 64.7209 94.2349C65.0726 94.7601 65.5719 95.1694 66.156 95.4111C66.74 95.6529 67.3826 95.7163 68.0027 95.5932C68.6227 95.4702 69.1924 95.1663 69.6399 94.7199L73.7799 90.5799L77.9199 94.7199C78.3674 95.1663 78.9371 95.4702 79.5571 95.5932C80.1771 95.7163 80.8197 95.6529 81.4038 95.4111C81.9878 95.1694 82.4871 94.7601 82.8388 94.2349C83.1905 93.7096 83.3788 93.092 83.3799 92.4599V71.5999C84.3435 71.3777 85.1978 70.8225 85.7923 70.0323C86.3868 69.242 86.6834 68.2673 86.6299 67.2799V66.9599C86.6209 66.7564 86.6697 66.5546 86.7706 66.3776C86.8715 66.2007 87.0203 66.0559 87.1999 65.9599L87.4798 65.8199C87.9782 65.5632 88.421 65.2106 88.7828 64.7825C89.1446 64.3543 89.4185 63.8589 89.5885 63.3248C89.7585 62.7906 89.8213 62.2281 89.7735 61.6696C89.7257 61.111 89.5682 60.5674 89.3099 60.0699C89.2568 59.9433 89.1966 59.8198 89.1299 59.6999ZM80.1999 92.4599L76.0599 88.3199C75.4514 87.738 74.6419 87.4132 73.7999 87.4132C72.9579 87.4132 72.1484 87.738 71.5399 88.3199L67.3999 92.4599V73.3799C68.0665 74.1713 68.9984 74.693 70.0216 74.8476C71.0447 75.0021 72.0892 74.779 72.9599 74.2199L73.2298 74.0399C73.4021 73.9316 73.6014 73.8741 73.8049 73.8741C74.0084 73.8741 74.2076 73.9316 74.3799 74.0399L74.6399 74.2099C75.5088 74.7723 76.5531 74.9983 77.5768 74.8455C78.6004 74.6927 79.5332 74.1715 80.1999 73.3799V92.4599ZM86.2599 61.1599L86.4299 61.4299C86.5059 61.5473 86.5579 61.6785 86.583 61.8161C86.608 61.9537 86.6056 62.0949 86.5759 62.2315C86.5462 62.3681 86.4896 62.4975 86.4096 62.6122C86.3297 62.727 86.2278 62.8247 86.1098 62.8999H86.0199L85.7398 63.0499C85.0144 63.4273 84.4123 64.0045 84.0047 64.7134C83.5971 65.4223 83.4011 66.2331 83.4399 67.0499V67.3699C83.4471 67.5176 83.4232 67.6651 83.37 67.803C83.3167 67.9409 83.2352 68.0661 83.1307 68.1707C83.0262 68.2752 82.9009 68.3567 82.763 68.41C82.6251 68.4632 82.4776 68.487 82.3299 68.4799H82.0099C81.1916 68.4323 80.3773 68.6245 79.6667 69.0331C78.9562 69.4417 78.3803 70.0487 78.0099 70.7799L77.8598 71.0599C77.7974 71.1851 77.7106 71.2966 77.6045 71.3878C77.4983 71.479 77.3749 71.5481 77.2417 71.5909C77.1084 71.6338 76.968 71.6496 76.8286 71.6374C76.6892 71.6252 76.5537 71.5853 76.4299 71.5199L76.3399 71.4699L76.0699 71.2999C75.3836 70.8597 74.5853 70.6256 73.7699 70.6256C72.9545 70.6256 72.1563 70.8597 71.4699 71.2999L71.1999 71.4699C71.0764 71.5525 70.937 71.6086 70.7906 71.6344C70.6443 71.6602 70.4942 71.6553 70.3498 71.6199C70.2066 71.5757 70.0736 71.5034 69.9586 71.4072C69.8436 71.3111 69.7488 71.193 69.6799 71.0599L69.5299 70.7799C69.1709 70.0871 68.6285 69.5062 67.9619 69.1006C67.2953 68.6951 66.5301 68.4803 65.7498 68.4799H65.2298C65.0818 68.4908 64.9333 68.4687 64.7949 68.415C64.6565 68.3614 64.5319 68.2777 64.4299 68.1699C64.3263 68.0648 64.2453 67.9396 64.192 67.802C64.1387 67.6644 64.1141 67.5174 64.1198 67.3699V67.0499C64.1599 66.2329 63.9645 65.4216 63.5567 64.7125C63.149 64.0034 62.5461 63.4263 61.8199 63.0499L61.5299 62.8999C61.2799 62.768 61.0922 62.5425 61.0079 62.2727C60.9236 62.0029 60.9495 61.7107 61.0799 61.4599C61.075 61.4335 61.075 61.4063 61.0799 61.3799L61.2498 61.1099C61.6854 60.4218 61.9167 59.6242 61.9167 58.8099C61.9167 57.9955 61.6854 57.1979 61.2498 56.5099L61.0699 56.2399C60.9944 56.1219 60.9429 55.9901 60.9185 55.8521C60.8942 55.7142 60.8976 55.5728 60.9283 55.4361C60.959 55.2994 61.0164 55.1701 61.0974 55.0558C61.1783 54.9414 61.2811 54.8443 61.3999 54.7699H61.4798L61.7599 54.6199C62.4869 54.2445 63.0905 53.6676 63.4984 52.9583C63.9063 52.2489 64.1012 51.4371 64.0599 50.6199V50.2999C64.0528 50.1522 64.0766 50.0047 64.1299 49.8668C64.1831 49.7289 64.2646 49.6036 64.3691 49.4991C64.4736 49.3946 64.5989 49.3131 64.7368 49.2598C64.8747 49.2066 65.0222 49.1827 65.1699 49.1899H65.4898C66.306 49.225 67.1154 49.0275 67.8236 48.6202C68.5318 48.213 69.1096 47.6129 69.4898 46.8899L69.6299 46.5999C69.76 46.3481 69.9848 46.1583 70.2547 46.0721C70.5247 45.9858 70.8179 46.0102 71.0699 46.1399L71.1499 46.1899L71.4199 46.3599C72.1062 46.8001 72.9045 47.0341 73.7199 47.0341C74.5353 47.0341 75.3335 46.8001 76.0199 46.3599L76.2899 46.1899C76.5289 46.04 76.8176 45.9905 77.0929 46.0523C77.3682 46.1141 77.6078 46.2822 77.7599 46.5199C77.7647 46.5463 77.7647 46.5734 77.7599 46.5999L77.9099 46.8899C78.2872 47.6153 78.8646 48.2175 79.5735 48.6251C80.2823 49.0327 81.0931 49.2287 81.9099 49.1899H82.2298C82.3778 49.179 82.5264 49.2011 82.6648 49.2547C82.8031 49.3084 82.9279 49.3921 83.0299 49.4999C83.1335 49.605 83.2144 49.7302 83.2677 49.8678C83.321 50.0054 83.3457 50.1524 83.3399 50.2999V50.6999C83.3039 51.515 83.4999 52.3236 83.9052 53.0317C84.3106 53.7398 84.9087 54.3183 85.6299 54.6999L85.9199 54.8299C86.1716 54.9601 86.3615 55.1848 86.4477 55.4547C86.534 55.7247 86.5095 56.0179 86.3799 56.2699V56.3599L86.2099 56.6199C85.7833 57.3077 85.5613 58.1028 85.5702 58.9122C85.579 59.7215 85.8182 60.5116 86.2599 61.1899V61.1599Z" fill="#0F172A"/>
<path d="M73.7997 49.2899C71.901 49.2899 70.0449 49.853 68.4662 50.9078C66.8875 51.9627 65.657 53.462 64.9304 55.2162C64.2038 56.9703 64.0137 58.9006 64.3841 60.7628C64.7546 62.625 65.6689 64.3356 67.0115 65.6781C68.354 67.0207 70.0645 67.935 71.9267 68.3055C73.789 68.6759 75.7192 68.4858 77.4734 67.7592C79.2275 67.0326 80.7269 65.8021 81.7817 64.2234C82.8366 62.6447 83.3996 60.7886 83.3996 58.8899C83.3996 56.3439 82.3882 53.902 80.5879 52.1017C78.7875 50.3014 76.3457 49.2899 73.7997 49.2899ZM73.7997 65.2899C72.5339 65.2899 71.2965 64.9146 70.244 64.2113C69.1915 63.5081 68.3712 62.5085 67.8868 61.3391C67.4024 60.1696 67.2756 58.8829 67.5226 57.6414C67.7695 56.3999 68.3791 55.2595 69.2742 54.3645C70.1692 53.4694 71.3097 52.8598 72.5511 52.6129C73.7926 52.366 75.0794 52.4927 76.2489 52.9771C77.4183 53.4615 78.4178 54.2818 79.1211 55.3343C79.8243 56.3867 80.1997 57.6241 80.1997 58.8899C80.197 60.5865 79.5219 62.2128 78.3223 63.4125C77.1226 64.6122 75.4962 65.2873 73.7997 65.2899Z" fill="#0F172A" />
</svg>
