<svg width="52" height="80" viewBox="0 0 52 80" fill="none" xmlns="http://www.w3.org/2000/svg">
<path d="M51.4308 54.3537C51.4308 54.0774 51.4944 53.9074 51.4944 53.8861C51.5191 50.8915 51.31 47.8996 50.869 44.9377C50.869 44.9377 50.869 44.8527 50.869 44.8208C49.8795 38.4728 47.9989 32.2972 45.2831 26.4777C45.2579 26.2798 45.1728 26.0944 45.0393 25.9463C42.5424 20.6546 39.528 15.6244 36.0404 10.9296C36.008 10.852 35.969 10.7774 35.9238 10.7064C35.9238 10.6533 35.8284 10.6214 35.786 10.5789C33.0489 6.85 29.9993 3.36212 26.6705 0.153291C26.632 0.122313 26.5892 0.0972496 26.5433 0.0789062C26.5199 0.049082 26.4911 0.023853 26.4585 0.00450569H26.3737C26.3245 -0.0015019 26.2746 -0.0015019 26.2253 0.00450569H26.0663H25.9921H25.8332H25.6742H25.6H25.5364C25.5364 0.00450569 25.5364 0.0576512 25.4622 0.0789062C25.4163 0.0972496 25.3735 0.122313 25.335 0.153291C22.0119 3.35762 18.9693 6.84208 16.2407 10.5683C16.1805 10.6053 16.1268 10.652 16.0817 10.7064C16.0289 10.782 15.9861 10.8642 15.9545 10.9509C12.4857 15.6277 9.48563 20.6362 6.99795 25.9038C6.85348 26.0708 6.76455 26.2789 6.74356 26.499C4.0545 32.2882 2.1885 38.4269 1.20005 44.7358C1.16292 44.8489 1.145 44.9675 1.14705 45.0865C0.7186 48.021 0.516603 50.9843 0.542878 53.9499C0.542878 53.9499 0.542878 54.0987 0.542878 54.3325C0.499034 54.4823 0.488656 54.6399 0.512471 54.7942C0.536287 54.9485 0.593716 55.0957 0.680675 55.2252C1.18713 58.1801 2.01531 61.0703 3.15035 63.8441C3.15035 63.8441 3.15035 63.9185 3.15035 63.961C3.19383 64.0997 3.26207 64.2294 3.35174 64.3436C4.57631 67.2573 6.24241 69.9638 8.29108 72.3674C8.37856 72.531 8.50174 72.6727 8.65146 72.7819C10.65 74.9902 13.0775 76.7659 15.7849 78L15.8803 78.0744H15.9863C19.0281 79.3851 22.3106 80.0404 25.6212 79.998H26.4373C29.748 80.0414 33.0307 79.386 36.0722 78.0744H36.1782C36.212 78.0522 36.2439 78.0273 36.2736 78C38.9795 76.7633 41.4065 74.988 43.407 72.7819C43.5628 72.6749 43.6872 72.5281 43.7674 72.3568C45.8169 69.9636 47.4799 67.2634 48.6962 64.3542C48.7938 64.2397 48.8661 64.1057 48.9082 63.961C48.9082 63.961 48.9082 63.876 48.9082 63.8335C50.0379 61.0697 50.8625 58.1902 51.3672 55.2465C51.4419 55.1112 51.4863 54.9613 51.4973 54.8071C51.5083 54.653 51.4856 54.4982 51.4308 54.3537ZM47.138 62.4307L45.2195 61.8993L48.4524 58.4028C48.0856 59.7678 47.6469 61.1123 47.138 62.4307ZM36.1676 75.6407L35.1077 73.1857L39.9834 73.0582C38.8154 74.0642 37.5349 74.9308 36.1676 75.6407ZM11.7889 73.0795L16.8024 73.1857L15.6789 75.6938C14.2906 74.9705 12.9921 74.0859 11.8101 73.0582L11.7889 73.0795ZM3.30933 58.3072L6.62696 61.878L4.62367 62.4307C4.1251 61.0814 3.70397 59.7047 3.36233 58.3072H3.30933ZM39.1567 19.506L33.8569 13.6609L34.7897 12.917C36.2842 14.8937 37.7681 17.0936 39.2096 19.506H39.1567ZM24.3174 18.4433L17.131 26.297L20.1413 15.3613L24.3174 18.4433ZM25.918 68.4565L15.4351 64.6306L12.0221 54.7363L15.9015 30.7075L25.918 19.8674L35.9238 30.7075L39.8032 54.7363L36.3902 64.6306L25.918 68.4565ZM10.9939 58.2966L12.7323 63.3234L9.9128 61.8993L10.9939 58.2966ZM40.8314 58.2966L41.8913 61.8993L39.0719 63.3234L40.8314 58.2966ZM41.3083 50.666L38.9659 36.1806L43.5554 44.587L41.3083 50.666ZM37.9165 29.7935L34.5777 17.5825L43.1844 27.0941L43.566 40.0916L37.9165 29.7935ZM31.7159 15.3188L34.7579 26.297L27.5397 18.4858L31.7159 15.3188ZM25.918 16.9554L20.9044 13.2039L25.9603 3.30967L31.0057 13.2039L25.918 16.9554ZM10.517 50.666L8.26988 44.587L12.8594 36.1806L10.517 50.666ZM9.7962 54.8639L8.18508 60.3583L2.77936 54.5131L6.94495 47.0739L9.7962 54.8639ZM13.8346 66.2885L16.5481 71.0177L10.1884 70.8902L9.828 64.248L13.8346 66.2885ZM18.9011 70.8371L16.9826 67.4894L22.6745 69.6149L18.9011 70.8371ZM25.918 70.7414L31.3343 72.58L25.918 77.5218L20.491 72.58L25.918 70.7414ZM29.1508 69.5618L34.8427 67.4362L32.9242 70.7839L29.1508 69.5618ZM37.9907 66.2885L42.0397 64.248L41.6687 70.8902L35.3091 71.0177L37.9907 66.2885ZM43.6826 60.3583L42.1033 54.8639L44.997 47.042L49.1625 54.4813L43.6826 60.3583ZM45.4421 32.4716C46.8312 36.1697 47.8675 39.9914 48.5372 43.8856L45.7707 43.5455L45.4421 32.4716ZM32.7228 11.8755L30.2955 7.16747C31.3025 8.3365 32.4154 9.69682 33.5708 11.2166L32.7228 11.8755ZM19.1873 11.8755L18.3288 11.1953C19.4841 9.68619 20.597 8.32587 21.5934 7.14621L19.1873 11.8755ZM13.9512 29.7935L8.33348 40.0916L8.71506 27.0941L17.3218 17.5825L13.9512 29.7935ZM6.06519 43.5455L3.31994 43.8856C3.98755 40.0071 5.01667 36.1999 6.39377 32.5142L6.06519 43.5455ZM2.99136 46.1068L5.11125 45.8305L2.56738 50.4003C2.69457 48.9443 2.82176 47.5521 3.01255 46.1068H2.99136ZM7.64452 63.8441L7.9095 68.7222C6.98595 67.3759 6.17752 65.9539 5.49283 64.4711L7.64452 63.8441ZM18.7845 73.9297L23.0243 77.7662C21.1924 77.5868 19.3903 77.1761 17.661 76.544L18.7845 73.9297ZM33.0196 73.9297L34.1749 76.5122C32.4697 77.1555 30.6881 77.5735 28.8752 77.7556L33.0196 73.9297ZM44.2232 63.8441L46.2795 64.4074C45.6197 65.8378 44.847 67.2131 43.9688 68.5202L44.2232 63.8441ZM46.7246 45.7773L48.8975 46.0536C49.0777 47.4671 49.2049 48.9018 49.2791 50.3684L46.7246 45.7773ZM17.0462 12.832L17.9684 13.5759L12.6687 19.3891C14.142 17.0723 15.6047 14.8831 17.0462 12.917V12.832Z" fill="#0F172A"/>
</svg>
