<svg width="52" height="80" viewBox="0 0 52 80" fill="none" xmlns="http://www.w3.org/2000/svg">
<path d="M25.9519 80H26.0308C30.0194 79.9429 33.885 78.6134 37.0616 76.2059H37.1579C37.1579 76.2059 37.2105 76.1447 37.2456 76.1185C40.6092 73.5257 43.4059 70.274 45.4639 66.5632C45.5243 66.4806 45.5715 66.3892 45.6041 66.2922C47.6034 62.7004 49.1288 58.8658 50.1425 54.8836C52.6192 45.1713 52.6192 34.9948 50.1425 25.2825C49.1273 21.3009 47.6019 17.4664 45.6041 13.8739C45.5697 13.7777 45.5226 13.6866 45.4639 13.6029C43.4063 9.89182 40.6095 6.64002 37.2456 4.04765L37.1579 3.96022H37.0616C33.904 1.49656 30.0376 0.108485 26.0308 0H25.9432C21.9592 0.061454 18.0997 1.39415 14.9299 3.80287H14.8423L14.7634 3.88154C11.3918 6.47433 8.58883 9.72935 6.52756 13.4455C6.46878 13.5323 6.42165 13.6263 6.38738 13.7253C4.43066 17.243 2.9292 20.9942 1.91898 24.8891C1.88645 24.958 1.86572 25.0319 1.85765 25.1076C0.611116 29.9632 -0.0130148 34.957 0.000205689 39.9694C-0.0130148 44.9818 0.611116 49.9756 1.85765 54.8312C1.86466 54.9071 1.88544 54.9812 1.91898 55.0497C2.9292 58.9446 4.43066 62.6958 6.38738 66.2135C6.41983 66.3133 6.46708 66.4076 6.52756 66.4933C8.59148 70.2076 11.394 73.4621 14.7634 76.0573C14.7634 76.0573 14.7634 76.1185 14.8423 76.136H14.9211C18.0951 78.5432 21.9569 79.8755 25.9432 79.9388L25.9519 80ZM16.4369 75.2093L20.2657 69.0897L24.6464 78.2079C21.6982 77.9244 18.8718 76.892 16.4369 75.2093ZM3.62749 55.1634L7.73665 52.8991L6.61517 63.1538C5.38072 60.5853 4.38078 57.911 3.62749 55.1634ZM6.61517 16.8463L7.73665 27.1009L3.62749 24.8366C4.38078 22.089 5.38072 19.4148 6.61517 16.8463ZM24.6202 1.78342L20.2394 10.9015L16.4106 4.78199C18.8439 3.09607 21.6711 2.06343 24.6202 1.78342ZM35.5546 4.79949L31.7258 10.919L27.345 1.80092C30.2935 2.08324 33.1202 3.11568 35.5546 4.79949ZM48.364 24.8366L44.2548 27.1009L45.385 16.8463C46.6166 19.415 47.6136 22.0893 48.364 24.8366ZM45.385 63.1538L44.2548 52.8991L48.364 55.1634C47.6136 57.9107 46.6166 60.585 45.385 63.1538ZM27.3713 78.2166L31.7521 69.0985L35.5809 75.218C33.1483 76.9053 30.3207 77.9381 27.3713 78.2166ZM11.8283 43.1516L15.0613 54.6126L9.71676 50.9933L11.8283 43.1516ZM9.71676 28.9979L15.0613 25.3699L11.8283 36.8659L9.71676 28.9979ZM40.1719 36.8659L36.9389 25.4049L42.2834 29.0329L40.1719 36.8659ZM42.2834 51.0108L36.9389 54.6301L40.1719 43.1691L42.2834 51.0108ZM17.2692 56.0988L12.7132 39.9781L17.2692 23.8837L26.0308 16.6889L34.7923 23.8837L39.3396 39.9956L34.7923 56.0988L26.0308 63.2936L17.2692 56.0988ZM27.5816 64.229L33.7146 59.211L31.2176 66.1349L27.5816 64.229ZM41.1006 39.9781L43.5539 30.5977L50.1338 39.9956L43.5539 49.4023L41.1006 39.9781ZM27.5378 15.7535L31.1738 13.8477L33.6708 20.7715L27.5378 15.7535ZM30.5079 12.2566L26.0308 14.6257L21.5186 12.2653L26.0308 2.81499L30.5079 12.2566ZM24.4537 15.7535L18.3206 20.7803L20.8264 13.8477L24.4537 15.7535ZM10.9346 39.9956L8.41129 49.4023L1.83137 39.9956L8.41129 30.5977L10.9346 39.9956ZM24.4537 64.2465L20.8264 66.1523L18.3206 59.2285L24.4537 64.2465ZM21.4835 67.7434L26.0308 65.3743L30.543 67.7434L26.0308 77.185L21.4835 67.7434ZM36.1854 57.1916L42.5726 52.8205L43.9218 65.147L32.8823 66.3272L36.1854 57.1916ZM44.4826 51.072L50.2915 42.7669C50.144 46.3758 49.6481 49.9622 48.8108 53.4761L44.4826 51.072ZM44.4826 28.9367L48.8108 26.5501C49.6494 30.0552 50.1482 33.6327 50.3003 37.2331L44.4826 28.9367ZM42.5726 27.1446L36.1854 22.7735L32.8823 13.6116L43.9218 14.7831L42.5726 27.1446ZM15.806 22.7735L9.42763 27.1446L8.06959 14.8181L19.1179 13.6466L15.806 22.7735ZM7.50885 28.893L1.70871 37.1894C1.86225 33.5896 2.35805 30.0126 3.18941 26.5064L7.50885 28.893ZM7.50885 51.0283L3.18941 53.4761C2.35805 49.9699 1.86225 46.3929 1.70871 42.7931L7.50885 51.0283ZM9.42763 52.7768L15.806 57.1479L19.1179 66.3184L8.06959 65.182L9.42763 52.7768ZM36.9214 74.1252L33.0751 68.0057L43.256 66.9304C41.5681 69.6921 39.4266 72.1509 36.9214 74.2039V74.1252ZM43.256 12.9297L33.04 11.9331L36.8863 5.81359C39.4018 7.83884 41.5555 10.2745 43.256 13.0172V12.9297ZM15.0701 5.71741L18.9251 11.837L8.73547 12.921C10.436 10.2142 12.5769 7.80918 15.0701 5.80484V5.71741ZM8.73547 66.9129L18.9251 67.9882L15.0701 74.1078C12.5808 72.0993 10.4406 69.695 8.73547 66.9916V66.9129Z" fill="#0F172A"/>
</svg>
