<svg width="99" height="92" viewBox="0 0 99 92" fill="none" xmlns="http://www.w3.org/2000/svg">
<path d="M50.6374 5.11455C50.6374 3.60573 48.3626 3.60573 48.3626 5.11455V12.7938C48.3626 14.3026 50.6374 14.3026 50.6374 12.7938V5.11455ZM68.0477 7.70431C68.4306 6.24053 66.2234 5.65502 65.8405 7.09628L63.8584 14.5278C63.4755 15.9916 65.6828 16.5771 66.0657 15.1133L68.0477 7.70431ZM84.1967 14.7079C84.94 13.4018 82.9805 12.2758 82.2147 13.5594L78.3858 20.2253C77.62 21.5314 79.602 22.6574 80.3453 21.3512L84.1967 14.7079ZM97.9809 25.6525C99.0394 24.5941 97.4403 22.9727 96.3592 24.0311L90.9311 29.4808C89.8726 30.5393 91.4717 32.1607 92.5528 31.1023L97.9809 25.6525ZM33.1595 7.09628C32.7541 5.65502 30.5469 6.24053 30.9523 7.70431L32.9343 15.1133C33.3172 16.5771 35.5245 15.9916 35.1416 14.5278L33.1595 7.09628ZM16.7853 13.5594C16.0195 12.2533 14.0375 13.4018 14.8033 14.7079L18.6547 21.3738C19.398 22.6574 21.38 21.5314 20.6142 20.2253L16.7853 13.5594ZM2.64082 24.0311C1.55972 22.9727 -0.0394199 24.5941 1.01916 25.6525L6.44722 31.1023C7.52832 32.1607 9.12746 30.5393 8.06887 29.4808L2.64082 24.0311ZM91.4041 1.87172C94.1519 -0.898202 100.548 2.41219 95.706 8.87534C94.715 10.204 93.4762 11.4426 92.2149 12.7037C91.7645 13.1316 91.0437 13.1316 90.5933 12.7037C88.3185 10.4292 83.003 5.31723 86.3815 1.93928C87.7554 0.588096 90.0302 0.498017 91.4041 1.87172ZM93.1159 3.38054C92.5078 3.87597 92.5528 4.57408 91.9221 4.91187C91.3591 5.18211 90.6609 4.95691 90.3906 4.39392C89.2194 2.07439 87.6202 3.51565 87.6202 4.484C87.6202 6.44321 89.9401 8.78526 91.4041 10.2716C92.6204 9.03297 96.4493 5.20463 94.8051 3.56069C94.3321 3.08778 93.5213 3.06526 93.1159 3.38054ZM7.59589 1.87172C10.3437 -0.898202 16.7402 2.41219 11.8978 8.87534C10.9068 10.204 9.64549 11.4426 8.40672 12.7037C7.95626 13.1316 7.23552 13.1316 6.78506 12.7037C4.51023 10.4292 -0.805203 5.31723 2.57325 1.93928C3.92463 0.588096 6.22198 0.498017 7.59589 1.87172ZM9.30764 3.38054C8.69952 3.87597 8.74457 4.57408 8.11392 4.88935C7.52832 5.18211 6.85263 4.95691 6.55983 4.39392H6.58235C5.41116 2.07439 3.81202 3.51565 3.81202 4.484C3.81202 6.44321 6.13189 8.78526 7.59589 10.2716C14.4879 3.29046 10.0509 2.7725 9.30764 3.38054Z" fill="#C79954"/>
<path d="M18.7887 53.9144H80.1865C80.8172 53.9144 81.3352 54.4324 81.3352 55.0629V86.8832C81.3352 88.0542 80.8622 89.0901 80.0965 89.8558V89.8783C79.3307 90.644 78.2721 91.1169 77.1234 91.1169H21.8744C19.5545 91.1169 17.6626 89.2027 17.6626 86.8832V55.0629C17.6626 54.4324 18.1581 53.9144 18.7887 53.9144ZM79.0604 56.2114H19.9374V86.8832C19.9374 87.9642 20.8158 88.8199 21.8744 88.8199H77.1234C77.6414 88.8199 78.1369 88.5947 78.4748 88.2569C78.8352 87.8966 79.0604 87.4237 79.0604 86.8832V56.2114Z" fill="#0F172A"/>
<path d="M16.9868 53.9144H82.0108C82.4163 53.9144 82.7541 53.5766 82.7541 53.1713C82.7541 52.0228 82.8217 41.0106 82.6865 40.8755C82.2586 40.6954 22.3924 40.808 16.4688 40.808L16.2436 41.0332V53.1713C16.2436 53.5766 16.5814 53.9144 16.9868 53.9144ZM82.0108 56.2114H16.9868C15.3201 56.2114 13.9688 54.8377 13.9688 53.1713V41.0332C13.9688 39.6595 15.0724 38.511 16.4688 38.511H82.5289C83.2271 38.511 83.8577 38.8037 84.3082 39.2541C84.7587 39.7045 85.0289 40.3351 85.0289 41.0332V53.1713C85.0289 54.8377 83.6776 56.2114 82.0108 56.2114Z" fill="#0F172A"/>
<path d="M41.7397 38.511H57.2581C57.8887 38.511 58.4068 39.0289 58.4068 39.6595V89.9684C58.4068 90.599 57.8887 91.1169 57.2581 91.1169H41.7397C41.1091 91.1169 40.591 90.599 40.591 89.9684V39.6595C40.591 39.0289 41.1091 38.511 41.7397 38.511ZM56.1094 40.808H42.8884V88.8199H56.1094V40.808Z" fill="#0F172A"/>
<path d="M55.3436 26.8232H72.2809C72.9341 26.8232 73.4296 27.3412 73.4296 27.9717V33.8043C73.4296 37.6552 70.2989 40.808 66.4474 40.808H49.4876C48.8569 40.808 48.3614 40.29 48.3614 39.6595V33.8043C48.3614 29.9535 51.4921 26.8232 55.3436 26.8232ZM71.1547 29.0977H55.3436C52.7534 29.0977 50.6363 31.2371 50.6363 33.8043V38.511H66.4474C69.0151 38.511 71.1547 36.3941 71.1547 33.8043V29.0977Z" fill="#0F172A"/>
<path d="M43.6541 29.0977H27.843V33.8043C27.843 36.3941 29.9601 38.511 32.5503 38.511H48.3615L48.3614 33.8043C48.3614 31.2371 46.2218 29.0977 43.6541 29.0977ZM26.6943 26.8232H43.6541C47.5056 26.8232 50.6363 29.9535 50.6363 33.8043L50.6363 39.6595C50.6363 40.29 50.1182 40.808 49.4876 40.808H32.5503C28.6989 40.808 25.5682 37.6552 25.5682 33.8043V27.9717C25.5682 27.3412 26.0637 26.8232 26.6943 26.8232ZM70.5692 42.2717C73.3395 39.5018 79.7135 42.8122 74.8711 49.2754C73.9026 50.5815 72.6413 51.8426 71.38 53.1037C70.9296 53.5541 70.2088 53.5541 69.7584 53.1037C67.506 50.8292 62.1906 45.7398 65.5691 42.3393C66.9204 40.9881 69.2178 40.898 70.5692 42.2717ZM72.2809 43.7806C71.6728 44.276 71.7404 44.9966 71.0872 45.3119C70.5241 45.5821 69.8259 45.3569 69.5556 44.7939C68.407 42.4744 66.7853 43.9157 66.7853 44.9065C66.7853 46.8432 69.1052 49.1853 70.5692 50.6716C77.4612 43.713 73.0467 43.195 72.2809 43.7806ZM28.4286 42.2717C30.5232 40.1549 34.4873 41.6412 34.4873 44.9065C34.4873 47.9917 31.4016 50.9193 29.2169 53.1037C28.7664 53.5541 28.0232 53.5541 27.5502 53.0361C25.5231 50.8517 22.3474 48.1719 22.3474 44.9065C22.3474 41.6637 26.2889 40.1324 28.4286 42.2717ZM30.1403 43.7806C29.5097 44.276 29.5773 44.9966 28.9241 45.3119C28.361 45.5821 27.6853 45.3569 27.3925 44.7939C26.2438 42.4744 24.6447 43.9157 24.6447 44.9065C24.6447 46.8432 26.9646 49.2078 28.4286 50.6716C35.3206 43.713 30.8836 43.195 30.1403 43.7806Z" fill="#0F172A"/>
<path d="M31.3791 63.8456L33.181 69.408L39.1045 69.3855C40.2082 69.3855 40.7262 70.8267 39.7352 71.4798L34.9828 74.9253L36.8297 80.5777C37.1676 81.6136 35.9513 82.582 34.9828 81.7938L30.2755 78.3483L25.4781 81.8388V81.8614C24.5772 82.4919 23.3159 81.6362 23.7438 80.5102L25.5682 74.9253L20.7483 71.4573C19.8699 70.8267 20.2753 69.3404 21.514 69.3855L27.3475 69.408L29.1719 63.7555C29.5322 62.6521 31.1089 62.7196 31.3791 63.8456ZM31.2665 70.8943L30.2755 67.8091L29.307 70.8042C29.1719 71.2996 28.7214 71.6825 28.1809 71.6825H24.9601L27.5277 73.5291C27.9556 73.7993 28.1583 74.3398 28.0007 74.8577H27.9782L26.9871 77.9204L29.5097 76.0738C29.8926 75.736 30.5007 75.691 30.9512 76.0062L30.9287 76.0288L33.5413 77.9204L32.5729 74.9253C32.3701 74.4524 32.5278 73.8894 32.9557 73.5741L35.5909 71.6825H32.4602C31.9197 71.7275 31.4242 71.4122 31.2665 70.8943ZM69.8485 63.8456L71.6503 69.408L77.5739 69.3855C78.6775 69.3855 79.173 70.8267 78.2045 71.4798L73.4296 74.9253L75.2765 80.5777C75.6144 81.6136 74.4207 82.582 73.4296 81.7938L68.7223 78.3483L63.9249 81.8388V81.8614C63.0465 82.4919 61.7852 81.6362 62.1906 80.5102L64.015 74.9253L59.2176 71.4573C58.3392 70.8267 58.7446 69.3404 59.9834 69.3855L65.8169 69.408L67.6412 63.7555C68.0016 62.6521 69.5782 62.7196 69.8485 63.8456ZM69.7133 70.8943L68.7223 67.8091L67.7538 70.8042C67.6412 71.2996 67.1908 71.6825 66.6502 71.6825H63.4069L65.9745 73.5291C66.4025 73.7993 66.6277 74.3398 66.4475 74.8577L65.434 77.9204L67.9791 76.0738C68.3619 75.736 68.9701 75.691 69.398 76.0062V76.0288L72.0107 77.9204L71.0422 74.9253C70.8395 74.4524 70.9971 73.8894 71.4251 73.5741L74.0378 71.6825H70.9071C70.389 71.7275 69.8935 71.4122 69.7133 70.8943Z" fill="#0F172A"/>
</svg>

