<svg width="82" height="80" viewBox="0 0 82 80" fill="none" xmlns="http://www.w3.org/2000/svg">
<path d="M81.4802 19.2918C80.8418 15.8408 79.5144 12.5547 77.5774 9.63087C75.6405 6.70704 73.134 4.2058 70.2086 2.27734C67.2494 0.819744 64.0033 0.0417737 60.7064 0C58.7241 0.00586533 56.754 0.312233 54.8631 0.908737C47.7201 3.0985 42.958 8.96708 41.0248 11.7262C39.1135 8.96708 34.3405 3.1423 27.1975 0.908737C25.3066 0.312233 23.3365 0.00586533 21.3542 0C18.0282 0.0447366 14.7547 0.837981 11.7755 2.32114C8.86946 4.25262 6.38073 6.75043 4.45745 9.66592C2.53417 12.5814 1.21566 15.855 0.580395 19.2918C-0.0316846 22.4583 -0.160568 25.6996 0.198133 28.9049C0.0938383 29.0665 0.033863 29.2528 0.0242755 29.445C0.0146879 29.6372 0.0558237 29.8286 0.143519 29.9998C0.20161 30.105 0.279492 30.198 0.372873 30.2735C1.68352 39.5581 6.5657 49.8609 15.0085 61.0616C19.6831 67.2586 39.6268 79.4008 40.4787 79.9154L40.6535 79.9921H40.7299H40.9811C41.0682 80.0026 41.1562 80.0026 41.2433 79.9921H41.3088L41.4836 79.9154C42.3355 79.4008 62.2355 67.2586 66.9538 61.0616C75.3966 49.8609 80.2787 39.5581 81.5894 30.2735C81.6803 30.1955 81.7578 30.103 81.8188 29.9998C81.9064 29.8286 81.9476 29.6372 81.938 29.445C81.9284 29.2528 81.8685 29.0665 81.7642 28.9049C82.1553 25.7046 82.0595 22.4633 81.4802 19.2918ZM79.7654 27.5691L74.3044 24.5144L78.007 15.2407C78.5918 16.6924 79.0415 18.1951 79.3504 19.7298C79.8424 22.312 79.982 24.9492 79.7654 27.5691ZM78.4002 35.2333L75.1236 27.5034L79.4924 29.9341C79.2532 31.7349 78.8882 33.5166 78.4002 35.2661V35.2333ZM52.3619 70.2695L50.0792 68.2768L59.5924 64.9922C57.3861 66.7987 54.8522 68.6162 52.3619 70.3243V70.2695ZM22.4464 65.0031L31.9595 68.2878L29.6768 70.2914C27.1866 68.6162 24.6526 66.7987 22.4464 65.0579V65.0031ZM2.57914 29.956L6.94796 27.5253L3.67134 35.2552C3.18477 33.5164 2.81982 31.7457 2.57914 29.956ZM42.1716 15.1312L46.2019 16.04L42.1171 19.0071L42.1716 15.1312ZM39.9872 18.9743L35.957 16.04L39.9872 15.1312V18.9743ZM40.446 22.0509C40.446 22.0509 40.446 22.0509 40.5006 22.0509L40.5879 22.1056H40.6426C40.779 22.1776 40.9308 22.2152 41.0849 22.2152C41.239 22.2152 41.3908 22.1776 41.5272 22.1056L41.6146 22.0509L48.9652 16.697L60.903 19.7188V35.8245L52.5585 48.8646L41.0139 58.4229L29.4365 48.9303L21.1467 35.8355V19.7298L33.0845 16.7079L40.446 22.0509ZM72.3493 23.3867L63.142 18.175V7.75175L76.4779 13.0181L72.3493 23.3867ZM47.447 65.5944L42.5867 59.901L51.3243 52.7295L47.447 65.5944ZM34.5917 65.5944L30.7035 52.7295L39.4411 59.901L34.5917 65.5944ZM18.8967 33.4048L10.9236 25.2261L18.8967 20.7152V33.4048ZM20.1855 38.4523L26.28 47.9777L16.8871 46.0836L20.1855 38.4523ZM27.7545 50.496L32.451 66.0542L18.4161 61.2477L16.6358 48.2514L27.7545 50.496ZM41.0139 61.4448L46.5514 67.9374L41.0139 76.8607L35.4873 67.9374L41.0139 61.4448ZM54.2842 50.496L65.392 48.3062L63.6226 61.3024L49.544 66.1418L54.2842 50.496ZM55.7587 47.9339L61.8532 38.4085L65.1298 46.0726L55.7587 47.9339ZM63.142 20.6713L71.1151 25.1823L63.142 33.361V20.6713ZM60.9576 8.21162V17.3539L51.4008 14.9342L60.9576 8.21162ZM21.1467 17.4415V8.29919L30.7035 15.0218L21.1467 17.4415ZM18.9622 18.2188L9.6894 23.3867L5.56086 13.0181L18.8967 7.75175L18.9622 18.2188ZM9.56926 26.9779L18.7547 36.4048L14.932 45.2515L4.91646 38.0581L9.56926 26.9779ZM33.9473 69.5797L37.639 75.5359C35.9461 74.441 33.849 73.0943 31.6319 71.6053L33.9473 69.5797ZM48.2334 69.5797L50.538 71.6053C48.3535 73.0943 46.1691 74.452 44.5308 75.5359L48.2334 69.5797ZM67.1614 45.2843L63.3496 36.4377L72.535 27.0107L77.1878 38.0909L67.1614 45.2843ZM75.2437 10.2481L64.4308 5.97805L67.8385 3.72259C68.2972 3.89777 68.745 4.0839 69.1928 4.30288C71.5775 5.86975 73.6331 7.88947 75.2437 10.2481ZM65.1517 2.84667L62.0171 4.91601L58.0196 2.50726C58.9074 2.35727 59.806 2.28038 60.7064 2.27734C62.2035 2.26676 63.6964 2.43957 65.1517 2.79194V2.84667ZM55.0051 3.26273L60.0183 6.29557L48.5392 14.3648L42.816 13.0838C44.5308 10.5875 48.7904 5.38681 55.0051 3.208V3.26273ZM39.2227 13.1167L33.4886 14.3977L22.0095 6.32842L27.0227 3.29557C33.2374 5.3868 37.5298 10.5875 39.2227 13.0291V13.1167ZM24.0192 2.5401L20.0217 4.94886L16.8871 2.87951C18.3402 2.50934 19.833 2.31817 21.3323 2.31019C22.2303 2.28473 23.1289 2.33233 24.0192 2.45253V2.5401ZM12.7694 4.36857C13.2391 4.14959 13.7196 3.94157 14.2002 3.75544L17.6079 6.01089L6.80597 10.27C8.40489 7.91918 10.4273 5.88809 12.7694 4.28096V4.36857ZM2.69928 19.8721C3.0119 18.3229 3.46524 16.8057 4.05362 15.3393L7.7562 24.602L2.29517 27.6567C2.07255 25.0264 2.20851 22.378 2.69928 19.7845V19.8721ZM5.85576 41.4851L14.3422 47.5726L15.8385 58.5214C11.8636 53.2496 8.51357 47.5324 5.85576 41.4851ZM66.2439 58.4886L67.7402 47.5398L76.2267 41.4522C73.5644 47.5019 70.2068 53.2193 66.222 58.4886H66.2439Z" fill="#0F172A"/>
</svg>
