<svg width="76" height="80" viewBox="0 0 76 80" fill="none" xmlns="http://www.w3.org/2000/svg">
<path d="M75.4544 22.968L75.2944 22.6262C72.982 17.8326 70.0757 13.347 66.6436 9.27436C62.4382 4.40981 58.0271 1.29968 53.5246 0.0806983L53.2961 0.0123424C53.2054 -0.00411412 53.1125 -0.00411412 53.0218 0.0123424H23.0698C22.9791 -0.00411412 22.8862 -0.00411412 22.7955 0.0123424C22.7024 0.0329251 22.6108 0.059564 22.5212 0.0920888C18.0301 1.32247 13.6191 4.4212 9.41365 9.28575C5.98013 13.3532 3.0737 17.8353 0.762874 22.6262L0.602887 22.9566C0.534985 23.1111 0.499963 23.2779 0.500037 23.4465V55.8806C0.498695 56.0384 0.533891 56.1943 0.602887 56.3363C0.682881 56.53 0.762874 56.7009 0.842868 56.8718L1.00286 57.2135C3.1302 62.0327 5.96482 66.5095 9.41365 70.4971L9.60793 70.7135C16.076 77.9477 22.0527 79.9072 22.3041 79.9869C22.4101 80.0044 22.5181 80.0044 22.6241 79.9869H53.4332C53.5392 80.0036 53.6472 80.0036 53.7532 79.9869C54.0046 79.9072 59.9813 77.9477 66.4494 70.7135L66.5751 70.5768C70.0254 66.5862 72.8601 62.1053 74.9859 57.2819L75.1573 56.9401C75.2373 56.7692 75.3173 56.5984 75.3973 56.4047C75.4623 56.2618 75.4936 56.1059 75.4887 55.949V23.4465C75.5115 23.2864 75.4998 23.1233 75.4544 22.968ZM73.2946 55.0376L72.2432 54.4794L72.0832 54.3882L71.249 53.9667L70.9633 53.83L70.3462 53.5224L70.0491 53.3743L69.5463 53.1465L69.2377 53.0097L68.8378 52.8275L68.5521 52.7136L68.1978 52.5768C68.117 52.5359 68.0329 52.5016 67.9464 52.4743L67.6493 52.3604L67.4322 52.292L67.2379 52.2237L73.386 43.4743V55.0832L73.2946 55.0376ZM54.0732 77.492C54.0518 77.3994 54.0251 77.3081 53.9932 77.2186C53.9932 77.0135 53.8789 76.8085 53.8103 76.6034C53.7417 76.3983 53.7303 76.3528 53.6846 76.216C53.6389 76.0793 53.5589 75.8173 53.4903 75.6236C53.4218 75.43 53.4104 75.373 53.3761 75.2477C53.3418 75.1224 53.2275 74.8262 53.1589 74.6097L53.0561 74.3249C52.9532 74.0173 52.839 73.7211 52.7361 73.4363C52.6218 73.1401 52.519 72.8553 52.4047 72.5705L52.3361 72.3654C52.2562 72.1604 52.1762 71.9667 52.1076 71.773C52.0647 71.6878 52.0266 71.6004 51.9933 71.511C51.9933 71.3515 51.8676 71.192 51.8105 71.0439L51.7076 70.7705C51.7076 70.6566 51.6048 70.5312 51.5591 70.4173L51.4905 70.235H51.6391H53.2618H53.7532L55.1931 70.3034H55.6159L57.4443 70.4059H57.9586L59.3413 70.4971H59.9927L61.4097 70.5996H61.8326L63.2953 70.7135C60.6612 73.5142 57.5358 75.8114 54.0732 77.492ZM41.1256 74.9173L40.8627 75.1793C40.4628 75.5553 40.0742 75.9426 39.72 76.3186L39.48 76.5578C39.1486 76.8882 38.84 77.2186 38.52 77.549L38.3372 77.7426H37.8001L37.6172 77.549L36.6573 76.5578L36.4173 76.3186C36.0288 75.9199 35.6403 75.5325 35.2746 75.1793L35.0003 74.9173L34.0404 74.0173L33.7433 73.7439L32.6005 72.7072L32.3605 72.6388L31.3663 71.7616L31.092 71.5338L30.1664 70.7477L30.075 70.6793L29.1607 69.9275L28.9322 69.7452L28.3608 69.2895L28.2237 69.1756L38.0744 63.0123L47.8108 69.2211L47.6736 69.335L47.1023 69.7907L46.8623 69.973L45.9595 70.7249L45.8795 70.7933L44.931 71.4996L44.6567 71.7274L43.6511 72.6047L43.5254 72.7072C43.1483 73.0376 42.7711 73.3907 42.3826 73.7439L42.0855 74.0173L41.1256 74.9173ZM24.1211 71.4996L24.0183 71.7388C23.9497 71.9439 23.8697 72.1376 23.7897 72.3426L23.7097 72.5477C23.6069 72.8325 23.4926 73.1173 23.3897 73.4135C23.2755 73.6983 23.1726 73.9945 23.0698 74.3021L22.9669 74.5869C22.8984 74.8034 22.8184 75.0085 22.7498 75.2363C22.6812 75.4641 22.6698 75.4641 22.6241 75.5895C22.5784 75.7148 22.4984 75.9882 22.4298 76.1933C22.3613 76.3983 22.3498 76.4553 22.3155 76.5806C22.2813 76.7059 22.1898 76.9907 22.1213 77.1958C22.0999 77.2884 22.0732 77.3797 22.0413 77.4692C18.5966 75.8374 15.4732 73.6034 12.8191 70.873L14.2933 70.7591H14.7047L16.1217 70.6566H16.7845L18.1559 70.5654H18.6815L20.51 70.4629H20.9328C21.4128 70.4629 21.9041 70.4059 22.3727 70.3945H22.8641H24.4754H24.6354L24.5668 70.5768L24.4182 70.93C24.3851 71.0231 24.3469 71.1143 24.304 71.2034C24.2468 71.1806 24.1783 71.3401 24.1211 71.4996ZM9.2651 66.7945C6.99474 63.8173 5.05228 60.6051 3.47125 57.2135L4.61402 56.6097L5.52823 56.1313L5.81393 55.9946L6.38531 55.7097L6.68243 55.5616L7.15097 55.3452L7.42523 55.2085L7.84806 55.0262L8.07661 54.9237L8.61372 54.7072L8.78513 54.6389L9.09368 54.5249L9.27652 54.4566L9.50508 54.411H9.58507L9.41365 60.2781L9.2651 66.7945ZM2.77415 55.0376H2.70559V43.4743L6.72814 49.1705L8.8537 52.1895H8.67085L8.4423 52.2692L8.12232 52.3946L7.89377 52.4743L7.48237 52.6452L7.26525 52.7363L6.76242 52.9528L6.55672 53.0439L5.95106 53.3287L5.75679 53.4199L5.04827 53.773L4.854 53.8642L4.00834 54.2971L3.84836 54.3882L2.77415 55.0376ZM22.0756 2.56424C22.1008 2.66826 22.1313 2.77092 22.167 2.87183L22.3384 3.44145C22.3384 3.57816 22.4184 3.71487 22.4641 3.85158C22.5098 3.98829 22.5898 4.22753 22.6469 4.40981L22.7841 4.81993C22.7841 5.00221 22.9098 5.18449 22.9669 5.37816L23.1041 5.74271C23.1726 5.95917 23.2526 6.16423 23.3326 6.38069C23.4126 6.59715 23.3326 6.54018 23.4126 6.63132C23.5269 6.90474 23.6297 7.17816 23.7212 7.44018L23.8469 7.74778C23.904 7.91866 23.9726 8.07816 24.0297 8.23765C24.0868 8.39714 24.1211 8.4541 24.1554 8.56803C24.1897 8.68195 24.2583 8.83005 24.3154 8.95537C24.3725 9.08068 24.3954 9.17183 24.4411 9.27436L24.5782 9.59334L24.6468 9.77562H24.4411H22.8298H22.3727L20.8071 9.70727H20.4985L18.533 9.59334H18.3044L16.5788 9.47942H16.1103L14.3961 9.3541H14.1904L12.5791 9.22879C15.172 6.29053 18.4264 4.00662 22.0756 2.56424ZM34.966 5.025L35.2174 4.79715C35.606 4.40981 36.0059 4.02247 36.3602 3.65791L36.5888 3.43006C36.9202 3.09968 37.2401 2.75791 37.5601 2.41614L37.743 2.23386H38.2801L38.4286 2.38196C38.76 2.74652 39.1029 3.09968 39.4571 3.45285L39.64 3.64651C40.0399 4.04525 40.4399 4.44398 40.8513 4.78575L41.0798 5.0136C41.4074 5.33259 41.7388 5.64018 42.0741 5.93639L42.3712 6.2098C42.7597 6.56297 43.1368 6.91613 43.514 7.24651L43.6282 7.34904L44.6453 8.22626L44.9081 8.4541L45.9023 9.28575L46.8737 10.0718L46.988 10.1744L47.7765 10.8009L38.0744 16.987L28.3037 10.8237L29.0807 10.1971L29.2065 10.0946L30.1778 9.30853L31.1835 8.4541L31.4234 8.24904C31.7663 7.95284 32.1205 7.65664 32.4748 7.33765L32.5662 7.2579L33.709 6.2212L33.9832 5.95917L34.966 5.025ZM51.9248 8.56803L52.0619 8.23765C52.0619 8.07816 52.1762 7.91866 52.2447 7.74778C52.3133 7.57689 52.3247 7.55411 52.359 7.44018L52.6675 6.63132C52.6675 6.54018 52.6675 6.46044 52.759 6.38069L52.9875 5.74271L53.1132 5.37816C53.1818 5.19588 53.2389 5.00221 53.3075 4.80854L53.4446 4.40981L53.616 3.85158L53.7532 3.44145L53.9246 2.87183C53.9498 2.76782 53.9803 2.66515 54.016 2.56424C57.6431 3.97122 60.8909 6.20253 63.501 9.08069L61.8897 9.206H61.6954L59.9813 9.33132H59.5128L57.7872 9.44524H57.5015L55.5359 9.55917H55.2274L53.6618 9.62752H53.2046H51.5819H51.3876L51.4562 9.44524C51.4562 9.34271 51.5476 9.22879 51.5819 9.12626L51.7876 8.95537L51.9248 8.56803ZM63.421 68.6629L62.4611 68.5832L61.5926 68.5148L60.2441 68.4237H59.6613L57.7072 68.2983H57.1929L55.753 68.2186H55.0445H53.9017H53.1475H52.0733H51.0791L52.7133 57.4984L64.3581 54.411V54.5135L64.7695 68.7882H64.4724L63.421 68.6629ZM24.0411 67.9907H22.9784H22.2127H21.0699H20.3614L18.9101 68.0705H18.4073L16.3617 68.3781H15.7675L14.419 68.4692L13.5505 68.5376L12.5906 68.6173L11.5849 68.6971H11.2992L11.7906 54.4908V54.411L21.7556 56.8604L23.4355 57.2705L23.7783 59.4692L25.0468 67.968H24.0411V67.9907ZM12.362 11.325L13.6876 11.4275H14.3161L15.8246 11.5301H16.3046L18.3501 11.6668H18.5215L20.3157 11.7579H20.8871H22.2698H22.8641H24.1783H25.0468L23.7669 20.1313L23.4012 22.4781L20.6128 23.1617L11.7906 25.611L11.7106 23.0136L11.3449 11.2338H11.7792L12.362 11.325ZM51.8905 12.0085H53.1932H53.7989H55.1816H55.753L57.5015 11.7579H57.6843L59.787 11.6098H60.267L61.7869 11.5073H62.404L63.7296 11.4047H64.3238H64.7581L64.3581 23.0136V25.611L52.7018 22.7516L51.022 12.0313H51.8905V12.0085ZM61.9354 31.1819L58.6442 37.425L55.8102 30.6693L53.5246 25.2807L63.6953 27.7756L61.9354 31.1819ZM26.8066 65.0287L25.7324 58.068L35.5717 61.93L27.138 67.2502L26.8066 65.0287ZM12.7048 51.5173L17.4245 42.5743L22.5098 54.7186L12.3391 52.2237L12.7048 51.5173ZM12.3391 27.7756L22.5098 25.2807L20.3385 30.487L17.4245 37.4477L13.9962 30.9427L12.3391 27.7756ZM27.1952 12.749L35.6288 18.0693L27.4123 21.2933L25.7896 21.9313L26.5667 16.9073L27.1952 12.749ZM25.1839 55.4477L18.7272 39.9996L25.1839 24.5516L38.0744 19.5047L47.4794 23.1959L50.9077 24.5516L57.3643 39.9996L54.9531 45.7756L50.9077 55.4477L47.9022 56.587L38.0744 60.4945L36.8287 60.0047L25.1839 55.4477ZM49.0564 58.5692L50.3249 58.068L48.9193 67.2502L40.497 61.93L49.0564 58.5692ZM48.9193 12.749L50.3249 21.9313L40.497 18.0693L47.1023 13.8997L48.9193 12.749ZM53.5589 54.7186L57.5015 45.1832L58.6442 42.5743L62.9411 50.7313L63.7296 52.2237L53.5589 54.7186ZM2.93414 39.9996L10.2936 29.5186L10.5679 29.1313L16.2817 39.9996L10.5679 50.868L4.62544 42.4034L2.93414 39.9996ZM65.5009 50.868L64.6438 49.2389L59.787 39.9996L65.5009 29.1313L70.5862 36.3769L73.1346 39.9996L65.5009 50.868ZM73.3974 24.9161V36.5363L70.9862 33.1186L67.2493 27.8098L67.5236 27.7072H67.6836L68.0493 27.5705L68.2435 27.4908L68.6892 27.3199L68.8835 27.2288L69.5806 26.9326C70.1062 26.6933 70.7233 26.4199 71.3404 26.0895L71.5233 25.987L72.3575 25.5541L72.6432 25.406L73.3974 24.9161ZM72.826 22.6376L71.6833 23.2414L71.569 23.3098L70.6891 23.7655L70.4262 23.9022L69.7748 24.2326L69.5234 24.3465L68.952 24.6199L68.7578 24.711L68.1407 24.9845L67.5464 25.2237H67.455L67.0436 25.3832H66.9065L66.6094 25.4857L66.9636 12.8288C69.259 15.8535 71.2747 19.0793 72.986 22.4667L72.826 22.6376ZM51.7876 2.35918L51.5819 3.00854L51.4791 3.31614C51.3991 3.58956 51.3077 3.85158 51.2162 4.1136C51.2211 4.15904 51.2211 4.20488 51.2162 4.25031L50.9077 5.1617L50.7591 5.42373C50.6906 5.62879 50.6106 5.83385 50.542 6.02752L50.4163 6.3579C50.4163 6.52879 50.2906 6.68828 50.2334 6.85917C50.1763 7.03005 50.142 7.07563 50.1077 7.17816L49.9363 7.61107C49.9363 7.72499 49.8563 7.82752 49.8106 7.93006C49.7649 8.03259 49.7078 8.19208 49.6506 8.3174L49.5478 8.59081L49.3192 9.12626H49.2507L48.7021 8.68195L48.4507 8.47689L47.9822 8.10094L47.6394 7.81613L47.1251 7.38322L46.7823 7.1098L45.9938 6.43765L45.8566 6.31233L44.931 5.42373L44.6224 5.13892L43.7882 4.53512L43.434 4.20474L42.7026 3.5212C42.5866 3.42075 42.476 3.31427 42.3712 3.20221C42.0626 2.9174 41.7541 2.60981 41.4455 2.30221L41.3313 2.19968H51.7876C51.7826 2.25272 51.7826 2.30613 51.7876 2.35918ZM34.646 2.24525L33.6518 3.21361L33.3433 3.50981C33.0919 3.74905 32.8405 3.98829 32.5776 4.21613L32.2577 4.52373L31.4691 5.21867L31.2177 5.42373C30.5321 6.02752 29.8693 6.56297 29.2636 7.1098L29.035 7.30347L28.3837 7.83891L28.1437 8.03259L27.5609 8.51107L27.3895 8.63638L26.8066 9.11487L26.5552 8.52246C26.5552 8.52246 26.5552 8.41993 26.4981 8.36297L26.2924 7.87309C26.2593 7.77625 26.2211 7.68119 26.1781 7.58828L26.0067 7.13259C25.9579 7.02517 25.916 6.91483 25.881 6.80221C25.8124 6.64271 25.7553 6.48322 25.6981 6.32373C25.641 6.16424 25.6067 6.09588 25.5724 5.98196C25.5382 5.86803 25.4239 5.59462 25.3553 5.38955L25.2525 5.11613C25.1496 4.81993 25.0468 4.51234 24.9325 4.20474V4.05664C24.8411 3.79462 24.7611 3.53259 24.6697 3.27057C24.6697 3.17943 24.6697 3.07689 24.5782 2.97436L24.3725 2.31361C24.3725 2.25664 24.3725 2.19968 24.3725 2.15411H34.646V2.24525ZM9.3908 19.0946L9.57364 25.6338H9.47079L9.24224 25.5541L9.0594 25.4857L8.69371 25.349H8.57943L7.98519 25.1098H7.92805L7.31096 24.7908L7.12811 24.711L6.52244 24.4262L6.30532 24.3123L5.60823 23.9705L5.3911 23.8566L4.43117 23.3554L3.2884 22.7402H3.23126C4.93752 19.3524 6.94948 16.1264 9.24224 13.1022L9.3908 19.0946ZM3.67694 25.4288L4.36261 25.7819L4.69401 25.9528L5.52823 26.3743H5.60823C6.19104 26.6591 6.751 26.887 7.1624 27.0921H7.2881L7.80235 27.3085H7.95091L8.36231 27.468H8.49944L8.79656 27.5705L5.0597 32.8794L2.64845 36.2971V24.9161L3.2884 25.2579L3.67694 25.4288ZM24.2468 77.6401C24.3154 77.4123 24.384 77.1844 24.464 76.9566L24.5439 76.6717C24.6468 76.3755 24.7382 76.0907 24.8411 75.8059C24.8411 75.7148 24.8982 75.635 24.9211 75.5553C24.9439 75.4755 25.081 75.0768 25.1725 74.849L25.3096 74.4616L25.481 73.9717C25.5374 73.8454 25.587 73.7161 25.6296 73.5844L25.801 73.1401L25.9381 72.7869L26.1095 72.354C26.1095 72.2515 26.1895 72.149 26.2238 72.0578C26.2581 71.9667 26.3838 71.6705 26.4524 71.4882V71.4085L26.7038 70.7933L26.7952 70.873C26.9552 70.9869 27.1152 71.1237 27.298 71.2718L27.6066 71.5224L28.018 71.8528L28.4065 72.1717L28.8408 72.5363L29.2636 72.8781L29.8464 73.3793L30.3492 73.8123L31.1035 74.473L31.5149 74.849L32.132 75.3958L32.5662 75.7945L33.2176 76.3983L33.6061 76.7743L34.4518 77.5945L34.6232 77.7654H24.2354L24.2468 77.6401ZM41.5255 77.6401L42.3712 76.8085L42.7597 76.4439L43.434 75.8173L43.8454 75.4414L44.4853 74.8604L44.8738 74.5186L45.6966 73.7895L46.0852 73.4591L46.7251 72.9123L47.1251 72.5819L47.5936 72.1945L47.9593 71.8869L48.3593 71.4996L48.6678 71.2604C48.8393 71.1123 49.0107 70.9756 49.1707 70.8616L49.2621 70.7819L49.5135 71.3971C49.5135 71.3971 49.5135 71.3971 49.5135 71.4654C49.5135 71.5338 49.6735 71.8528 49.7535 72.0578C49.8335 72.2629 49.822 72.2401 49.8678 72.3313L50.0392 72.7869L50.1763 73.1287L50.3477 73.5958L50.4849 73.949C50.4849 74.1312 50.6106 74.3021 50.6791 74.4844C50.7477 74.6667 50.7591 74.7123 50.8048 74.8262C50.8505 74.9401 50.9877 75.373 51.0905 75.6578C51.0905 75.6578 51.0905 75.6578 51.0905 75.7262L51.3991 76.6604L51.4905 76.9338L51.6962 77.6287C51.7009 77.6703 51.7009 77.7124 51.6962 77.754H41.377L41.5255 77.6401ZM66.4951 54.3313H66.5751L66.7922 54.3996L66.9865 54.468L67.295 54.5819L67.4664 54.6503L68.0035 54.8781L68.2207 54.9692L68.6549 55.1629L68.9178 55.2768L69.3977 55.5047L69.6834 55.6528L70.2777 55.9376L70.5405 56.0743L71.4776 56.5642L72.6203 57.168C71.0306 60.5549 69.0887 63.7662 66.8265 66.749L66.4951 54.3313Z" fill="#0F172A"/>
</svg>
