<svg width="58" height="80" viewBox="0 0 58 80" fill="none" xmlns="http://www.w3.org/2000/svg">
<path d="M41.2883 7.62939e-06H16.6914C16.5623 0.000450134 16.4347 0.0282745 16.3169 0.0816803H16.2359C16.1293 0.130722 16.0331 0.20005 15.9525 0.285866L0.26317 16.9781C0.094627 17.1531 0.000246478 17.3874 0 17.6314L0 62.7871C0.00138567 63.0359 0.09951 63.2742 0.273287 63.4507L15.9829 79.7346C16.0665 79.814 16.1622 79.8794 16.2663 79.9285H16.3372C16.4532 79.9748 16.5768 79.999 16.7016 80H41.2883C41.4131 79.999 41.5366 79.9748 41.6527 79.9285H41.7336C41.8348 79.8796 41.9271 79.814 42.0069 79.7346L57.7266 63.4609C57.8145 63.3749 57.8841 63.2717 57.9311 63.1576C57.9781 63.0435 58.0015 62.9209 57.9999 62.7973L57.9999 17.6314C57.9997 17.3874 57.9053 17.1531 57.7368 16.9781L42.0373 0.31649C41.9567 0.230675 41.8605 0.161354 41.7539 0.112305H41.6729C41.5545 0.0465622 41.4231 0.0082016 41.2883 7.62939e-06ZM40.0837 78.0909H17.896L18.726 73.6396H39.2638L39.689 75.9367L40.0837 78.0909ZM43.3633 68.2287L41.5717 69.9234L41.7033 69.1169L42.3612 65.3088L47.979 63.8897L43.3633 68.2287ZM11.934 47.9428L13.4625 55.0893L15.1832 63.1649L7.80417 61.2864L9.44396 55.9673L11.934 47.9428ZM46.0254 47.9428L50.1654 61.317L42.7863 63.1955L46.0254 47.9428ZM17.7846 66.0949L24.1818 68.6677L18.6652 71.2302L18.5337 70.4747L17.7846 66.0949ZM39.3448 71.1996L33.8181 68.6371L40.2153 66.0643L39.4663 70.4441L39.3448 71.1996ZM15.6286 65.2782L16.408 69.8928L10.0007 63.8591L15.6286 65.2782ZM22.3092 71.659L26.8642 69.5457H31.1661L35.7211 71.659H22.3092ZM44.8715 43.8591L42.4624 55.1914L40.6303 63.8285L31.1661 67.6263H26.8439L17.3696 63.8285L15.8007 56.4472L13.1284 43.8897L13.1284 36.1409L15.831 23.4405L17.3696 16.2124L26.8439 12.4043H31.1661L40.6303 16.2124L42.4422 24.7269L44.8715 36.1409V43.8591ZM46.5214 17.754L50.1856 18.683L46.0457 32.0572L42.8066 16.8147L46.5214 17.754ZM18.6652 8.76978L24.1818 11.3936L17.7846 13.9561L18.5337 9.58652L18.6652 8.76978ZM40.2153 13.8744L34.4659 11.5671L33.8181 11.3119L39.3448 8.73915L39.4663 9.50485L40.2153 13.8744ZM16.408 10.0562L15.6286 14.6605L10.0007 16.0898L16.408 10.0562ZM7.82442 18.6524L11.6101 17.6927L15.2035 16.7841L11.934 32.0878L9.53507 24.3287L7.82442 18.6524ZM42.3815 14.6605L41.5919 10.0562L47.9993 16.0898L42.3815 14.6605ZM35.6907 8.27974L31.1357 10.4033H26.8642L22.3092 8.27974H35.6907ZM11.1344 36.1919L11.1344 43.8489L7.56123 55.3956L7.56123 24.6656L11.1344 36.1919ZM46.8656 43.8489V36.1919L50.3982 24.6656V55.3956L46.8656 43.8489ZM39.2638 6.39101H18.7159L17.8858 1.94998H40.0939L39.689 4.13477L39.2638 6.39101ZM16.074 3.073L16.5295 5.55386L16.8028 7.024L6.16439 17.0495H2.90505L16.074 3.073ZM5.55705 18.9995L5.55705 61.0413H1.98393L1.98393 18.9995H5.55705ZM2.52041 62.9811H6.12389L16.7724 73.0066L16.6813 73.5171L16.0335 76.9883L2.52041 62.9811ZM41.926 76.9883L41.4401 74.3645L41.187 73.0066L51.8355 62.9811H55.4593L41.926 76.9883ZM52.4226 61.0413L52.4226 18.9995H55.9957L55.9957 61.0413H52.4226ZM55.0848 17.0495H51.8254L49.0924 14.4564L41.187 7.01378L41.2781 6.53394L41.926 3.06279L55.0848 17.0495Z" fill="#0F172A"/>
</svg>
