<svg width="70" height="80" viewBox="0 0 70 80" fill="none" xmlns="http://www.w3.org/2000/svg">
<path d="M69.9582 44.6932V36.3951C69.9582 30.0726 69.9582 23.7535 69.9582 17.4377C69.9558 16.9018 69.772 16.3827 69.4373 15.9657C66.9016 13.1009 64.3561 10.2393 61.8008 7.38105L55.9039 0.752365C55.7036 0.506701 55.4494 0.311063 55.1612 0.180795C54.873 0.0505264 54.5587 -0.0108351 54.2429 0.00156674C41.427 0.00156674 28.611 0.00156674 15.7951 0.00156674C15.4811 -0.00482753 15.1696 0.0582173 14.8826 0.186251C14.5956 0.314286 14.3401 0.504179 14.1341 0.742476C9.6656 5.77407 5.17742 10.7925 0.669561 15.7977C0.44758 16.0336 0.27423 16.3113 0.159527 16.6147C0.0448236 16.9182 -0.00898747 17.2416 0.00122288 17.5661C0.00122288 32.6214 0.00122288 47.6799 0.00122288 62.7418C-0.00507569 63.066 0.0524656 63.3883 0.170535 63.69C0.288603 63.9918 0.464882 64.2671 0.689207 64.5002C2.57622 66.5615 4.45995 68.6328 6.34041 70.714C8.97436 73.5986 11.5985 76.4931 14.2029 79.3678C14.5794 79.7608 15.0952 79.9881 15.6378 80H34.7831H54.3216C54.8857 79.9899 55.4229 79.7554 55.8154 79.348C58.3445 76.582 60.8638 73.8093 63.3733 71.0301L69.339 64.4508C69.562 64.2161 69.7353 63.9384 69.8485 63.6345C69.9616 63.3305 70.0123 63.0067 69.9975 62.6825C69.9713 56.6696 69.9582 50.6732 69.9582 44.6932ZM26.7633 22.2782C26.8177 22.1523 26.9113 22.0476 27.0301 21.9798C27.1489 21.9121 27.2864 21.8851 27.4218 21.9028C32.4801 21.9028 37.5383 21.9028 42.5965 21.9028C42.7186 21.8904 42.8416 21.916 42.9488 21.976C43.0561 22.0361 43.1423 22.1278 43.1961 22.2387C43.8349 23.2266 44.4835 24.3133 45.1617 25.3407C45.9774 26.6546 46.803 27.9586 47.5991 29.2922C47.7689 29.5933 47.857 29.934 47.8546 30.2801C47.8546 32.8091 47.8546 35.338 47.8546 37.867V42.5199C47.8546 45.0488 47.8546 47.5778 47.8546 50.1167C47.8469 50.444 47.7556 50.7638 47.5892 51.0453C46.8325 52.2505 46.0561 53.4557 45.2895 54.651C44.6211 55.6389 43.9528 56.7157 43.3238 57.7629C43.2598 57.8989 43.1556 58.0116 43.0254 58.0859C42.8953 58.1601 42.7455 58.1922 42.5965 58.1778H35.0485H27.5103C27.3735 58.1933 27.2352 58.1679 27.1128 58.1046C26.9904 58.0413 26.8893 57.943 26.8223 57.8222C26.1049 56.696 25.3776 55.5796 24.6503 54.4535C23.923 53.3273 23.1564 52.1517 22.4193 50.986C22.2705 50.7274 22.1894 50.4351 22.1834 50.1364C22.1834 43.4979 22.1834 36.8561 22.1834 30.2109C22.1933 29.8812 22.2918 29.5603 22.4684 29.2823C23.2056 28.0771 23.9623 26.8818 24.7093 25.6864C25.4562 24.4911 26.0655 23.4044 26.7633 22.2782ZM25.24 15.1853H44.7391C44.5327 15.7088 44.3361 16.1732 44.1297 16.7066L43.8742 17.3487C43.599 18.0402 43.3238 18.7515 42.9995 19.4233C42.9196 19.5267 42.8097 19.6027 42.685 19.6406C38.1837 19.6406 33.2892 19.6406 27.3039 19.6406H27.1368C26.5766 18.3267 26.0361 16.9931 25.4759 15.6298L25.24 15.1853ZM2.79242 63.5913L14.0653 56.2811L14.3209 56.5576L16.5027 59.1755C18.3504 61.4016 20.2047 63.6144 22.0655 65.8141C22.3407 66.1302 22.3407 66.2093 22.1343 66.5254C20.4242 69.1597 18.7239 71.7743 17.0335 74.3691L15.2546 77.1154L15.1661 77.2438L2.79242 63.5913ZM25.3972 64.8953L25.6528 64.2335C26.0361 63.2456 26.4095 62.3071 26.8125 61.3686C26.9402 61.0723 27.0287 60.8352 27.0975 60.6574C27.1663 60.4795 27.1761 60.4302 27.2056 60.361H27.5693H28.2769H42.4C42.8128 60.361 42.8717 60.361 42.9995 60.7364C43.4319 61.8823 43.9037 63.0184 44.3853 64.1841L44.6801 64.8953H25.3972ZM25.0336 59.1262C25.1185 59.2525 25.1693 59.3989 25.181 59.5509C24.6994 60.8154 24.1982 62.0602 23.638 63.3839L23.4119 63.947L16.0212 55.056L20.6994 52.3493L20.8763 52.616L21.8591 54.1472L22.4782 55.1351C23.3136 56.4292 24.1687 57.753 25.0041 59.0866L25.0336 59.1262ZM19.2546 75.0013C20.8533 72.5316 22.4488 70.0554 24.041 67.5725C24.1117 67.4254 24.2266 67.3044 24.3694 67.2264C24.5122 67.1484 24.6758 67.1174 24.837 67.1379H34.4883H45.2305C45.442 67.135 45.6488 67.2008 45.8202 67.3256C47.8349 70.3781 49.8104 73.4405 51.7957 76.5128L52.6016 77.7674H17.4462L19.2546 75.0013ZM44.8079 59.5213C44.7975 59.4724 44.7975 59.422 44.8079 59.3731C46.0757 57.3974 47.3632 55.4216 48.6704 53.3569L49.2993 52.369L53.9874 55.0857L46.5868 63.9766L46.3902 63.4926C45.8497 62.0602 45.3189 60.7759 44.8079 59.4818V59.5213ZM54.5574 52.8729L53.211 52.0924C52.274 51.5392 51.3305 50.9959 50.3804 50.4624C50.2675 50.4226 50.1716 50.3449 50.1089 50.2423C50.0463 50.1398 50.0207 50.0187 50.0365 49.8993C50.0365 43.4189 50.0365 36.9384 50.0365 30.4579C50.0157 30.3381 50.0378 30.2147 50.099 30.1098C50.1602 30.0049 50.2564 29.9252 50.3706 29.8849C51.5303 29.2428 52.6802 28.571 53.8793 27.9092L54.5574 27.514V52.8729ZM49.3288 27.9783L46.5671 23.5822C46.0364 22.7425 45.5155 21.9127 45.0044 21.0632C44.9417 20.9503 44.9016 20.8261 44.8865 20.6976C45.3779 19.4332 45.8693 18.1686 46.4197 16.9042L46.6752 16.2917L54.0169 25.2715L49.3288 27.9783ZM24.1392 22.4659C23.2996 23.6206 22.5189 24.8175 21.8001 26.0519C21.4856 26.5755 21.1613 27.109 20.8173 27.6326C20.7576 27.7383 20.6919 27.8405 20.6207 27.9388L15.9425 25.232L23.294 16.2522L23.4316 16.6078C23.6999 17.4121 24.0284 18.1947 24.4144 18.9491C24.77 19.4751 24.9365 20.1073 24.8865 20.7413C24.8365 21.3753 24.5729 21.9732 24.1392 22.4363V22.4659ZM17.4069 28.6205C18.1735 29.0551 18.9401 29.4898 19.6871 29.964C19.7877 30.0469 19.857 30.1619 19.8836 30.29C19.8836 36.8758 19.8836 43.4617 19.8836 50.0476C19.8836 50.1463 19.8345 50.2846 19.8836 50.2945C18.5961 51.075 17.2988 51.8257 15.9524 52.616L15.4708 52.9025V27.435L17.4069 28.6205ZM54.8326 77.2043L47.6581 66.1006L55.9235 56.2218L67.2161 63.5321L54.8326 77.2043ZM67.6977 61.2106L63.1669 58.2469C61.2013 56.9528 59.1767 55.6587 57.1717 54.3843C57.044 54.3264 56.938 54.2292 56.869 54.1066C56.8001 53.984 56.7719 53.8425 56.7884 53.7027C56.7884 49.6721 56.7884 45.6449 56.7884 41.6209C56.7884 36.5827 56.7884 31.5479 56.7884 26.5163C56.8086 26.3071 56.8947 26.1098 57.0341 25.9532C60.0317 23.9774 63.049 22.0017 66.0662 20.0259L67.6682 19.038L67.6977 61.2106ZM54.9211 2.92571L67.2161 16.756L55.9235 24.096L47.7465 14.0788L54.9211 2.92571ZM52.749 2.24407L50.9013 5.08917C49.3157 7.53911 47.7367 9.99235 46.1642 12.4489C46.0863 12.5935 45.9693 12.7129 45.8266 12.7933C45.684 12.8737 45.5216 12.9119 45.3582 12.9033C41.5744 12.9033 37.7807 12.9033 33.9871 12.9033H24.6405C24.2178 12.9033 24.1196 12.9033 23.982 12.6662C22.3112 10.0483 20.6207 7.44031 18.9401 4.83231L17.2693 2.25396L52.749 2.24407ZM15.0776 2.92571L15.1563 3.02447L17.8001 7.10442L22.0753 13.7034C22.2719 14.0097 22.2719 14.0097 22.1441 14.1678C19.9098 16.8548 17.6919 19.5517 15.4904 22.2585L14.0752 23.9971L2.78261 16.6869L15.0776 2.92571ZM2.30101 18.9886L5.51484 21.0632C7.96533 22.6504 10.4191 24.2342 12.8761 25.8149C12.9918 25.8684 13.0875 25.9576 13.1493 26.0695C13.2112 26.1814 13.236 26.3102 13.2201 26.4372C13.2201 30.3887 13.2201 34.3403 13.2201 38.2918C13.2201 43.4551 13.2201 48.625 13.2201 53.8015C13.2148 53.9873 13.1453 54.1654 13.0236 54.3053C9.90802 56.3601 6.78266 58.3754 3.6573 60.4005L2.3305 61.2501L2.30101 18.9886Z" fill="#0F172A"/>
</svg>
