<svg width="42" height="80" viewBox="0 0 42 80" fill="none" xmlns="http://www.w3.org/2000/svg">
<path d="M20.6642 0.188061L20.4451 0L20.2459 0.217793C19.2899 1.2673 18.3172 2.31018 17.328 3.34648C15.1869 5.60391 12.9761 7.94057 11.0441 10.4356C2.97753 20.8614 -0.408432 31.5643 0.706942 43.1089C1.56339 52.099 5.08877 60.5841 11.4723 69.0396C13.3943 71.594 15.5255 74.0594 17.577 76.4455C18.5231 77.5445 19.4791 78.6535 20.4152 79.7624L20.6144 80L20.8434 79.7921C34.696 66.9208 41.8364 52.4653 41.4878 38.0594C41.1492 24.4752 33.9491 11.396 20.6642 0.188061ZM34.218 18.0792C37.6837 23.8422 39.7089 30.3476 40.1235 37.0495L38.6496 35.3267C37.3402 33.7367 35.9474 32.2164 34.4769 30.7722C33.5407 30.0265 32.8713 29.0005 32.5681 27.8465C32.2649 26.6925 32.3441 25.472 32.7939 24.3663C33.2471 22.8718 33.6063 21.3507 33.8694 19.8118C33.9789 19.2574 34.0885 18.6831 34.218 18.0792ZM31.3897 24.693L31.0113 26.4653C27.9141 24.1485 27.1772 20.9208 26.3904 17.5544C26.1016 16.3069 25.8128 15.0198 25.3946 13.7524L26.9282 14.4158C28.9199 15.2574 30.5432 15.9801 32.2063 16.7722C32.379 16.8807 32.5256 17.0257 32.6358 17.1968C32.7459 17.3679 32.8169 17.5609 32.8437 17.7623C32.3856 19.99 31.9175 22.2772 31.3897 24.693ZM20.6144 61.505L20.3853 61.2574C17.8558 58.4158 15.4657 55.7425 15.0574 51.7425C14.667 48.7895 14.0002 45.8793 13.0657 43.0495C12.0749 40.0013 12.138 36.7113 13.2449 33.703C13.5818 32.7106 13.8578 31.6988 14.0715 30.6733C14.1512 30.3069 14.2308 29.9505 14.3205 29.5743C16.0035 22.7327 16.0234 22.6436 20.8434 17.6931C26.8186 21.6535 28.0436 27.9406 29.2486 34.0297C29.3572 35.2092 29.2077 36.3981 28.8104 37.5148C28.6809 37.9802 28.5614 38.4455 28.4618 38.901C28.1631 40.396 27.8046 41.8713 27.466 43.3663C26.7689 46.3861 26.0518 49.5049 25.6535 52.6237C25.1854 56.2277 23.2733 58.6139 20.6144 61.505ZM24.0501 59.7129L23.0543 64.5247L21.4808 62.6832L24.0501 59.7129ZM19.6882 62.6832L18.0649 64.5941L16.8101 59.2178L19.6882 62.6832ZM10.9246 42.6832L11.293 41.297L14.1711 53.8317L13.1752 52.6831C12.02 51.297 10.825 49.8613 9.69965 48.4059C9.61002 48.2871 9.56022 47.9109 9.69965 47.2376C10.1279 45.693 10.5262 44.1782 10.9246 42.6633V42.6832ZM13.703 26.2277L11.4723 35.1386C9.83907 30.6436 10.2673 28.9307 13.703 26.2079V26.2277ZM16.611 20.4158L18.1446 14.2178L20.0667 16.3267L16.611 20.4158ZM21.899 16.3564L23.9804 13.901L25.8825 20.8317L21.899 16.3564ZM28.8004 26.5446C30.6527 28.0297 30.842 28.7228 29.9556 30.9901L28.8004 26.5446ZM30.1449 37.4356L30.6328 39.4158C31.2503 41.8416 31.8976 44.3663 32.4852 46.8218C32.516 46.9936 32.5115 47.1699 32.4722 47.34C32.4328 47.5102 32.3593 47.6707 32.2561 47.8119C30.5077 49.9957 28.6462 52.0877 26.6792 54.0792L30.1449 37.4356ZM32.5748 15.2673L25.4643 12.198L27.9838 9.22767L32.5748 15.2673ZM27.0079 8.19799L24.6477 10.9802L22.4766 3.97025L27.0079 8.19799ZM20.5746 5.12871C20.6841 4.67326 20.8036 4.20787 20.9231 3.72272C21.0625 4.17817 21.182 4.60391 21.3015 5.01975C21.659 6.37107 22.115 7.6947 22.6659 8.98015C23.7912 11.4653 23.2534 13.396 20.953 15.0594C20.0007 14.5102 19.297 13.6182 18.9875 12.5679C18.678 11.5175 18.7862 10.3891 19.2899 9.41579C19.8157 8.01071 20.2449 6.57178 20.5746 5.10888V5.12871ZM19.3596 4.00989L17.4674 11.2871L14.679 8.099L19.3596 4.00989ZM13.6732 9.11877L16.7106 12.5148L8.14609 17.2772L8.0465 17.198L13.6732 9.11877ZM16.5413 14.2475C15.7147 20.9009 14.0615 24.297 9.74943 28.1782L7.63819 19.1485L16.5413 14.2475ZM6.49294 20.3267L6.89128 22.0891C7.46889 24.604 7.95687 26.7822 8.42493 29.0198C8.50393 29.4164 8.42541 29.828 8.20584 30.1683C6.60249 32.1485 4.92943 34.0594 3.31612 35.9406L2.32025 37.1188C2.37653 31.2747 3.80541 25.5245 6.49294 20.3267ZM8.82327 31.6435C11.3727 36.6633 10.1378 41.4752 8.2855 46.7326L2.20075 39.396L8.82327 31.6435ZM3.21652 42.802C4.6207 44.4752 6.06472 46.2079 7.45894 47.9307C7.70349 48.2578 7.81708 48.6636 7.77762 49.0693C7.27969 51.0495 6.72201 53.0297 6.13444 55.1089L5.71617 56.594C3.53995 51.9398 2.39541 46.875 2.36009 41.7426L3.21652 42.802ZM6.86141 57.7623C7.37926 55.7227 7.94691 53.7326 8.54443 51.6138L8.98262 50.0495C13.962 54.6832 16.2724 59.1683 16.352 64.4851L14.6591 63.4257C12.1993 61.8911 9.67973 60.3069 7.20997 58.703C7.09001 58.5791 6.9985 58.4309 6.94177 58.2685C6.88503 58.1061 6.86442 57.9334 6.88135 57.7623H6.86141ZM7.52866 60.7326L7.62825 60.6337L16.5911 66.2772L13.5537 69.8812L7.52866 60.7326ZM18.4832 75.5841C17.3479 74.3069 16.1728 72.9901 15.0873 71.6237C14.9912 71.4191 14.9414 71.1961 14.9414 70.9703C14.9414 70.7445 14.9912 70.5214 15.0873 70.3168C15.6011 69.5939 16.1669 68.9089 16.7803 68.2673L17.3081 67.6732L19.5388 76.7327L18.4832 75.5841ZM20.7339 75.7723C20.5447 75.0198 20.3355 74.2772 20.1364 73.5346C19.4755 71.2745 18.9534 68.9765 18.5728 66.6534C18.4932 66.1188 19.0907 65.3762 19.6782 64.6732C19.9073 64.3861 20.1364 64.099 20.3455 63.8218C22.3372 65.2772 22.8551 66.7921 22.2177 68.8614C21.7426 70.525 21.3636 72.2142 21.0824 73.9208C21.0326 74.5148 20.9131 75.1386 20.7936 75.7524L20.7339 75.7723ZM21.9787 77.0198H21.9289L23.8012 67.7327L27.0079 71.5941L21.9787 77.0198ZM27.9539 70.5544L24.4286 66.3069L34.2678 60.6138L34.3873 60.7227L27.9539 70.5544ZM34.4072 58.8812C31.8279 60.4356 29.1689 61.9604 26.6095 63.4455L24.6178 64.5742C24.2593 58.7426 27.6054 54.9703 31.2204 50.9802C31.788 50.3465 32.3657 49.7129 32.9233 49.0594L33.3615 50.8118C33.969 53.2673 34.5466 55.5742 35.0445 57.901C34.9881 58.2776 34.7929 58.6199 34.4968 58.8613L34.4072 58.8812ZM36.2595 56.5148L35.8512 54.8812C35.2537 52.4653 34.7258 50.3762 34.2478 48.2376C34.2172 47.8356 34.3459 47.4376 34.6064 47.1287C35.9707 45.4455 37.3948 43.7624 38.7691 42.1782L39.6355 41.1881C39.6723 46.4652 38.5579 51.6875 36.369 56.4951L36.2595 56.5148ZM33.6204 46.0792C33.317 44.3652 32.9045 42.672 32.3856 41.0099C31.32 37.297 30.3042 33.7723 31.7582 29.8119L39.7251 38.8614L33.6204 46.0792Z" fill="#0F172A"/>
</svg>
