<svg width="78" height="80" viewBox="0 0 78 80" fill="none" xmlns="http://www.w3.org/2000/svg">
<path d="M77.3725 11.6695C77.3775 11.6131 77.3775 11.5563 77.3725 11.4998C77.348 11.4208 77.3122 11.3458 77.2662 11.277C77.2704 11.2418 77.2704 11.2062 77.2662 11.1709C77.2662 11.1709 77.2662 11.1709 77.2662 11.1073L66.7456 0.254598L66.6393 0.180345C66.6393 0.180345 66.5756 0.106072 66.5437 0.0848551H66.4693C66.407 0.0458589 66.3388 0.0172116 66.2674 0H66.0549H11.6453H11.4327L11.2415 0.0742523H11.1565C11.1565 0.0742523 11.0927 0.1379 11.0608 0.169726L10.9545 0.243995L0.6571 11.033V11.0967H0.603962C0.605795 11.1355 0.605795 11.1745 0.603962 11.2134C0.561498 11.275 0.529212 11.3431 0.508324 11.4149C0.497225 11.4817 0.497225 11.5498 0.508324 11.6165C0.50222 11.6587 0.50222 11.7016 0.508324 11.7438V68.7654C0.506996 68.9178 0.53858 69.0687 0.60093 69.2079C0.663279 69.347 0.754925 69.4711 0.869634 69.5717L10.8695 78.6103C10.797 78.8331 10.8004 79.0736 10.8792 79.2943C10.958 79.515 11.1078 79.7035 11.3052 79.8303C11.4743 79.9349 11.6695 79.99 11.8685 79.9894C12.0348 79.9884 12.1986 79.9484 12.3467 79.8727C12.4874 79.949 12.6436 79.9925 12.8036 80H65.2047C65.3647 79.9925 65.5209 79.949 65.6617 79.8727C65.8065 79.9468 65.9665 79.9867 66.1293 79.9894C66.3318 79.992 66.5309 79.9368 66.7031 79.8303C66.9005 79.7035 67.0503 79.515 67.1291 79.2943C67.2079 79.0736 67.2113 78.8331 67.1388 78.6103L77.1387 69.5717C77.2508 69.469 77.3407 69.3445 77.4028 69.2058C77.4649 69.0672 77.498 68.9173 77.5 68.7654V11.8181C77.4642 11.7632 77.4214 11.7132 77.3725 11.6695ZM2.54868 13.9398L7.21388 17.4088V62.5805L2.54868 66.0496V13.9398ZM11.6028 2.73702L15.014 8.24293L8.15967 15.4462L3.09066 11.6695L11.6028 2.73702ZM74.7158 11.6695L69.6468 15.4462L62.803 8.24293L66.2143 2.73702L74.7158 11.6695ZM68.4565 39.9947V60.9892L64.514 58.0612V21.9281L68.4565 19.0001V39.9947ZM38.9032 70.537H18.2871L20.4124 67.1423H57.4471L59.5725 70.537H38.9032ZM9.29675 39.9947V19.0001L13.2499 21.9281V58.0612L9.29675 60.9892V39.9947ZM38.8501 9.46293H59.4768L57.3515 12.8471H20.3381L18.2127 9.46293H38.8501ZM62.3248 39.9947V56.4699L59.9231 54.6877V25.3123L62.3248 23.5194V39.9947ZM38.8501 64.9993H21.677L23.9193 61.3818H53.7915L56.0337 64.9993H38.8501ZM15.3859 39.9947V23.5194L17.7876 25.3123V54.6877L15.3859 56.4699V39.9947ZM38.8501 15.0007H56.0337L53.7915 18.6182H23.9193L21.677 15.0007H38.8501ZM53.8977 59.2282H23.8024L19.9236 54.815V25.1744L23.8024 20.7612H53.8977L57.7872 25.1744V54.815L53.8977 59.2282ZM58.9986 23.3179L55.7149 19.5836L58.0316 15.8387L61.8998 21.1431L58.9986 23.3179ZM21.9959 19.5836L18.7122 23.3179L15.811 21.1961L19.6792 15.8918L21.9959 19.5836ZM18.7122 56.714L21.9959 60.4588L19.6792 64.1931L15.811 58.8887L18.7122 56.714ZM55.7149 60.4588L58.9986 56.714L61.8998 58.8357L58.0316 64.14L55.7149 60.4588ZM63.6213 19.9231L59.3068 13.8761L61.6341 10.1207L67.9146 16.7299L63.6213 19.9231ZM18.4571 13.9186L14.0895 19.9231L9.83872 16.7405L16.1298 10.1313L18.4571 13.9186ZM14.0895 60.1511L18.4571 66.1557L16.1298 69.9111L9.83872 63.3019L14.0895 60.1511ZM59.2537 66.1557L63.6213 60.1511L67.8721 63.3338L61.5916 69.943L59.2537 66.1557ZM60.8052 7.3518H16.895L13.6113 2.07929H64.0145L60.8052 7.3518ZM8.10655 64.6386L14.9609 71.8313L11.7728 76.8811L2.66558 68.6487L8.10655 64.6386ZM16.895 72.7755H60.8052L64.057 78.0056H13.6113L16.895 72.7755ZM62.7499 71.8313L69.5936 64.6386L74.9921 68.6487L65.8848 76.8068L62.7499 71.8313ZM70.5394 62.6654V17.3982L75.2152 13.9292V66.039L70.5394 62.6654Z" fill="#0F172A"/>
</svg>
