<svg width="101" height="100" viewBox="0 0 101 100" fill="none" xmlns="http://www.w3.org/2000/svg">
<path d="M30.0825 98C35.9929 98.0086 41.7034 95.8601 46.1423 91.9577C50.5812 88.0552 53.4436 82.6671 54.1922 76.8043C54.9409 70.9414 53.5244 65.0069 50.2085 60.1142C46.8927 55.2215 41.9054 51.707 36.1825 50.23L45.9125 39.48C46.6525 38.67 47.1425 38.37 45.9125 37.02L43.0325 33.86C42.9405 33.7444 42.8261 33.6485 42.6962 33.5781C42.5663 33.5077 42.4235 33.4641 42.2764 33.4501C42.1293 33.4361 41.9809 33.4518 41.84 33.4964C41.6991 33.541 41.5687 33.6135 41.4564 33.7096C41.3442 33.8057 41.2525 33.9234 41.1867 34.0558C41.121 34.1881 41.0826 34.3324 41.0738 34.4799C41.0651 34.6274 41.0861 34.7751 41.1357 34.9143C41.1853 35.0535 41.2624 35.1813 41.3625 35.29C41.3625 35.29 41.3625 35.29 41.3625 35.34L43.0025 37.14H38.2325L39.5525 33.74C39.6382 33.6049 39.6933 33.4528 39.7141 33.2942C39.7349 33.1356 39.7209 32.9743 39.673 32.8217C39.6251 32.6691 39.5445 32.5287 39.4368 32.4104C39.3291 32.2922 39.1969 32.1988 39.0494 32.1369C38.9019 32.0749 38.7427 32.0459 38.5829 32.0518C38.423 32.0577 38.2664 32.0984 38.1239 32.171C37.9813 32.2437 37.8564 32.3466 37.7577 32.4725C37.659 32.5984 37.589 32.7443 37.5525 32.9L35.9125 37.1H24.3025L22.6325 32.8H30.5025C30.647 32.8 30.79 32.7716 30.9235 32.7163C31.0569 32.661 31.1782 32.58 31.2803 32.4779C31.3825 32.3757 31.4635 32.2544 31.5188 32.121C31.574 31.9875 31.6025 31.8445 31.6025 31.7C31.6025 31.5556 31.574 31.4125 31.5188 31.2791C31.4635 31.1456 31.3825 31.0244 31.2803 30.9222C31.1782 30.8201 31.0569 30.739 30.9235 30.6838C30.79 30.6285 30.647 30.6 30.5025 30.6H20.5825C20.43 30.6012 20.2794 30.6337 20.14 30.6957C20.0006 30.7576 19.8755 30.8476 19.7725 30.96L14.2625 36.96C13.0725 38.27 13.5125 38.61 14.2625 39.43L23.9925 50.18C18.2238 51.6163 13.1829 55.1198 9.8259 60.026C6.46894 64.9323 5.02943 70.9 5.78045 76.7972C6.53147 82.6943 9.42077 88.1108 13.9003 92.019C18.3798 95.9273 24.138 98.0555 30.0825 98ZM20.5025 33.45L21.9325 37.14H17.1225L20.5025 33.45ZM17.0825 39.34H22.8025L25.9425 47.4C26.0822 47.6109 26.2903 47.7671 26.5317 47.8425C26.7731 47.9178 27.0332 47.9077 27.268 47.8137C27.5028 47.7198 27.6981 47.5478 27.8209 47.3268C27.9438 47.1057 27.9867 46.849 27.9425 46.6L25.1125 39.34H34.9625L32.1825 46.6C32.1383 46.849 32.1812 47.1057 32.3041 47.3268C32.4269 47.5478 32.6222 47.7198 32.857 47.8137C33.0918 47.9077 33.3519 47.9178 33.5933 47.8425C33.8347 47.7671 34.0428 47.6109 34.1825 47.4L37.3225 39.34H43.0225L33.6825 49.72C31.2988 49.3246 28.8662 49.3246 26.4825 49.72L17.0825 39.34ZM30.0825 51.62C34.4519 51.6181 38.7238 52.9119 42.3578 55.338C45.9918 57.7641 48.8247 61.2134 50.4981 65.2496C52.1716 69.2859 52.6105 73.7278 51.7593 78.0135C50.908 82.2991 48.805 86.2361 45.716 89.3265C42.6271 92.4168 38.691 94.5217 34.4057 95.3748C30.1204 96.228 25.6783 95.7911 21.6413 94.1195C17.6043 92.4478 14.1538 89.6165 11.726 85.9836C9.29831 82.3507 8.0025 78.0795 8.0025 73.71C8.00779 67.8548 10.3355 62.2407 14.4748 58.0994C18.6142 53.9582 24.2272 51.628 30.0825 51.62Z" fill="#C79954"/>
<path d="M30.0825 91.16C33.5342 91.162 36.909 90.1403 39.7799 88.224C42.6509 86.3078 44.889 83.5832 46.2113 80.3948C47.5336 77.2064 47.8806 73.6975 47.2084 70.3118C46.5362 66.9262 44.8751 63.816 42.4351 61.3746C39.995 58.9331 36.8857 57.2702 33.5005 56.5961C30.1153 55.9219 26.6061 56.2669 23.417 57.5874C20.2278 58.9078 17.5019 61.1444 15.5841 64.0143C13.6662 66.8841 12.6425 70.2583 12.6425 73.71C12.6478 78.3347 14.4866 82.7686 17.7558 86.0397C21.025 89.3108 25.4578 91.1521 30.0825 91.16ZM30.0825 58.47C33.0995 58.4681 36.0493 59.361 38.5587 61.036C41.0681 62.7109 43.0243 65.0925 44.1797 67.8795C45.3352 70.6665 45.6381 73.7336 45.05 76.6927C44.4619 79.6519 43.0092 82.3701 40.8759 84.5034C38.7425 86.6368 36.0243 88.0894 33.0652 88.6775C30.106 89.2656 27.0389 88.9628 24.252 87.8073C21.465 86.6518 19.0834 84.6956 17.4084 82.1862C15.7335 79.6769 14.8405 76.7271 14.8425 73.71C14.8478 69.6698 16.4551 65.7965 19.312 62.9396C22.1689 60.0827 26.0422 58.4753 30.0825 58.47ZM34.9925 20.13L38.8425 22.51C38.9922 22.5993 39.1612 22.6513 39.3352 22.6617C39.5092 22.6722 39.6832 22.6407 39.8425 22.57C41.0172 22.0915 42.01 21.253 42.6783 20.175C43.3467 19.097 43.6562 17.835 43.5625 16.57C43.5541 16.388 43.5026 16.2106 43.4122 16.0524C43.3218 15.8941 43.1951 15.7597 43.0425 15.66L39.1825 13.29C37.3025 12.13 35.4425 12.99 34.1825 14.97C32.9225 16.95 33.0225 18.97 34.9025 20.15L34.9925 20.13ZM37.5025 15C37.8425 15 37.6625 14.94 41.3725 17.23C41.351 17.8607 41.1677 18.4752 40.8403 19.0146C40.5128 19.5539 40.0521 20 39.5025 20.31C36.5025 18.31 35.7125 18.31 35.6825 17.52C35.6525 16.73 36.6425 15 37.5025 15Z" fill="#C79954"/>
<path d="M33.4125 29.39C37.7425 32.07 43.2725 30.39 46.9125 26.52L53.0325 30.3L51.8025 32.3C51.4697 32.8313 51.3401 33.4649 51.4375 34.0841C51.5349 34.7034 51.8527 35.2666 52.3325 35.67L63.0025 44.77C64.4225 45.99 63.5525 45.23 86.6725 59.48C86.7933 59.5595 86.9286 59.6144 87.0706 59.6415C87.2126 59.6687 87.3586 59.6676 87.5002 59.6384C87.6419 59.6091 87.7763 59.5523 87.896 59.4711C88.0156 59.3898 88.118 59.2859 88.1975 59.165C88.277 59.0442 88.3318 58.9089 88.359 58.7669C88.3862 58.6249 88.3851 58.4789 88.3558 58.3373C88.3266 58.1957 88.2697 58.0612 88.1885 57.9416C88.1073 57.822 88.0033 57.7195 87.8825 57.64H87.8225C64.9625 43.53 65.6125 44.11 64.4325 43.1L53.7625 34C53.6854 33.9357 53.6339 33.8458 53.6174 33.7467C53.6009 33.6476 53.6205 33.5459 53.6725 33.46L59.5025 24C59.553 23.9127 59.634 23.847 59.73 23.8156C59.826 23.7843 59.9301 23.7894 60.0225 23.83C73.3725 29.5 73.1925 29.27 74.5025 30.06L93.5025 41.82C93.6203 41.9283 93.7604 42.0096 93.9128 42.0581C94.0653 42.1067 94.2265 42.1214 94.3852 42.1013C94.544 42.0812 94.6964 42.0266 94.8319 41.9415C94.9674 41.8564 95.0827 41.7427 95.1697 41.6085C95.2568 41.4742 95.3135 41.3226 95.3359 41.1641C95.3583 41.0057 95.3459 40.8443 95.2995 40.6911C95.2531 40.538 95.1739 40.3968 95.0673 40.2775C94.9608 40.1581 94.8294 40.0634 94.6825 40L75.6325 28.19C74.1025 27.25 74.0525 27.41 60.8725 21.81C60.3007 21.5609 59.6585 21.5247 59.0623 21.7082C58.4661 21.8916 57.9553 22.2825 57.6225 22.81L56.4025 24.81L50.2825 21.03C52.1725 15.76 50.8725 10.2 46.8025 7.68003C41.5925 4.46003 34.8025 7.56003 31.3225 13.11C27.6425 19.11 28.5725 26.39 33.4125 29.37V29.39ZM55.2525 26.7L54.1825 28.43L48.3225 24.81C48.7221 24.261 49.0797 23.6827 49.3925 23.08L55.2525 26.7ZM33.1925 14.28C35.9425 9.84003 41.5025 7.00004 45.6425 9.57003C49.4525 11.92 50.0725 17.86 47.0225 22.81C44.3125 27.2 38.7725 30.12 34.5725 27.52C30.7625 25.17 30.1425 19.23 33.1925 14.28Z" fill="#C79954"/>
<path d="M71.5025 31.32L68.8425 29.68C68.5972 29.5281 68.3021 29.4786 68.0207 29.5422C67.7393 29.6058 67.4942 29.7774 67.3381 30.0201C67.182 30.2627 67.1275 30.5569 67.1863 30.8394C67.2451 31.1218 67.4126 31.3699 67.6525 31.53L70.3025 33.17C70.424 33.2488 70.5598 33.3029 70.7021 33.3292C70.8445 33.3555 70.9907 33.3536 71.1323 33.3234C71.2739 33.2932 71.4082 33.2354 71.5275 33.1533C71.6468 33.0713 71.7487 32.9665 71.8275 32.845C71.9063 32.7236 71.9604 32.5878 71.9867 32.4454C72.013 32.303 72.011 32.1568 71.9808 32.0152C71.9507 31.8736 71.8929 31.7393 71.8108 31.6201C71.7287 31.5008 71.624 31.3988 71.5025 31.32ZM68.7525 35.79L66.1025 34.15C65.86 34.043 65.5871 34.0272 65.3338 34.1054C65.0806 34.1836 64.8641 34.3506 64.7242 34.5757C64.5842 34.8008 64.5303 35.0688 64.5722 35.3305C64.6142 35.5922 64.7492 35.83 64.9525 36L67.6125 37.64C67.7353 37.7162 67.8719 37.7674 68.0145 37.7908C68.157 37.8142 68.3028 37.8093 68.4435 37.7763C68.5842 37.7433 68.717 37.683 68.8344 37.5987C68.9517 37.5144 69.0513 37.4078 69.1275 37.285C69.2037 37.1622 69.2549 37.0257 69.2783 36.8831C69.3017 36.7405 69.2967 36.5947 69.2638 36.454C69.2308 36.3133 69.1704 36.1805 69.0862 36.0632C69.0019 35.9458 68.8953 35.8462 68.7725 35.77L68.7525 35.79ZM66.2325 39.9L63.5725 38.26C63.4497 38.1839 63.3131 38.1326 63.1705 38.1092C63.028 38.0859 62.8822 38.0908 62.7415 38.1238C62.6008 38.1567 62.468 38.2171 62.3506 38.3014C62.2333 38.3857 62.1337 38.4922 62.0575 38.615C61.9813 38.7378 61.9301 38.8744 61.9067 39.017C61.8833 39.1596 61.8883 39.3054 61.9212 39.4461C61.9542 39.5867 62.0145 39.7196 62.0988 39.8369C62.1831 39.9543 62.2897 40.0539 62.4125 40.13L65.0725 41.77C65.3205 41.9239 65.6194 41.9729 65.9035 41.9063C66.1876 41.8397 66.4337 41.663 66.5875 41.415C66.7413 41.1671 66.7903 40.8681 66.7238 40.584C66.6572 40.2999 66.4805 40.0539 66.2325 39.9ZM63.0025 26.9C62.88 26.8235 62.7435 26.7721 62.601 26.7488C62.4584 26.7254 62.3127 26.7307 62.1722 26.7642C62.0317 26.7977 61.8993 26.8588 61.7826 26.9439C61.6659 27.029 61.5673 27.1365 61.4925 27.26L57.9625 33C57.8741 33.1206 57.8112 33.258 57.7777 33.4037C57.7442 33.5494 57.7407 33.7004 57.7675 33.8475C57.7943 33.9945 57.8508 34.1346 57.9336 34.2591C58.0163 34.3837 58.1236 34.49 58.2488 34.5717C58.3741 34.6533 58.5146 34.7086 58.6619 34.7341C58.8092 34.7597 58.9602 34.7549 59.1056 34.7201C59.251 34.6853 59.3878 34.6213 59.5076 34.5319C59.6274 34.4424 59.7278 34.3295 59.8025 34.2L63.3325 28.46C63.4135 28.3386 63.4693 28.2021 63.4966 28.0587C63.5239 27.9153 63.5221 27.7679 63.4913 27.6252C63.4606 27.4825 63.4014 27.3474 63.3175 27.228C63.2335 27.1086 63.1264 27.0073 63.0025 26.93V26.9ZM79.3625 34.3C79.215 34.282 79.0655 34.2938 78.9226 34.3346C78.7798 34.3754 78.6466 34.4445 78.531 34.5378C78.4154 34.6311 78.3196 34.7466 78.2495 34.8775C78.1793 35.0084 78.1361 35.1521 78.1225 35.3C77.4298 38.8781 75.4522 42.0792 72.5625 44.3C72.4202 44.3756 72.2962 44.4814 72.1994 44.6101C72.1025 44.7388 72.035 44.8872 72.0018 45.0449C71.9686 45.2025 71.9704 45.3655 72.0071 45.5224C72.0439 45.6792 72.1146 45.8261 72.2143 45.9526C72.314 46.0791 72.4403 46.1822 72.5843 46.2545C72.7282 46.3269 72.8863 46.3667 73.0473 46.3712C73.2083 46.3757 73.3684 46.3448 73.5162 46.2807C73.6639 46.2166 73.7958 46.1208 73.9025 46C76.1917 44.2449 78.0009 41.9404 79.1625 39.3C79.6995 38.1102 80.0825 36.8568 80.3025 35.57C80.3397 35.2814 80.262 34.9897 80.0861 34.7578C79.9103 34.5258 79.6505 34.3722 79.3625 34.33V34.3Z" fill="#C79954"/>
<path d="M54.887 5.62003C54.759 5.52611 54.6121 5.46102 54.4565 5.42924C54.3009 5.39746 54.1403 5.39975 53.9857 5.43594C53.8311 5.47214 53.6861 5.54138 53.5608 5.63891C53.4355 5.73644 53.3328 5.85994 53.2597 6.00094C53.1867 6.14193 53.145 6.29708 53.1376 6.4557C53.1302 6.61433 53.1572 6.77268 53.2168 6.91987C53.2764 7.06705 53.3672 7.19959 53.4829 7.30837C53.5986 7.41715 53.7364 7.49959 53.887 7.55003C53.887 7.55003 55.977 8.73003 55.437 12.47C55.4214 12.7451 55.5096 13.0161 55.6841 13.2293C55.8587 13.4425 56.1069 13.5824 56.3797 13.6214C56.6525 13.6603 56.9299 13.5955 57.1572 13.4397C57.3845 13.2839 57.545 13.0485 57.607 12.78C58.317 7.56003 55.027 5.69003 54.887 5.62003ZM59.887 2.13003C59.759 2.03611 59.6121 1.97102 59.4565 1.93924C59.3009 1.90746 59.1403 1.90975 58.9857 1.94594C58.8311 1.98213 58.6861 2.05138 58.5608 2.14891C58.4355 2.24644 58.3328 2.36994 58.2597 2.51094C58.1867 2.65193 58.145 2.80708 58.1376 2.9657C58.1302 3.12433 58.1572 3.28268 58.2168 3.42987C58.2764 3.57705 58.3672 3.70959 58.4829 3.81837C58.5986 3.92715 58.7364 4.00959 58.887 4.06003C58.887 4.06003 62.167 6.00003 61.337 11.7C61.2951 11.8511 61.286 12.0093 61.3103 12.1641C61.3345 12.319 61.3916 12.4668 61.4776 12.5978C61.5637 12.7288 61.6767 12.8399 61.8092 12.9237C61.9416 13.0074 62.0905 13.0619 62.2457 13.0835C62.4009 13.105 62.559 13.0932 62.7093 13.0487C62.8595 13.0042 62.9986 12.9281 63.1171 12.8255C63.2355 12.7229 63.3307 12.5962 63.3963 12.4538C63.4618 12.3115 63.4961 12.1568 63.497 12C64.557 4.77003 60.077 2.23003 59.887 2.13003ZM22.497 21.45L16.597 19.59C16.3159 19.5128 16.0157 19.5491 15.7613 19.6914C15.5068 19.8336 15.3185 20.0701 15.237 20.35C15.1603 20.6205 15.1901 20.9101 15.3203 21.1593C15.4505 21.4086 15.6712 21.5984 15.937 21.69L21.837 23.55C21.9749 23.5897 22.1193 23.6018 22.2618 23.5855C22.4044 23.5693 22.5423 23.525 22.6677 23.4554C22.7932 23.3857 22.9036 23.2919 22.9927 23.1795C23.0818 23.067 23.1479 22.9381 23.187 22.8C23.2646 22.5295 23.2365 22.2395 23.1084 21.9889C22.9803 21.7382 22.7618 21.5456 22.497 21.45ZM25.897 16.28L21.607 11.8C21.5056 11.6975 21.385 11.6162 21.2519 11.5606C21.1189 11.5051 20.9762 11.4765 20.832 11.4765C20.6879 11.4765 20.5451 11.5051 20.4121 11.5606C20.2791 11.6162 20.1584 11.6975 20.057 11.8C19.9542 11.9023 19.8726 12.0238 19.817 12.1577C19.7613 12.2915 19.7326 12.4351 19.7326 12.58C19.7326 12.725 19.7613 12.8686 19.817 13.0024C19.8726 13.1363 19.9542 13.2578 20.057 13.36L24.317 17.84C24.5199 18.0449 24.7952 18.162 25.0836 18.1659C25.3719 18.1699 25.6503 18.0604 25.8587 17.8612C26.0672 17.6619 26.1891 17.3887 26.1981 17.1005C26.2071 16.8122 26.1026 16.532 25.907 16.32L25.897 16.28Z" fill="#0F172A"/>
</svg>
