<svg width="80" height="80" viewBox="0 0 80 80" fill="none" xmlns="http://www.w3.org/2000/svg">
<path d="M40.0008 80C62.0565 80 80 62.0565 80 40.0022C80 17.948 62.0565 0 40.0008 0C17.945 0 0 17.945 0 40.0022C0 62.0595 17.9435 80 40.0008 80ZM23.5145 26.1546L18.5521 38.1363L6.57183 26.1516L23.5145 26.1546ZM6.57034 53.8514L18.5521 41.8682L23.516 53.8484L6.57034 53.8514ZM24.0395 55.9635V74.3544C15.93 70.5874 9.41476 64.0727 5.64706 55.9635H24.0395ZM20.066 40.0037L25.9055 25.9055L40.0008 20.069L54.093 25.9055L59.9325 40.0037L54.093 54.0975L40.0008 59.9295L25.9055 54.0945L20.066 40.0037ZM38.1348 61.4464L26.159 73.4267V56.4855L38.1348 61.4464ZM40.0008 62.5696L53.0072 75.576C44.6074 78.6457 35.3926 78.6457 26.9928 75.576L40.0008 62.5696ZM53.8469 56.487V73.4267L41.8652 61.445L53.8469 56.487ZM61.4539 38.1408L56.49 26.1561H73.4341L61.4539 38.1408ZM56.4915 53.8529L61.4539 41.8727L73.4341 53.8529H56.4915ZM55.9649 74.3574V55.9605H74.3589C70.5889 64.071 64.071 70.5862 55.959 74.3529L55.9649 74.3574ZM75.582 53.0117L62.5771 40.0067L75.582 26.9988C78.6626 35.3961 78.6626 44.6143 75.582 53.0117ZM55.959 24.0395V5.64706C64.0682 9.41523 70.5833 15.9303 74.3515 24.0395H55.959ZM41.8652 18.5536L53.8469 6.57332V23.5145L41.8652 18.5536ZM40.0008 17.4304L26.9928 4.42547C35.3927 1.35655 44.6073 1.35655 53.0072 4.42547L40.0008 17.4304ZM26.159 23.5145V6.57332L38.1408 18.5536L26.159 23.5145ZM24.0455 5.64855V24.0395H5.65452C9.42015 15.9314 15.9327 9.41681 24.0395 5.64855H24.0455ZM4.42398 26.9943L17.4289 40.0022L4.42398 53.0072C1.34096 44.6103 1.34096 35.3912 4.42398 26.9943Z" fill="#0F172A"/>
</svg>
