<svg width="101" height="100" viewBox="0 0 101 100" fill="none" xmlns="http://www.w3.org/2000/svg">
<path d="M77.1929 13.1035C76.9794 12.5688 76.6651 12.0801 76.2671 11.6641L67.2573 2.20703C66.7135 1.6384 66.0603 1.18559 65.337 0.875793C64.6137 0.566 63.8352 0.405624 63.0483 0.404297H37.9507C37.1638 0.405062 36.3851 0.565203 35.6618 0.875031C34.9384 1.18486 34.2852 1.63795 33.7417 2.20703L24.7202 11.6641C23.918 12.5065 23.4717 13.6258 23.4741 14.7891C23.4739 16.0387 23.92 17.2474 24.732 18.1973L45.9761 43.0899C46.7088 43.9511 47.6745 44.5825 48.7573 44.9082L48.7866 44.92L48.8511 44.9414L49.0601 44.9961C49.1187 45.0098 49.1792 45.0254 49.2398 45.0371L49.3218 45.0547L49.4429 45.0781L49.5406 45.0938C49.5915 45.1044 49.643 45.1123 49.6949 45.1172C49.7827 45.1289 49.855 45.1387 49.9273 45.1445L50.0659 45.1563H50.1011L50.2827 45.166C50.4272 45.166 50.5718 45.166 50.7163 45.166H50.9214C50.9917 45.166 51.0464 45.1563 51.1011 45.1504C51.2339 45.1348 51.3589 45.1172 51.4819 45.0977C51.5366 45.0977 51.5816 45.0801 51.6284 45.0703L51.8335 45.0273H51.8647L52.1187 44.959L52.435 44.8574L52.5738 44.8067C52.6597 44.7754 52.7378 44.7461 52.814 44.711H52.8335C52.8784 44.6934 52.9234 44.6738 52.9663 44.6524L53.0269 44.6231L53.0679 44.6035C53.1102 44.5861 53.1513 44.5658 53.1909 44.543L53.2143 44.5313L53.3257 44.4727C53.3784 44.4453 53.4194 44.4219 53.4604 44.3965L53.5816 44.3242L53.603 44.3106C53.6636 44.276 53.7223 44.2382 53.7788 44.1973L53.8042 44.1817C53.8153 44.1756 53.8258 44.1684 53.8355 44.1602C53.9331 44.0938 54.0151 44.0332 54.0972 43.9649C54.1792 43.8965 54.2612 43.834 54.3452 43.7695C54.5823 43.5686 54.8025 43.3484 55.0034 43.1114L76.2515 18.2187C77.0618 17.268 77.507 16.0598 77.5073 14.8105C77.5131 14.2266 77.4063 13.6471 77.1929 13.1035ZM75.2495 13.711H61.396L66.6831 4.72659L75.2495 13.711ZM63.0483 2.55273C63.6388 2.55387 64.2203 2.69726 64.7436 2.97073L65.1089 3.16604L59.4546 12.7695L52.5249 2.54687L63.0483 2.55273ZM57.4917 13.711H43.5034L50.5015 3.39454L57.4917 13.711ZM36.2495 2.96877C36.3335 2.92581 36.4175 2.88672 36.5034 2.84961C36.9595 2.65414 37.4505 2.55314 37.9468 2.55273H48.4702L41.5425 12.7695L35.8784 3.15627L36.2495 2.96877ZM34.314 4.72659L39.5991 13.711H25.7476L34.314 4.72659ZM26.3726 16.8047C26.2815 16.6975 26.1973 16.5847 26.1206 16.4668L25.73 15.8653H40.646L47.396 41.4512L26.3726 16.8047ZM51.0464 42.6797V43.0078L50.6695 43.0215H50.3081L49.9409 43V42.6797L42.8628 15.8653H58.1187L51.0464 42.6797ZM74.8745 16.4668C74.7983 16.5845 74.7148 16.6974 74.6245 16.8047L53.5952 41.4434L60.3452 15.8574H75.2612L74.8745 16.4668Z" fill="#C79954"/>
<path d="M48.9253 96.7715L47.8061 81.4961C47.8013 81.4182 47.7922 81.3406 47.7788 81.2637C47.7788 81.2226 47.7612 81.1758 47.7514 81.1309C47.7243 81.0114 47.689 80.894 47.646 80.7793L47.601 80.6699C47.5796 80.6211 47.5659 80.5879 47.5483 80.5527C47.5307 80.5176 47.5054 80.4746 47.4839 80.4277C47.4624 80.3808 47.4429 80.3574 47.4155 80.3184L47.3999 80.293L47.3784 80.2559C47.3433 80.207 47.314 80.1641 47.2827 80.1231L47.2573 80.0918C47.2299 80.0547 47.2007 80.0195 47.1714 79.9844L47.1323 79.9414C47.0959 79.9004 47.0575 79.8613 47.0171 79.8242L46.9702 79.7793H46.9585L46.8511 79.6738C46.8218 79.6487 46.7912 79.6252 46.7593 79.6035L46.687 79.5508C46.6661 79.534 46.6439 79.519 46.6206 79.5059L46.5952 79.4903L46.4995 79.4317L46.4741 79.418C46.4427 79.3972 46.41 79.3783 46.3764 79.3613C46.3225 79.3324 46.2671 79.3064 46.2104 79.2832C46.1499 79.2578 46.0971 79.2363 46.0425 79.2188C45.9234 79.1765 45.8013 79.1432 45.6772 79.1191L45.5483 79.0977C45.3614 79.0714 45.1722 79.0648 44.9839 79.0781L43.8999 79.1562L43.8608 78.7852C43.5533 75.7321 43.0008 72.7086 42.2085 69.7441C41.1362 65.7695 40.1421 64.4453 35.6264 58.8476L35.6147 58.834C34.2163 57.1641 33.0757 56.5332 27.5874 53.4941C26.5132 52.9082 25.269 52.211 23.814 51.4004C21.7456 50.2442 20.0698 50.7305 19.0288 51.3398L18.6382 51.5664L18.2749 50.6602L18.3237 50.5195C18.4599 50.1199 18.5439 49.7043 18.5737 49.2832L19.3843 38.0352C19.4327 37.3824 19.3514 36.7264 19.1449 36.1052C18.9384 35.484 18.6108 34.9099 18.1811 34.416C17.7544 33.9197 17.2334 33.513 16.6484 33.2193C16.0634 32.9256 15.4259 32.7508 14.7729 32.7051C14.0899 32.6552 13.4039 32.7469 12.758 32.9745C12.112 33.202 11.52 33.5604 11.019 34.0274L10.7827 34.2481L10.521 34.0527C9.39014 33.2246 8.00731 32.9766 6.52098 33.332L6.47801 33.3438C2.812 34.3496 2.53856 37.9668 2.96239 39.9453C2.96239 39.9648 2.9624 39.9824 2.97607 40L9.01317 62.209C9.85106 66.0937 12.6831 68.2207 13.8608 68.9551L13.9175 68.9903L20.9487 72.9121C22.1084 73.5245 23.1136 74.3928 23.8882 75.4512H24.0835V75.7129C24.8301 76.7276 25.2744 77.9329 25.3647 79.1895L25.4604 80.4961L24.4175 80.5703C24.3184 80.5778 24.2199 80.5915 24.1225 80.6114C24.0121 80.6313 23.9031 80.6587 23.7964 80.6934L23.6812 80.7324L23.5639 80.7793C23.4897 80.8145 23.4155 80.8496 23.3432 80.8887L23.2358 80.9512L23.1304 81.0215C23.0627 81.064 22.9975 81.1103 22.935 81.1601L22.8393 81.2422C22.7827 81.2949 22.7241 81.3496 22.6694 81.4101L22.5893 81.5C22.5386 81.5625 22.4878 81.6276 22.437 81.6953C22.394 81.7578 22.3511 81.8262 22.3081 81.8906L22.2515 81.998C22.2339 82.0332 22.2163 82.0684 22.2007 82.1055C22.1661 82.18 22.1354 82.2562 22.1089 82.334C22.0815 82.4101 22.0601 82.4902 22.0386 82.5723C22.0386 82.6113 22.021 82.6504 22.0132 82.6934C22.0054 82.7363 22.0015 82.7578 21.9956 82.7988C21.9663 82.9927 21.9584 83.1892 21.9722 83.3848L22.978 97.1133C23.0296 97.7864 23.3327 98.4154 23.8271 98.875C24.3215 99.3347 24.9709 99.5913 25.646 99.5938H46.2788C46.645 99.5945 47.0074 99.5198 47.3434 99.3743C47.6794 99.2288 47.9819 99.0156 48.2319 98.748C48.4746 98.4822 48.6611 98.1702 48.7802 97.8305C48.8994 97.4909 48.9487 97.1307 48.9253 96.7715ZM12.3237 35.7637C12.6109 35.4473 12.9666 35.2007 13.3637 35.043C13.7608 34.8852 14.1887 34.8204 14.6147 34.8535C15.3281 34.9058 15.9953 35.2256 16.4828 35.7489C16.9704 36.2723 17.2421 36.9605 17.2436 37.6758C17.2436 37.7442 17.2436 37.8125 17.2436 37.8828L16.6128 46.6582L12.7593 37.3946C12.7358 37.3184 12.7104 37.2441 12.6831 37.1699V37.1543L12.6675 37.1133L12.6284 37.0078V36.9844C12.6069 36.9277 12.5854 36.8711 12.562 36.8125L12.5483 36.7793C12.5093 36.6855 12.4683 36.5918 12.4253 36.4981C12.3823 36.4043 12.3354 36.3066 12.2847 36.2051L12.1636 35.9649L12.3237 35.7637ZM21.9858 71.045L14.9546 67.1211C14.0112 66.5352 11.7475 64.8125 11.0952 61.7305L11.0835 61.6777L5.04638 39.4668C4.72607 37.875 5.07763 35.9785 7.0249 35.4297C8.19677 35.1543 9.17332 35.5 9.89207 36.4199L9.91162 36.4434C10.2314 36.881 10.4805 37.3661 10.6499 37.8809C10.6753 37.9473 10.7007 38.0254 10.7261 38.1016L10.7475 38.168C10.7475 38.1856 10.7632 38.2109 10.7749 38.2383L17.0542 53.3301V53.4883L17.021 53.5645C16.7222 54.2598 15.9272 56.6641 18.3022 58.4648C20.1284 59.8477 23.9839 62.793 25.437 63.9024L26.0229 64.3496C26.2102 64.4946 26.4404 64.5729 26.6772 64.5723C26.8422 64.573 27.0051 64.5353 27.1529 64.4621C27.3007 64.3888 27.4295 64.2821 27.5288 64.1504C27.6155 64.0388 27.6789 63.9109 27.7155 63.7744C27.752 63.6379 27.761 63.4955 27.7417 63.3555C27.7236 63.2155 27.6779 63.0806 27.6071 62.9586C27.5364 62.8365 27.442 62.7298 27.3296 62.6446L26.7436 62.1895C25.2925 61.0801 21.435 58.1348 19.6108 56.7519C18.7124 56.0703 18.5483 55.082 19.1714 54.1055L19.1987 54.0625C19.8491 53.0762 21.1323 52.3496 22.7788 53.2676C24.2358 54.0801 25.4839 54.7715 26.5601 55.3672L26.603 55.3906C31.8862 58.3203 32.8374 58.8457 33.9722 60.1934C38.5679 65.8945 39.1929 66.7578 40.1479 70.2988C40.9025 73.1241 41.4309 76.0049 41.728 78.914L41.769 79.3145L27.605 80.3535L27.5093 79.0449C27.383 77.3279 26.7593 75.6848 25.7143 74.3164C24.7202 73.0274 23.7436 72.0293 21.9858 71.045ZM24.1167 83.252C24.1118 83.1878 24.1199 83.1233 24.1403 83.0622C24.1608 83.0012 24.1933 82.9448 24.2358 82.8965C24.2778 82.8481 24.3289 82.8086 24.3862 82.7801C24.4435 82.7516 24.5059 82.7347 24.5698 82.7305L45.1753 81.2207C45.2948 81.2197 45.4107 81.262 45.5014 81.3399C45.5894 81.4164 45.6476 81.5215 45.6655 81.6367V81.6738L45.9428 85.4473L24.3901 87.0273L24.1167 83.252ZM46.6499 97.3145C46.6023 97.3645 46.545 97.4043 46.4816 97.4314C46.4181 97.4586 46.3498 97.4726 46.2807 97.4726H25.6479C25.515 97.4722 25.3869 97.4221 25.289 97.3321C25.1911 97.2421 25.1303 97.1188 25.1187 96.9863L24.5464 89.1738L46.0991 87.5957L46.7847 96.9707C46.7835 97.0981 46.7339 97.2203 46.646 97.3125L46.6499 97.3145Z" fill="#C79954"/>
<path d="M94.5199 33.3495H94.4768C92.9944 32.994 91.6116 33.2421 90.4808 34.0702L90.2191 34.2655L89.9827 34.0448C89.4815 33.5782 88.8895 33.2201 88.2435 32.9929C87.5976 32.7657 86.9117 32.6743 86.2288 32.7245C85.5761 32.7694 84.9389 32.9436 84.3541 33.237C83.7693 33.5304 83.2487 33.937 82.8226 34.4335C82.3922 34.9269 82.0641 35.501 81.8572 36.1222C81.6503 36.7435 81.5689 37.3996 81.6175 38.0526L82.428 49.3007C82.4576 49.722 82.5423 50.1377 82.68 50.537L82.7288 50.6776L82.3538 51.5721L81.9632 51.3456C80.9222 50.7362 79.2464 50.2499 77.178 51.4061L73.7171 53.3299L73.4066 53.5018C67.9183 56.537 66.7776 57.1698 65.3772 58.8397L65.3636 58.8534C60.846 64.4588 59.8518 65.785 58.7835 69.7538C57.9956 72.7154 57.447 75.7355 57.1429 78.785L57.1038 79.1639L56.0179 79.0819C55.9541 79.0819 55.889 79.0819 55.8226 79.0819C55.1567 79.0835 54.516 79.3361 54.0283 79.7894C53.5406 80.2427 53.2419 80.8633 53.1917 81.5272L52.0648 96.7733C52.039 97.1374 52.0882 97.5028 52.2091 97.8471C52.33 98.1914 52.5202 98.5073 52.7679 98.7753C53.018 99.0427 53.3204 99.2558 53.6564 99.4013C53.9924 99.5468 54.3549 99.6216 54.721 99.6209H75.3499C76.0255 99.6185 76.6754 99.3617 77.1701 98.9017C77.6649 98.4417 77.9683 97.8122 78.0198 97.1385L79.0257 83.41C79.0257 83.3495 79.0257 83.2909 79.0257 83.2303L78.9925 82.8065C78.9925 82.785 78.9925 82.746 78.9769 82.7069C78.9612 82.6679 78.9612 82.6385 78.9515 82.5956C78.9417 82.5526 78.9241 82.494 78.9104 82.4452C78.8968 82.3964 78.8772 82.3456 78.8577 82.2948C78.823 82.2012 78.7826 82.1099 78.7366 82.0214C78.721 81.9882 78.7015 81.951 78.68 81.9139C78.6409 81.8475 78.596 81.7772 78.5491 81.7089C78.5023 81.6405 78.4534 81.5799 78.4007 81.5135C78.3773 81.4842 78.3499 81.455 78.3245 81.4276C78.2991 81.4003 78.2659 81.3651 78.2366 81.3378C78.2073 81.3104 78.182 81.2831 78.1527 81.2557L78.0609 81.1776C78.0218 81.1444 77.9945 81.1249 77.9671 81.1053L77.8636 81.0292L77.7581 80.9627C77.654 80.8989 77.5456 80.8421 77.4339 80.7928C77.3616 80.7635 77.2854 80.7343 77.2054 80.7089C77.1676 80.6952 77.1291 80.6834 77.0901 80.6737C77.0259 80.6546 76.9607 80.6389 76.8948 80.6268L76.5765 80.5839L75.5472 80.5097L75.6409 79.2049C75.7331 77.9478 76.1779 76.7422 76.9241 75.7265L77.0042 75.621C77.8792 74.4725 78.5921 73.7401 80.0609 72.9198L87.1487 68.9628C88.3206 68.2323 91.1565 66.1092 91.9964 62.2147V62.1952L98.0277 40.0135L98.0413 39.951C98.4651 37.9745 98.1937 34.3593 94.5199 33.3495ZM84.4456 35.8261C84.688 35.5433 84.984 35.3115 85.3166 35.1438C85.6492 34.9762 86.0117 34.8762 86.3831 34.8495C86.4534 34.8495 86.5218 34.8495 86.5901 34.8495C86.9822 34.8492 87.37 34.9307 87.7289 35.0888C88.0877 35.2468 88.4096 35.478 88.6741 35.7675L88.8558 35.9628L88.7327 36.203C88.6839 36.2967 88.639 36.3983 88.594 36.494C88.5491 36.5897 88.5081 36.6893 88.469 36.7792L88.4573 36.8085C88.4339 36.869 88.4104 36.9237 88.3909 36.9823C88.3909 36.996 88.3909 37.0077 88.3772 37.0194L88.3421 37.1112C88.3416 37.1183 88.3416 37.1255 88.3421 37.1327L88.3284 37.1678C88.303 37.242 88.2796 37.3085 88.2581 37.3768L88.2327 37.4511L84.4066 46.6424L83.7738 37.8671C83.7185 37.1246 83.9602 36.3905 84.4456 35.8261ZM75.8772 96.9862C75.866 97.1185 75.8057 97.2418 75.7081 97.3318C75.6105 97.4218 75.4827 97.472 75.3499 97.4725H54.721C54.652 97.4727 54.5836 97.4589 54.5201 97.4316C54.4566 97.4044 54.3993 97.3645 54.3519 97.3143C54.3057 97.2665 54.2697 97.2098 54.2459 97.1477C54.222 97.0857 54.2109 97.0194 54.2132 96.953V96.9276L54.8987 87.5897L76.4515 89.1678L75.8772 96.9862ZM76.4222 82.7284C76.476 82.7301 76.529 82.742 76.5784 82.7636C76.6236 82.7818 76.6657 82.8068 76.7034 82.8378L76.7464 82.8768L76.8616 82.9901V83.0682C76.877 83.1196 76.8849 83.1729 76.8851 83.2264V83.2538L76.6097 87.0272L55.0589 85.4472L55.3323 81.6132L55.3558 81.5604C55.3549 81.5526 55.3549 81.5448 55.3558 81.537L55.3812 81.4588L55.4261 81.412C55.4513 81.3783 55.4808 81.3481 55.514 81.3221C55.5557 81.2898 55.6026 81.2648 55.6527 81.2479L55.6956 81.2245H55.8402L76.4222 82.7284ZM95.9534 39.4667V39.4921L89.9222 61.6679L89.9085 61.7206C89.2562 64.8123 86.9905 66.5272 86.0472 67.121L86.0296 67.1327L79.0179 71.039C77.2483 72.0253 76.2835 73.0233 75.3069 74.3104C74.2599 75.6792 73.6354 77.324 73.5101 79.0429L73.4163 80.3475L59.2523 79.3085L59.2933 78.9178C59.5894 76.0078 60.1185 73.1262 60.8753 70.3007C61.8265 66.7616 62.4515 65.8983 67.0433 60.2011C68.1897 58.8339 69.1468 58.3104 74.4651 55.369C75.5413 54.7831 76.7874 54.0819 78.2444 53.2694C79.8909 52.3495 81.1741 53.0741 81.8148 54.0507L81.8362 54.0839C82.4768 55.0604 82.3167 56.0663 81.4124 56.7518C79.5706 58.1483 75.6956 61.1073 74.2366 62.2206L73.68 62.6464C73.5679 62.7314 73.474 62.8378 73.4035 62.9596C73.3331 63.0813 73.2877 63.2158 73.2698 63.3553C73.251 63.4949 73.2599 63.6368 73.2961 63.7729C73.3323 63.909 73.3951 64.0366 73.4808 64.1483C73.5805 64.2807 73.7098 64.3879 73.8583 64.4615C74.0068 64.5351 74.1705 64.573 74.3362 64.5721C74.5715 64.5729 74.8004 64.4953 74.9866 64.3515L75.5276 63.9393C76.9866 62.8241 80.8636 59.8632 82.7112 58.4706C85.0862 56.6698 84.2913 54.2655 83.9905 53.5702L83.9593 53.496V53.3378L83.9886 53.2636L90.2386 38.242C90.2503 38.2167 90.2581 38.1913 90.2679 38.1639L90.2854 38.1092C90.3128 38.0253 90.3382 37.9511 90.3636 37.8788C90.5349 37.3676 90.7832 36.8854 91.0999 36.4491L91.1233 36.4218C91.8362 35.5038 92.8187 35.162 93.9691 35.4296C95.9144 35.9764 96.2698 37.8729 95.9554 39.4667H95.9534Z" fill="#C79954"/>
<path d="M22.0183 7.40235C22.0188 7.5435 21.9912 7.68334 21.9373 7.81376C21.8833 7.94418 21.804 8.06257 21.7039 8.16209C21.6043 8.26218 21.4859 8.34153 21.3555 8.3955C21.2251 8.44948 21.0853 8.47704 20.9441 8.47657C20.803 8.47704 20.6631 8.44948 20.5327 8.3955C20.4023 8.34153 20.2839 8.26218 20.1843 8.16209L16.8132 4.78904C16.713 4.68964 16.6335 4.57131 16.5795 4.44086C16.5256 4.3104 16.4981 4.17048 16.4988 4.0293C16.4984 3.88844 16.5259 3.74893 16.5799 3.61884C16.6339 3.48874 16.7132 3.37067 16.8132 3.27151C16.9127 3.17115 17.031 3.0915 17.1614 3.03719C17.2918 2.98288 17.4317 2.95497 17.573 2.95508C17.7143 2.95497 17.8542 2.98288 17.9846 3.03719C18.115 3.0915 18.2333 3.17115 18.3328 3.27151L21.7039 6.64256C21.804 6.74208 21.8833 6.86051 21.9373 6.99093C21.9912 7.12135 22.0188 7.2612 22.0183 7.40235Z" fill="#0F172A"/>
<path d="M84.5044 26.0918C84.5049 26.233 84.4773 26.3728 84.4233 26.5032C84.3694 26.6336 84.29 26.7521 84.1899 26.8516C84.0904 26.9517 83.972 27.031 83.8416 27.085C83.7112 27.1389 83.5713 27.1665 83.4302 27.166C83.289 27.1665 83.1492 27.1389 83.0188 27.085C82.8883 27.031 82.7699 26.9517 82.6704 26.8516L79.2993 23.4805C79.1989 23.3811 79.1193 23.2627 79.065 23.1323C79.0107 23.0019 78.9828 22.862 78.9829 22.7207C78.9828 22.5794 79.0107 22.4396 79.065 22.3092C79.1193 22.1787 79.1989 22.0604 79.2993 21.961C79.3985 21.8609 79.5165 21.7816 79.6466 21.7277C79.7767 21.6737 79.9163 21.6461 80.0571 21.6465C80.1983 21.6458 80.3382 21.6733 80.4686 21.7273C80.5991 21.7813 80.7175 21.8607 80.8169 21.961L84.1899 25.3321C84.29 25.4316 84.3694 25.55 84.4233 25.6804C84.4773 25.8108 84.5049 25.9507 84.5044 26.0918Z" fill="#0F172A"/>
<path d="M18.8457 15.0605C18.8457 15.3454 18.7325 15.6186 18.5311 15.8201C18.3296 16.0215 18.0564 16.1347 17.7715 16.1347H13.0039C12.719 16.1347 12.4458 16.0215 12.2443 15.8201C12.0429 15.6186 11.9297 15.3454 11.9297 15.0605C11.9302 14.7757 12.0436 14.5028 12.2449 14.3015C12.4462 14.1001 12.7192 13.9868 13.0039 13.9863H17.7734C18.0578 13.9873 18.3303 14.1009 18.5312 14.3022C18.7321 14.5035 18.8452 14.7761 18.8457 15.0605Z" fill="#0F172A"/>
<path d="M89.0727 15.0605C89.0727 15.3454 88.9596 15.6186 88.7581 15.8201C88.5567 16.0215 88.2834 16.1347 87.9985 16.1347H83.231C82.9461 16.1347 82.6728 16.0215 82.4714 15.8201C82.2699 15.6186 82.1567 15.3454 82.1567 15.0605C82.1567 14.7756 82.2699 14.5023 82.4714 14.3009C82.6728 14.0994 82.9461 13.9863 83.231 13.9863H88.0044C88.2881 13.9883 88.5595 14.1023 88.7596 14.3035C88.9597 14.5047 89.0722 14.7768 89.0727 15.0605Z" fill="#0F172A"/>
<path d="M22.0183 22.7305C22.0188 22.8716 21.9912 23.0115 21.9373 23.1419C21.8833 23.2723 21.804 23.3907 21.7039 23.4902L18.3328 26.8613C18.2332 26.9614 18.1148 27.0407 17.9844 27.0947C17.854 27.1487 17.7142 27.1763 17.573 27.1758C17.4319 27.1763 17.292 27.1487 17.1616 27.0947C17.0312 27.0407 16.9128 26.9614 16.8132 26.8613C16.7131 26.7618 16.6338 26.6434 16.5798 26.513C16.5259 26.3826 16.4983 26.2427 16.4988 26.1016C16.4983 25.9604 16.5259 25.8206 16.5798 25.6902C16.6338 25.5597 16.7131 25.4414 16.8132 25.3418L20.1843 21.9707C20.2839 21.8706 20.4023 21.7913 20.5327 21.7373C20.6631 21.6833 20.8029 21.6558 20.9441 21.6563C21.0852 21.6558 21.2251 21.6833 21.3555 21.7373C21.4859 21.7913 21.6043 21.8706 21.7039 21.9707C21.804 22.0703 21.8833 22.1886 21.9373 22.3191C21.9912 22.4495 22.0188 22.5893 22.0183 22.7305Z" fill="#0F172A"/>
<path d="M84.5044 4.0293C84.5051 4.17048 84.4776 4.3104 84.4236 4.44086C84.3696 4.57131 84.2902 4.68964 84.1899 4.78904L80.8169 8.16209C80.7173 8.26218 80.599 8.34153 80.4685 8.3955C80.3381 8.44948 80.1983 8.47704 80.0571 8.47657C79.9163 8.477 79.7767 8.44944 79.6466 8.39546C79.5165 8.34147 79.3985 8.26212 79.2993 8.16209C79.1989 8.06266 79.1193 7.94432 79.065 7.81391C79.0107 7.68349 78.9828 7.54362 78.9829 7.40235C78.9828 7.26108 79.0107 7.1212 79.065 6.99079C79.1193 6.86038 79.1989 6.74199 79.2993 6.64256L82.6704 3.27151C82.7698 3.17115 82.8882 3.0915 83.0186 3.03719C83.149 2.98288 83.2889 2.95497 83.4302 2.95508C83.5715 2.95497 83.7113 2.98288 83.8417 3.03719C83.9722 3.0915 84.0905 3.17115 84.1899 3.27151C84.29 3.37067 84.3693 3.48874 84.4232 3.61884C84.4772 3.74893 84.5048 3.88844 84.5044 4.0293Z" fill="#0F172A"/>
</svg>
