<svg width="82" height="80" viewBox="0 0 82 80" fill="none" xmlns="http://www.w3.org/2000/svg">
<path d="M81.0023 49.6458L81.5 49.5865H81.0023V30.936C81.0023 21.9517 81.0023 12.7104 81.052 3.63716C81.0672 3.15115 81.0372 2.66482 80.9624 2.18429C80.9624 2.06568 80.9624 1.96686 80.9624 1.88779C80.9624 1.80872 80.8828 1.63081 80.833 1.48255L80.7634 1.33427C80.6518 1.11325 80.5075 0.910049 80.3353 0.731383C80.166 0.589829 79.9864 0.46097 79.7978 0.345905L79.6684 0.286605H79.5688L79.4295 0.237199C79.2933 0.180983 79.1486 0.147578 79.0014 0.138356C78.5628 0.0464799 78.1158 0.000122636 77.6675 0C56.8527 0.0889532 34.7538 0.0889532 3.78538 0C3.4967 0 3.19808 0 2.89944 0H2.72024C2.55551 0.0110844 2.39221 0.0375447 2.23248 0.0790562V0.207549H1.83431C1.60218 0.316566 1.39017 0.46358 1.20717 0.642433C1.06804 0.790935 0.944626 0.953209 0.838859 1.12672V1.17616C0.693378 1.46365 0.602289 1.77519 0.570099 2.09534C0.519867 2.42237 0.496555 2.75289 0.50041 3.08367C0.580046 26.8045 0.580046 51.5137 0.50041 76.7369C0.496843 77.0903 0.516793 77.4436 0.560135 77.7945C0.587795 77.9896 0.634452 78.1816 0.699482 78.3677V78.4468C0.75704 78.6027 0.837571 78.7492 0.93841 78.8817C1.06143 79.0624 1.21262 79.2226 1.38634 79.3561C1.63636 79.5534 1.92427 79.698 2.23248 79.7811C2.72789 79.897 3.23719 79.9436 3.74558 79.9195C16.3579 79.9195 27.9449 79.9195 38.8052 79.9195C52.7415 79.9195 65.4832 79.9194 77.6277 79.9985C78.0853 80.0084 78.5426 79.9687 78.9915 79.8799C79.4277 79.8181 79.838 79.6367 80.1761 79.3561L80.3353 79.2375L80.405 79.1287C80.7139 78.7745 80.9112 78.3381 80.9724 77.8736V77.7154C81.0302 77.2598 81.0535 76.8006 81.0421 76.3415C80.9824 67.466 80.9923 58.4027 81.0023 49.6458ZM76.244 3.47905L76.6223 3.33077L77.1798 3.11335L78.2449 2.71798L76.3635 7.37322C74.293 12.5127 72.093 17.9883 69.9429 23.4638C69.6343 24.2348 69.1963 24.3633 68.2506 24.3633H65.9909C62.8652 24.3633 60.1875 24.3633 57.8183 24.3633C57.0319 24.3633 56.8228 24.215 56.6636 24.0865C56.5043 23.958 56.355 23.79 56.4446 22.9202C56.4594 22.7757 56.4594 22.6299 56.4446 22.4854V22.258C56.4446 21.1708 56.3749 20.0243 56.2952 18.9174V18.7296C56.0862 16.14 55.8772 13.5011 56.9124 11.7023C57.9477 9.90345 60.3069 9.28078 62.8851 8.55927H63.0046C64.1645 8.26811 65.3049 7.90496 66.419 7.47203C68.5691 6.57262 70.7691 5.693 73.0487 4.7837L75.0396 4.01274L76.244 3.47905ZM32.3547 67.1794L36.1574 65.2719L40.2785 63.2061C40.6866 62.9986 41.045 63.2062 41.6323 63.4631L41.8513 63.5817C44.2504 64.7875 46.6792 65.9934 49.1081 67.1794L51.0294 68.1184H30.4733L32.3547 67.1794ZM27.2083 67.5649V56.2975L38.5365 61.9213L27.2083 67.5649ZM42.8965 61.9312L54.2646 56.2876V67.5649L42.8965 61.9312ZM44.8874 58.9661C43.5303 59.5454 42.0739 59.8608 40.597 59.8951C39.2114 59.8656 37.8437 59.5772 36.5655 59.0451C33.1106 57.7749 29.9771 55.7705 27.3841 53.1721C24.7912 50.5736 22.8014 47.444 21.5541 44.0022C20.9925 42.7379 20.7024 41.3712 20.7024 39.9894C20.7024 38.6076 20.9925 37.2409 21.5541 35.9766C22.7731 32.4133 24.8207 29.1855 27.5308 26.5547C30.241 23.9239 33.5374 21.9643 37.1528 20.8348C38.0589 20.5048 38.9375 20.105 39.7808 19.6388L40.7762 19.1051L41.0052 19.2336C41.3337 19.4017 41.6223 19.5598 41.921 19.6981C42.8515 20.2398 43.8314 20.6932 44.8476 21.0523C51.9949 23.3848 56.793 28.0993 59.9286 35.8778C61.1132 38.7935 61.0834 40.8888 59.8291 44.18C57.0618 51.3655 52.3334 56.0405 44.9173 58.9463L44.8874 58.9661ZM13.3914 31.8946C14.7453 34.5533 16.0891 37.2318 17.3732 39.8708L17.4429 39.9993V40.1475C17.3883 40.3669 17.2939 40.5745 17.1642 40.7603C17.0942 40.8615 17.031 40.9671 16.9751 41.0766L16.9253 41.1754C15.9232 43.2115 14.9012 45.2475 13.8593 47.2835L12.4259 50.1202V30.0563L13.3914 31.8946ZM12.8241 26.3696H15.462C18.1597 26.3696 20.6682 26.3696 23.1867 26.3696C23.3325 26.3587 23.4789 26.3587 23.6246 26.3696L24.2418 26.4388L24.0427 27.022C24.0046 27.1419 23.9546 27.2578 23.8934 27.3679C22.6292 29.7993 21.4048 32.2505 19.9116 35.1958C19.623 35.7592 19.3343 36.3423 19.0456 36.9156L18.5976 37.815L18.1198 36.9749L12.8241 26.3696ZM13.2123 52.9074C13.2491 52.8123 13.2923 52.7198 13.3417 52.6306C14.6358 50.1498 15.8801 47.6888 17.2637 44.8719L17.6122 44.1702L18.1696 43.0533L18.6275 42.1737L19.404 43.7452C19.5831 44.0911 19.7524 44.437 19.9216 44.7335L20.6781 46.2458C21.6736 48.2818 22.669 50.2487 23.6645 52.176C23.7922 52.4093 23.9052 52.6503 24.0029 52.8975L24.2319 53.5103L23.5749 53.5597H23.0174C21.8129 53.5102 20.5587 53.4905 19.175 53.4905H16.6963H14.1281C14.0124 53.5053 13.8953 53.5053 13.7797 53.4905H13.063L13.2123 52.9074ZM54.3541 22.9696V23.8889L53.5876 23.3848C53.5112 23.3279 53.4275 23.2814 53.3388 23.2464C51.6565 22.4261 50.0339 21.6156 48.3615 20.7755L42.8866 18.0575L54.374 12.3645V15.1418C54.4039 17.84 54.4039 20.3802 54.384 22.9499L54.3541 22.9696ZM48.9488 12.8784C46.2412 14.2325 43.7526 15.4679 41.2739 16.733C41.1222 16.8184 40.9506 16.8627 40.7762 16.8615C40.4032 16.8244 40.043 16.7063 39.7211 16.5156L33.4796 13.3825L30.5729 11.9395H50.89L48.9488 12.8784ZM35.8488 16.733C36.4328 17.0098 37.03 17.3063 37.6406 17.6226L38.4867 18.0674L26.9992 23.7703V21.1017C26.9992 18.4133 26.9992 15.9325 26.9992 13.4615C26.9992 13.2935 26.9992 13.1552 26.9992 13.0464L27.0689 12.3744L27.6961 12.6412L27.9847 12.7697C30.2643 13.936 32.6832 15.1418 35.8786 16.7133L35.8488 16.733ZM57.0717 26.5179H68.5094L62.8354 37.8248L57.0717 26.5179ZM62.7756 42.2231L68.4099 53.451H57.1016L62.7756 42.2231ZM67.1755 46.6016C66.1004 44.4963 65.0652 42.4702 64.0896 40.4638V40.4045C64.0046 40.0707 64.0509 39.7172 64.219 39.4161C65.3041 37.1923 66.4289 34.9783 67.5538 32.7545L68.9474 29.997V50.0312L67.1755 46.6016ZM74.2133 2.18429L68.808 4.3686C64.4679 6.10813 60.3766 7.74882 56.2555 9.31044C55.31 9.58824 54.3227 9.69861 53.3388 9.63656H53.1098C44.9372 9.63656 36.7447 9.63656 28.5919 9.63656C26.8271 9.65256 25.077 9.31646 23.4455 8.64819C20.0709 7.26448 16.7162 5.92029 13.1525 4.50693L7.17986 2.1052L74.2133 2.18429ZM10.216 5.45578C14.9941 7.37322 19.5135 9.18194 24.0726 10.961C24.869 11.2872 24.9984 11.6628 24.9984 12.6412V14.9244C24.9984 17.2965 24.9984 20.0441 24.9984 22.7522C25.0768 23.2218 24.9699 23.7032 24.6997 24.0964L24.6301 24.1656C24.2965 24.3382 23.9193 24.4104 23.545 24.3732H23.4554C20.6383 24.2842 17.1941 24.2842 13.3019 24.3732C12.8615 24.4323 12.4146 24.3278 12.0471 24.0797C11.6796 23.8316 11.4174 23.4574 11.311 23.029C9.32006 17.929 7.32919 12.829 5.1392 7.41273L3.25779 2.66858L10.216 5.45578ZM2.77999 6.80984L4.96 12.2261C6.67217 16.4958 8.38104 20.7788 10.0866 25.0749C10.2452 25.5999 10.3093 26.1487 10.2757 26.6958C10.2757 35.5516 10.2757 44.4041 10.2757 53.2533C10.3052 53.9026 10.2175 54.552 10.0169 55.1707C8.22508 59.6974 6.0351 65.0544 3.73562 70.3718L2.74017 72.5363L2.77999 6.80984ZM3.23789 77.2509L5.10934 72.5858C7.17987 67.466 9.3798 62.0102 11.5399 56.5248C11.8286 55.7934 12.2069 55.5364 13.1525 55.5364H14.5661C17.5524 55.5364 20.5388 55.5364 23.6246 55.5364C24.0357 55.4765 24.454 55.5794 24.7893 55.8231C24.869 55.8922 25.088 56.1195 25.0083 56.9695C24.999 57.1242 24.999 57.2794 25.0083 57.4341V57.5823C25.0083 58.798 25.0979 60.0434 25.1875 61.1405C25.3965 63.7201 25.6056 66.3689 24.5803 68.1777C23.555 69.9864 21.1062 70.6486 18.518 71.3899H18.3388C17.248 71.6747 16.1745 72.0212 15.1235 72.4276C12.3263 73.6038 9.45944 74.7305 6.53282 75.877L3.23789 77.2509ZM7.12013 77.8736L9.11103 76.9346C30.2444 67.1399 50.9198 67.1399 72.3021 76.9346L74.3626 77.8736H7.12013ZM70.5899 74.2067C66.0307 72.3881 61.6308 70.6387 57.221 68.9189C56.5839 68.662 56.4744 68.3259 56.4744 67.4561C56.4744 66.5863 56.4744 65.4794 56.4744 64.4218C56.4744 62.0794 56.4744 59.48 56.4247 57.0486C56.3687 56.6549 56.4494 56.254 56.6536 55.912C56.8374 55.7647 57.05 55.6571 57.2779 55.5958C57.5058 55.5346 57.7441 55.5211 57.9776 55.5562H58.1169C60.3567 55.5562 62.6163 55.5562 64.8163 55.5562H67.952C68.9474 55.5562 69.5248 55.5562 69.9429 56.5446C72.0034 61.7533 74.054 66.8335 76.3336 72.4474L78.3245 77.2805L70.5899 74.2067ZM78.7227 73.2183L77.7272 71.1428C77.349 70.2928 76.9607 69.4526 76.5725 68.6224C74.5816 64.2736 72.4514 59.7963 71.6948 55.2103C70.0997 45.1924 70.0829 34.9892 71.6451 24.9662C72.4315 19.8168 74.94 14.8255 77.3689 9.99242L78.6829 7.29413L78.7227 73.2183Z" fill="#0F172A"/>
</svg>
