<svg width="262" height="22" viewBox="0 0 262 22" fill="none" xmlns="http://www.w3.org/2000/svg">
<path d="M133.055 15.1326L133.375 15.3629C133.582 15.5164 133.899 15.7403 134.312 16.0314C135.52 16.8804 136.773 17.6652 138.064 18.3824C138.997 18.8975 139.958 19.3609 140.942 19.7706C141.48 19.9945 142.049 20.2088 142.647 20.4103C143.245 20.6118 143.879 20.7877 144.538 20.9413C145.197 21.0948 145.888 21.2227 146.604 21.3187C147.32 21.4147 148.066 21.4626 148.843 21.4818C149.035 21.4818 149.227 21.4818 149.422 21.4818H150.007L150.602 21.453C150.801 21.453 151.002 21.4211 151.204 21.4051C152.03 21.3297 152.852 21.2123 153.667 21.0532C154.516 20.8849 155.351 20.6561 156.168 20.3687C157.014 20.0688 157.829 19.6874 158.602 19.23C158.996 18.9924 159.376 18.7329 159.741 18.4527C160.106 18.1629 160.453 17.851 160.78 17.5188C161.438 16.8349 161.978 16.047 162.38 15.187C162.788 14.2954 163.034 13.3377 163.106 12.3594C163.106 12.2347 163.106 12.1099 163.125 11.9852C163.144 11.8604 163.125 11.7357 163.125 11.6109V11.4222C163.125 11.3582 163.125 11.2975 163.125 11.2335C163.125 11.1088 163.106 10.984 163.099 10.8593C163.043 10.3576 162.943 9.86198 162.799 9.37831C162.644 8.89146 162.441 8.42111 162.194 7.97412C161.942 7.51934 161.645 7.09075 161.308 6.69468C160.964 6.29063 160.587 5.91517 160.182 5.57197C159.765 5.22414 159.326 4.90362 158.867 4.61239C157.919 4.03062 156.907 3.56049 155.851 3.2114C154.773 2.84747 153.657 2.6092 152.525 2.50131C151.363 2.39798 150.194 2.41298 149.035 2.54609C147.852 2.69165 146.685 2.94431 145.548 3.30096C143.204 4.08874 140.951 5.12907 138.831 6.40361C136.631 7.66386 134.452 9.07444 132.172 10.4115L130.47 11.3934C129.907 11.7133 129.351 12.0523 128.794 12.385C127.681 13.0471 126.574 13.7092 125.464 14.3521C123.268 15.6473 121.006 16.8301 118.69 17.8962C117.548 18.4112 116.39 18.8814 115.219 19.278C114.057 19.6851 112.866 20.0058 111.656 20.2376C110.462 20.4679 109.248 20.575 108.032 20.5574H107.578L107.127 20.5254L106.903 20.5063H106.791H106.679L106.234 20.4455L106.011 20.4135C105.937 20.4135 105.867 20.3847 105.793 20.3719L105.355 20.2855C105.064 20.2344 104.776 20.148 104.491 20.0744C104.207 20.0009 103.925 19.8953 103.647 19.8026L103.439 19.729L103.234 19.6458L102.825 19.4699C102.689 19.412 102.557 19.3468 102.428 19.2748L102.038 19.0733C101.91 18.9997 101.788 18.9165 101.66 18.8398L101.475 18.7246L101.382 18.6639L101.293 18.5999C101.177 18.5103 101.059 18.424 100.941 18.3376C100.883 18.2928 100.822 18.2512 100.768 18.2033L100.605 18.0561L100.285 17.765L99.9844 17.4452L99.834 17.2853C99.786 17.2309 99.7413 17.1733 99.6965 17.1189C99.6037 17.007 99.5142 16.8918 99.4246 16.7799C99.335 16.6679 99.2615 16.5432 99.1783 16.4248L99.06 16.2457C99.0184 16.1849 98.9864 16.121 98.9512 16.0602L98.7401 15.686C98.6761 15.558 98.6217 15.4269 98.561 15.2989L98.4714 15.107C98.4426 15.043 98.4202 14.9759 98.3946 14.9087C98.3467 14.7776 98.2987 14.6432 98.2475 14.5121C98.1963 14.3809 98.1707 14.2434 98.1324 14.109L98.0748 13.9075C98.0556 13.8404 98.0428 13.7732 98.03 13.706L97.9436 13.2998C97.9213 13.1623 97.9053 13.0247 97.8861 12.8904L97.8573 12.6857C97.8573 12.6185 97.8573 12.5481 97.8413 12.481L97.8125 12.0747C97.8125 11.9372 97.8125 11.8028 97.8125 11.6685C97.8125 11.5342 97.8125 11.3966 97.8125 11.2655C97.8125 11.1343 97.8125 10.9968 97.8349 10.8625C97.8573 10.7281 97.8637 10.597 97.8765 10.4658L97.9021 10.2675V10.1684L97.9213 10.0724L97.9884 9.68218C98.367 7.67355 99.3294 5.82111 100.755 4.3565C101.43 3.6994 102.161 3.10221 102.94 2.57168C103.132 2.44693 103.32 2.31579 103.516 2.19744L104.101 1.85519C104.501 1.64728 104.891 1.43937 105.297 1.26664C106.08 0.916947 106.892 0.638609 107.725 0.43501C107.923 0.377436 108.128 0.342248 108.33 0.297468C108.531 0.252687 108.729 0.211108 108.931 0.18552L109.529 0.0959591L110.121 0.0351848C110.316 0.0127946 110.511 0.00639721 110.706 0H110.997H111.282H111.851H111.992H112.133L112.411 0.015994L112.686 0.0319831H112.824H112.961L113.498 0.0927574C113.678 0.10875 113.85 0.143937 114.026 0.169526C114.202 0.195114 114.372 0.223903 114.541 0.255889C115.798 0.493932 117.025 0.864921 118.204 1.3626C119.19 1.78824 120.141 2.29203 121.047 2.86915C122.293 3.67422 123.457 4.59871 124.524 5.62954C124.892 5.97819 125.164 6.26926 125.333 6.45158L125.605 6.73626L125.324 6.46118C125.138 6.27886 124.869 6.00378 124.489 5.66793C123.395 4.67747 122.21 3.79383 120.948 3.02908C120.035 2.48658 119.081 2.01602 118.095 1.62169C116.925 1.15525 115.709 0.814286 114.468 0.604536C114.301 0.575749 114.148 0.556557 113.962 0.534166C113.777 0.511776 113.62 0.479791 113.444 0.470195L112.92 0.425415H112.785H112.654H112.385H112.113H111.976H111.838H111.288C111.195 0.425415 111.103 0.425415 111.01 0.425415L110.728 0.444606C110.54 0.444606 110.351 0.466997 110.162 0.495785L109.59 0.566154L109.017 0.66531C108.822 0.694098 108.63 0.745275 108.438 0.790056C108.246 0.834836 108.048 0.873218 107.856 0.933992C107.061 1.14985 106.286 1.43564 105.54 1.78802C103.942 2.53566 102.492 3.5662 101.261 4.82989C101.11 4.99622 100.941 5.14975 100.81 5.33847L100.595 5.60396L100.397 5.88543L100.298 6.02617L100.205 6.17331L100.023 6.46758C99.962 6.56673 99.9076 6.67229 99.8532 6.78744C99.7988 6.90259 99.7349 6.98895 99.6901 7.1073C99.5909 7.32161 99.4822 7.52951 99.399 7.74702C99.3542 7.85577 99.3094 7.96453 99.2679 8.06688L99.1527 8.40593L99.0951 8.57546L99.044 8.75138L98.948 9.09683C98.9192 9.21518 98.8968 9.33353 98.868 9.45188C98.8392 9.57022 98.8137 9.68857 98.7977 9.80692L98.7401 10.1684L98.7241 10.2579V10.3507L98.7049 10.533C98.7049 10.6545 98.6761 10.7761 98.6729 10.8976C98.6697 11.0192 98.6729 11.1439 98.6569 11.2655C98.6409 11.387 98.6569 11.5118 98.6569 11.6333C98.6569 11.7549 98.6569 11.8828 98.6569 12.0044C98.6569 12.1259 98.6761 12.2507 98.6889 12.3754C98.6889 12.4362 98.6889 12.5001 98.7049 12.5609L98.7337 12.7432C98.7561 12.8648 98.7721 12.9895 98.7945 13.1111C98.8169 13.2326 98.8488 13.3542 98.8776 13.4757C98.8776 13.5365 98.9032 13.5973 98.9192 13.658L98.9736 13.8372C99.012 13.9555 99.044 14.0771 99.0855 14.1954L99.2199 14.5473C99.2455 14.6048 99.2647 14.6656 99.2903 14.72L99.3734 14.8895C99.4278 15.0047 99.479 15.1198 99.5366 15.2318L99.7285 15.5516C99.7604 15.606 99.7892 15.6604 99.8244 15.7147L99.9364 15.8683C100.007 15.9738 100.077 16.0794 100.154 16.1881L100.397 16.4792L100.522 16.6263L100.656 16.7639L100.925 17.039L101.219 17.2917L101.366 17.4164C101.416 17.4594 101.468 17.4989 101.523 17.5347L101.843 17.765C101.872 17.781 101.897 17.8034 101.923 17.8194L102.009 17.8706L102.175 17.973C102.287 18.0401 102.399 18.1137 102.514 18.1777L102.869 18.3536C102.986 18.4176 103.105 18.4752 103.228 18.5263L103.599 18.6798L103.787 18.7534L103.979 18.8174C104.234 18.9097 104.494 18.9887 104.757 19.0541C105.022 19.1213 105.284 19.198 105.556 19.2428L105.966 19.3196L106.167 19.3548L106.375 19.3803L106.788 19.4315H106.89H106.992H107.204L107.619 19.4603H108.042C109.183 19.4689 110.322 19.3617 111.442 19.1404C112.599 18.9149 113.739 18.6059 114.851 18.2161C115.977 17.8226 117.09 17.362 118.207 16.8502C120.446 15.8299 122.624 14.6112 124.822 13.3318C125.922 12.6921 127.022 12.0236 128.138 11.3582L129.821 10.3603L131.519 9.37831C133.758 8.06048 135.956 6.6531 138.198 5.37685C140.402 4.0672 142.744 3.00419 145.181 2.20704C146.389 1.83602 147.629 1.57691 148.885 1.43297C150.121 1.30668 151.368 1.30668 152.605 1.43297C153.82 1.55892 155.016 1.82732 156.168 2.23262C157.297 2.61848 158.377 3.13595 159.386 3.77435C159.883 4.09209 160.357 4.4437 160.806 4.82669C161.245 5.20427 161.653 5.6172 162.024 6.06135C162.392 6.50968 162.714 6.99407 162.984 7.50712C163.255 8.01772 163.475 8.55332 163.643 9.10643C163.8 9.65111 163.907 10.2089 163.963 10.7729C163.963 10.9104 163.963 11.0512 163.985 11.1887C163.985 11.2591 163.985 11.3295 163.985 11.3966V11.6045C163.985 11.7421 163.985 11.8796 163.985 12.0172C163.985 12.1547 163.985 12.2922 163.956 12.4298C163.862 13.5083 163.573 14.5606 163.102 15.5356C162.646 16.4721 162.035 17.3252 161.295 18.0593C160.939 18.4124 160.558 18.7405 160.156 19.0413C159.765 19.3349 159.356 19.6041 158.931 19.8473C158.11 20.3119 157.244 20.6944 156.347 20.9892C155.496 21.2726 154.624 21.4918 153.74 21.645C152.903 21.7902 152.058 21.8916 151.21 21.9488C151.005 21.9488 150.801 21.9808 150.596 21.984L149.985 22H149.384C149.185 22 148.987 21.984 148.792 21.9808C148.031 21.9453 147.273 21.8706 146.521 21.7569C145.792 21.6418 145.091 21.4914 144.423 21.3219C143.754 21.1524 143.121 20.9413 142.503 20.7302C141.886 20.519 141.329 20.2792 140.792 20.0393C139.815 19.5983 138.862 19.1039 137.939 18.5583C136.667 17.8003 135.437 16.9739 134.254 16.0826C133.848 15.7627 133.541 15.5452 133.336 15.3821L133.055 15.1326Z" fill="url(#paint0_linear_594_8005)"/>
<path d="M145.685 7.12329L145.394 7.16807C145.298 7.16807 145.183 7.19686 145.042 7.22245L144.566 7.30881C143.565 7.51327 142.582 7.7967 141.626 8.15644C140.219 8.69842 138.856 9.3475 137.548 10.098C136.061 10.9328 134.474 11.9404 132.779 12.9767C131.931 13.5013 131.096 14.0067 130.271 14.4737C129.858 14.7072 129.449 14.9311 129.046 15.1422L127.885 15.7627C126.382 16.5816 125.032 17.362 123.864 17.9698L123.439 18.1905L123.029 18.3952L122.278 18.763C121.798 18.9741 121.392 19.1596 121.05 19.3004C120.365 19.5627 119.984 19.7034 119.984 19.7034C119.984 19.7034 120.333 19.4955 120.966 19.1308C121.286 18.9421 121.654 18.699 122.092 18.4272L122.783 17.9666L123.161 17.7171L123.554 17.4484L125.313 16.2425C125.633 16.025 125.953 15.8011 126.302 15.574C126.65 15.3469 126.999 15.1134 127.367 14.8799C127.735 14.6464 128.125 14.4129 128.509 14.1826C128.892 13.9523 129.283 13.7188 129.679 13.4725L132.142 11.9468C133.737 10.941 135.385 10.0206 137.078 9.18959C138.476 8.51011 139.94 7.97427 141.447 7.59028C142.461 7.33233 143.498 7.17906 144.543 7.13289H145.033H145.391L145.685 7.12329Z" fill="url(#paint1_linear_594_8005)"/>
<path d="M142.688 2.91394L142.397 2.95552L142.045 3.0131L141.569 3.09946C140.567 3.30274 139.583 3.58619 138.626 3.94709C137.22 4.48913 135.858 5.13823 134.551 5.88864C133.064 6.72028 131.474 7.72784 129.779 8.76739C128.931 9.28876 128.096 9.79414 127.271 10.2611C126.862 10.4946 126.452 10.7217 126.046 10.9328L124.885 11.5502C123.382 12.3722 122.032 13.1495 120.864 13.7572L120.439 13.9811L120.029 14.1826L119.278 14.5505C118.801 14.7648 118.392 14.9503 118.053 15.0878C117.365 15.3533 116.984 15.4941 116.984 15.4941C116.984 15.4941 117.336 15.2829 117.966 14.9183C118.286 14.7328 118.654 14.4865 119.092 14.2146C119.31 14.0739 119.54 13.9203 119.783 13.7572L120.161 13.5077L120.554 13.239L122.313 12.03C122.633 11.8157 122.953 11.5886 123.302 11.3615C123.65 11.1344 123.999 10.9041 124.37 10.6706C124.741 10.4371 125.125 10.2036 125.512 9.97326C125.899 9.74296 126.286 9.50946 126.683 9.26317L129.145 7.73744C130.74 6.727 132.387 5.80338 134.081 4.97064C135.479 4.29086 136.943 3.755 138.45 3.37134C139.465 3.11634 140.502 2.96312 141.546 2.91394H142.036C142.177 2.91394 142.295 2.91394 142.394 2.91394H142.688Z" fill="url(#paint2_linear_594_8005)"/>
<path d="M261.6 12.3274C261.6 12.3274 260.199 4.72429 250.648 12.369C250.648 12.369 259.653 20.0936 261.6 12.3274ZM259.403 12.369C259.403 12.4168 259.394 12.4643 259.376 12.5087C259.359 12.5531 259.332 12.5936 259.298 12.6277C259.265 12.6619 259.225 12.6891 259.181 12.7078C259.137 12.7265 259.089 12.7364 259.042 12.7368C258.945 12.7368 258.851 12.6985 258.783 12.6302C258.714 12.5619 258.675 12.4692 258.674 12.3722C258.674 12.2754 258.712 12.1827 258.781 12.1143C258.849 12.0459 258.942 12.0075 259.038 12.0075C259.086 12.0067 259.134 12.0154 259.178 12.0332C259.223 12.051 259.263 12.0776 259.297 12.1113C259.331 12.145 259.358 12.1851 259.376 12.2294C259.394 12.2736 259.403 12.3211 259.403 12.369ZM253.006 12.3849C253.006 12.3849 253.623 10.0979 258.005 12.3658C258.015 12.3658 253.927 14.7135 253.015 12.3849H253.006Z" fill="url(#paint3_linear_594_8005)"/>
<path d="M249.94 13.4181C249.673 13.4181 249.417 13.3125 249.228 13.1244C249.039 12.9362 248.931 12.6807 248.93 12.4138C248.93 12.1468 249.035 11.8907 249.223 11.7013C249.412 11.5119 249.667 11.4047 249.934 11.403C250.201 11.403 250.457 11.5086 250.647 11.6968C250.836 11.885 250.943 12.1404 250.945 12.4074C250.945 12.5397 250.92 12.6708 250.869 12.7932C250.819 12.9156 250.745 13.0269 250.652 13.1208C250.559 13.2146 250.448 13.2892 250.326 13.3402C250.204 13.3912 250.073 13.4177 249.94 13.4181Z" fill="url(#paint4_linear_594_8005)"/>
<path d="M242.206 13.4438C242.074 13.4451 241.943 13.4201 241.82 13.3704C241.697 13.3206 241.586 13.2471 241.492 13.154C241.398 13.0609 241.323 12.9501 241.272 12.828C241.222 12.7059 241.195 12.5749 241.195 12.4427C241.194 12.3105 241.22 12.1795 241.27 12.0571C241.32 11.9347 241.393 11.8234 241.486 11.7295C241.579 11.6356 241.69 11.5609 241.812 11.5099C241.934 11.4588 242.064 11.4323 242.196 11.4319C242.463 11.431 242.719 11.5359 242.909 11.7236C243.098 11.9113 243.206 12.1664 243.207 12.4331C243.208 12.5652 243.183 12.6962 243.133 12.8186C243.083 12.941 243.009 13.0524 242.916 13.1463C242.823 13.2402 242.713 13.3148 242.591 13.3658C242.469 13.4169 242.338 13.4434 242.206 13.4438Z" fill="url(#paint5_linear_594_8005)"/>
<path d="M246.066 15.0909C246.066 15.0909 249.511 12.4233 249.479 12.4105C249.511 12.4105 246.044 9.75568 246.044 9.75568C245.644 10.6289 242.611 12.4329 242.618 12.4361C242.567 12.4585 245.656 14.2209 246.066 15.0909Z" fill="url(#paint6_linear_594_8005)"/>
<path d="M156.242 12.3946C150.021 7.4144 149.109 12.3658 149.109 12.3658C150.379 17.4228 156.242 12.3946 156.242 12.3946ZM150.779 12.1579C150.842 12.1579 150.902 12.1829 150.946 12.2273C150.991 12.2716 151.016 12.3319 151.016 12.3946C151.015 12.4577 150.989 12.5179 150.944 12.5622C150.899 12.6065 150.839 12.6313 150.776 12.6313C150.745 12.6318 150.714 12.6259 150.685 12.6141C150.656 12.6024 150.63 12.5849 150.609 12.5628C150.587 12.5407 150.57 12.5144 150.558 12.4855C150.547 12.4566 150.541 12.4257 150.542 12.3946C150.542 12.3634 150.548 12.3325 150.559 12.3035C150.571 12.2746 150.589 12.2484 150.611 12.2263C150.633 12.2042 150.659 12.1868 150.688 12.1751C150.717 12.1633 150.748 12.1575 150.779 12.1579ZM151.444 12.3914C154.301 10.9137 154.701 12.3914 154.701 12.3914C154.109 13.9204 151.444 12.3914 151.444 12.3914Z" fill="url(#paint7_linear_594_8005)"/>
<path d="M156.703 13.0726C156.788 13.0751 156.873 13.0605 156.953 13.0295C157.033 12.9985 157.106 12.9518 157.167 12.8921C157.229 12.8324 157.278 12.7611 157.311 12.6822C157.344 12.6033 157.361 12.5185 157.361 12.4328C157.362 12.2611 157.296 12.0959 157.176 11.9727C157.057 11.8495 156.893 11.7781 156.722 11.7739C156.55 11.7739 156.385 11.8406 156.262 11.9601C156.139 12.0795 156.068 12.2422 156.063 12.4136C156.06 12.4993 156.075 12.5845 156.106 12.6644C156.137 12.7442 156.184 12.817 156.243 12.8785C156.303 12.9399 156.374 12.9887 156.453 13.0221C156.532 13.0554 156.617 13.0726 156.703 13.0726Z" fill="url(#paint8_linear_594_8005)"/>
<path d="M242.207 12.0811H157.367V12.7944H242.207V12.0811Z" fill="url(#paint9_linear_594_8005)"/>
<path d="M11.3505 12.369C1.79942 4.72429 0.398438 12.3274 0.398438 12.3274C2.34639 20.0936 11.3505 12.369 11.3505 12.369ZM2.96052 12.0075C3.05723 12.0075 3.14997 12.0459 3.21836 12.1143C3.28674 12.1827 3.32516 12.2754 3.32516 12.3722C3.32431 12.4692 3.28519 12.5619 3.2163 12.6302C3.14741 12.6985 3.05433 12.7368 2.95732 12.7368C2.90943 12.7364 2.8621 12.7265 2.81802 12.7078C2.77394 12.6891 2.73397 12.6619 2.70041 12.6277C2.66685 12.5936 2.64034 12.5531 2.62241 12.5087C2.60447 12.4643 2.59545 12.4168 2.59588 12.369C2.59544 12.3211 2.6046 12.2736 2.62281 12.2294C2.64102 12.1851 2.66792 12.145 2.70191 12.1113C2.7359 12.0776 2.77629 12.051 2.82071 12.0332C2.86513 12.0154 2.91267 12.0067 2.96052 12.0075ZM3.98407 12.3658C8.36616 10.0979 8.98349 12.3849 8.98349 12.3849C8.07189 14.7135 3.98407 12.3658 3.98407 12.3658Z" fill="url(#paint10_linear_594_8005)"/>
<path d="M12.0591 13.4181C12.326 13.4181 12.5821 13.3125 12.7715 13.1244C12.9609 12.9362 13.0681 12.6807 13.0698 12.4138C13.0698 12.1468 12.9642 11.8907 12.776 11.7013C12.5879 11.5119 12.3324 11.4047 12.0655 11.403C11.7985 11.403 11.5424 11.5086 11.353 11.6968C11.1636 11.885 11.0564 12.1404 11.0547 12.4074C11.0543 12.5397 11.0799 12.6708 11.1302 12.7932C11.1804 12.9156 11.2543 13.0269 11.3475 13.1208C11.4408 13.2146 11.5516 13.2892 11.6737 13.3402C11.7958 13.3912 11.9267 13.4177 12.0591 13.4181Z" fill="url(#paint11_linear_594_8005)"/>
<path d="M19.7902 13.4438C19.9225 13.4451 20.0537 13.4201 20.1763 13.3704C20.2989 13.3206 20.4104 13.2471 20.5044 13.154C20.5984 13.0609 20.673 12.9501 20.7239 12.828C20.7748 12.7059 20.801 12.5749 20.801 12.4427C20.8018 12.3105 20.7766 12.1795 20.7267 12.0571C20.6768 11.9347 20.6032 11.8234 20.5102 11.7295C20.4172 11.6356 20.3066 11.5609 20.1847 11.5099C20.0628 11.4588 19.932 11.4323 19.7998 11.4319C19.5332 11.431 19.277 11.5359 19.0876 11.7236C18.8981 11.9113 18.7908 12.1664 18.7891 12.4331C18.7882 12.5652 18.8135 12.6962 18.8634 12.8186C18.9133 12.941 18.9868 13.0524 19.0799 13.1463C19.1729 13.2402 19.2835 13.3148 19.4054 13.3658C19.5273 13.4169 19.6581 13.4434 19.7902 13.4438Z" fill="url(#paint12_linear_594_8005)"/>
<path d="M15.9288 15.0909C15.9288 15.0909 12.4839 12.4233 12.5158 12.4105C12.4839 12.4105 15.9511 9.75568 15.9511 9.75568C16.351 10.6289 19.3832 12.4329 19.3768 12.4361C19.428 12.4585 16.3382 14.2209 15.9288 15.0909Z" fill="url(#paint13_linear_594_8005)"/>
<path d="M112.891 12.3658C112.891 12.3658 111.979 7.4144 105.758 12.3946C105.758 12.3946 111.621 17.4228 112.891 12.3658ZM111.458 12.3946C111.459 12.4257 111.453 12.4566 111.442 12.4855C111.43 12.5144 111.413 12.5407 111.391 12.5628C111.37 12.5849 111.344 12.6024 111.315 12.6141C111.286 12.6259 111.255 12.6318 111.224 12.6313C111.161 12.6313 111.101 12.6065 111.056 12.5622C111.011 12.5179 110.985 12.4577 110.984 12.3946C110.984 12.3319 111.009 12.2716 111.054 12.2273C111.098 12.1829 111.158 12.1579 111.221 12.1579C111.284 12.1579 111.344 12.1829 111.388 12.2273C111.433 12.2716 111.458 12.3319 111.458 12.3946ZM107.3 12.3946C107.3 12.3946 107.699 10.9041 110.556 12.3946C110.556 12.3914 107.891 13.9204 107.3 12.4042V12.3946Z" fill="url(#paint14_linear_594_8005)"/>
<path d="M105.3 13.0726C105.214 13.0751 105.129 13.0605 105.049 13.0295C104.969 12.9985 104.896 12.9518 104.835 12.8921C104.773 12.8324 104.724 12.7611 104.691 12.6822C104.658 12.6033 104.641 12.5185 104.641 12.4328C104.64 12.2611 104.706 12.0959 104.826 11.9727C104.946 11.8495 105.109 11.7781 105.28 11.7739C105.452 11.7739 105.617 11.8406 105.74 11.9601C105.863 12.0795 105.934 12.2422 105.939 12.4136C105.942 12.4993 105.927 12.5845 105.896 12.6644C105.865 12.7442 105.818 12.817 105.759 12.8785C105.699 12.9399 105.628 12.9887 105.549 13.0221C105.47 13.0554 105.385 13.0726 105.3 13.0726Z" fill="url(#paint15_linear_594_8005)"/>
<path d="M104.637 12.0811H19.7969V12.7944H104.637V12.0811Z" fill="url(#paint16_linear_594_8005)"/>
<defs>
<linearGradient id="paint0_linear_594_8005" x1="129.425" y1="-15.7241" x2="129.674" y2="19.3449" gradientUnits="userSpaceOnUse">
<stop stop-color="#6D2F3A"/>
<stop offset="0.26" stop-color="#A18151"/>
<stop offset="0.46" stop-color="#C79954"/>
<stop offset="0.72" stop-color="#E8DA9D"/>
<stop offset="1" stop-color="#C79954"/>
</linearGradient>
<linearGradient id="paint1_linear_594_8005" x1="132.262" y1="-1.86811" x2="132.472" y2="18.184" gradientUnits="userSpaceOnUse">
<stop stop-color="#6D2F3A"/>
<stop offset="0.26" stop-color="#A18151"/>
<stop offset="0.46" stop-color="#C79954"/>
<stop offset="0.72" stop-color="#E8DA9D"/>
<stop offset="1" stop-color="#C79954"/>
</linearGradient>
<linearGradient id="paint2_linear_594_8005" x1="129.264" y1="-6.07746" x2="129.473" y2="13.9746" gradientUnits="userSpaceOnUse">
<stop stop-color="#6D2F3A"/>
<stop offset="0.26" stop-color="#A18151"/>
<stop offset="0.46" stop-color="#C79954"/>
<stop offset="0.72" stop-color="#E8DA9D"/>
<stop offset="1" stop-color="#C79954"/>
</linearGradient>
<linearGradient id="paint3_linear_594_8005" x1="255.881" y1="4.07938" x2="256.025" y2="14.9642" gradientUnits="userSpaceOnUse">
<stop stop-color="#6D2F3A"/>
<stop offset="0.26" stop-color="#A18151"/>
<stop offset="0.46" stop-color="#C79954"/>
<stop offset="0.72" stop-color="#E8DA9D"/>
<stop offset="1" stop-color="#C79954"/>
</linearGradient>
<linearGradient id="paint4_linear_594_8005" x1="249.892" y1="9.96274" x2="249.961" y2="13.1736" gradientUnits="userSpaceOnUse">
<stop stop-color="#6D2F3A"/>
<stop offset="0.26" stop-color="#A18151"/>
<stop offset="0.46" stop-color="#C79954"/>
<stop offset="0.72" stop-color="#E8DA9D"/>
<stop offset="1" stop-color="#C79954"/>
</linearGradient>
<linearGradient id="paint5_linear_594_8005" x1="242.156" y1="9.99386" x2="242.225" y2="13.1997" gradientUnits="userSpaceOnUse">
<stop stop-color="#6D2F3A"/>
<stop offset="0.26" stop-color="#A18151"/>
<stop offset="0.46" stop-color="#C79954"/>
<stop offset="0.72" stop-color="#E8DA9D"/>
<stop offset="1" stop-color="#C79954"/>
</linearGradient>
<linearGradient id="paint6_linear_594_8005" x1="245.895" y1="5.94239" x2="246.036" y2="14.4451" gradientUnits="userSpaceOnUse">
<stop stop-color="#6D2F3A"/>
<stop offset="0.26" stop-color="#A18151"/>
<stop offset="0.46" stop-color="#C79954"/>
<stop offset="0.72" stop-color="#E8DA9D"/>
<stop offset="1" stop-color="#C79954"/>
</linearGradient>
<linearGradient id="paint7_linear_594_8005" x1="152.517" y1="6.99517" x2="152.611" y2="14.0833" gradientUnits="userSpaceOnUse">
<stop stop-color="#6D2F3A"/>
<stop offset="0.26" stop-color="#A18151"/>
<stop offset="0.46" stop-color="#C79954"/>
<stop offset="0.72" stop-color="#E8DA9D"/>
<stop offset="1" stop-color="#C79954"/>
</linearGradient>
<linearGradient id="paint8_linear_594_8005" x1="156.683" y1="10.8455" x2="156.727" y2="12.9152" gradientUnits="userSpaceOnUse">
<stop stop-color="#6D2F3A"/>
<stop offset="0.26" stop-color="#A18151"/>
<stop offset="0.46" stop-color="#C79954"/>
<stop offset="0.72" stop-color="#E8DA9D"/>
<stop offset="1" stop-color="#C79954"/>
</linearGradient>
<linearGradient id="paint9_linear_594_8005" x1="197.897" y1="11.5713" x2="197.898" y2="12.7084" gradientUnits="userSpaceOnUse">
<stop stop-color="#6D2F3A"/>
<stop offset="0.26" stop-color="#A18151"/>
<stop offset="0.46" stop-color="#C79954"/>
<stop offset="0.72" stop-color="#E8DA9D"/>
<stop offset="1" stop-color="#C79954"/>
</linearGradient>
<linearGradient id="paint10_linear_594_8005" x1="5.63051" y1="4.07938" x2="5.77531" y2="14.9642" gradientUnits="userSpaceOnUse">
<stop stop-color="#6D2F3A"/>
<stop offset="0.26" stop-color="#A18151"/>
<stop offset="0.46" stop-color="#C79954"/>
<stop offset="0.72" stop-color="#E8DA9D"/>
<stop offset="1" stop-color="#C79954"/>
</linearGradient>
<linearGradient id="paint11_linear_594_8005" x1="12.0174" y1="9.96274" x2="12.0859" y2="13.1736" gradientUnits="userSpaceOnUse">
<stop stop-color="#6D2F3A"/>
<stop offset="0.26" stop-color="#A18151"/>
<stop offset="0.46" stop-color="#C79954"/>
<stop offset="0.72" stop-color="#E8DA9D"/>
<stop offset="1" stop-color="#C79954"/>
</linearGradient>
<linearGradient id="paint12_linear_594_8005" x1="19.7502" y1="9.99386" x2="19.8186" y2="13.1997" gradientUnits="userSpaceOnUse">
<stop stop-color="#6D2F3A"/>
<stop offset="0.26" stop-color="#A18151"/>
<stop offset="0.46" stop-color="#C79954"/>
<stop offset="0.72" stop-color="#E8DA9D"/>
<stop offset="1" stop-color="#C79954"/>
</linearGradient>
<linearGradient id="paint13_linear_594_8005" x1="15.7937" y1="5.94239" x2="15.9348" y2="14.4451" gradientUnits="userSpaceOnUse">
<stop stop-color="#6D2F3A"/>
<stop offset="0.26" stop-color="#A18151"/>
<stop offset="0.46" stop-color="#C79954"/>
<stop offset="0.72" stop-color="#E8DA9D"/>
<stop offset="1" stop-color="#C79954"/>
</linearGradient>
<linearGradient id="paint14_linear_594_8005" x1="109.165" y1="6.99517" x2="109.26" y2="14.0833" gradientUnits="userSpaceOnUse">
<stop stop-color="#6D2F3A"/>
<stop offset="0.26" stop-color="#A18151"/>
<stop offset="0.46" stop-color="#C79954"/>
<stop offset="0.72" stop-color="#E8DA9D"/>
<stop offset="1" stop-color="#C79954"/>
</linearGradient>
<linearGradient id="paint15_linear_594_8005" x1="105.261" y1="10.8455" x2="105.305" y2="12.9152" gradientUnits="userSpaceOnUse">
<stop stop-color="#6D2F3A"/>
<stop offset="0.26" stop-color="#A18151"/>
<stop offset="0.46" stop-color="#C79954"/>
<stop offset="0.72" stop-color="#E8DA9D"/>
<stop offset="1" stop-color="#C79954"/>
</linearGradient>
<linearGradient id="paint16_linear_594_8005" x1="60.3271" y1="11.5713" x2="60.3273" y2="12.7084" gradientUnits="userSpaceOnUse">
<stop stop-color="#6D2F3A"/>
<stop offset="0.26" stop-color="#A18151"/>
<stop offset="0.46" stop-color="#C79954"/>
<stop offset="0.72" stop-color="#E8DA9D"/>
<stop offset="1" stop-color="#C79954"/>
</linearGradient>
</defs>
</svg>
