<svg width="194" height="190" viewBox="0 0 194 190" fill="none" xmlns="http://www.w3.org/2000/svg">
<path fill-rule="evenodd" clip-rule="evenodd" d="M64.6916 175.742H58.1289C52.9354 175.743 47.9218 173.84 44.0365 170.394C40.1513 166.948 37.6638 162.197 37.0446 157.041C36.4255 151.884 37.7178 146.68 40.6768 142.412C43.6359 138.144 48.0566 135.108 53.1026 133.88L22.3575 28.9361L1.3779 16.8236C0.747666 16.4593 0.287827 15.8598 0.0994344 15.1566C-0.0889585 14.4535 0.009508 13.7043 0.373197 13.0738C0.737461 12.4436 1.337 11.9837 2.0401 11.7952C2.74321 11.6068 3.49236 11.7051 4.123 12.0687L26.0552 24.7314C26.6666 25.0844 27.1184 25.6594 27.3167 26.3369L32.7767 44.9738H53.6693L45.965 16.2208C44.972 12.5146 47.1748 8.69887 50.881 7.70593L69.8465 2.62397C73.5528 1.63103 77.3681 3.83377 78.3614 7.54005L81.7759 20.284H97.9222C101.759 20.284 104.874 23.3989 104.874 27.2361V44.9738H112.491V18.8812C112.491 15.044 115.606 11.9287 119.443 11.9287H139.078C142.915 11.9287 146.03 15.044 146.03 18.8812V23.9051L157.825 3.47652C159.743 0.15338 163.999 -0.987012 167.322 0.93142L184.326 10.7487C187.648 12.6671 188.789 16.9228 186.87 20.2459L172.594 44.9738H190.986C191.402 44.9738 191.812 45.0683 192.186 45.2502C192.56 45.432 192.888 45.6965 193.145 46.0237C193.402 46.3508 193.581 46.732 193.669 47.1385C193.757 47.545 193.751 47.9662 193.652 48.3702L176.341 119.241C173.541 130.703 163.271 138.766 151.472 138.766H57.2187C57.105 138.79 56.9881 138.807 56.8693 138.817C56.8434 138.819 56.8175 138.822 56.7912 138.823C53.8021 139.078 50.9479 140.181 48.5648 142.003C46.1817 143.825 44.3688 146.29 43.3397 149.108C42.3106 151.926 42.1082 154.979 42.7562 157.908C43.4043 160.837 44.8758 163.52 46.9975 165.641C48.4593 167.103 50.1947 168.262 52.1046 169.053C54.0145 169.845 56.0616 170.252 58.1289 170.252H64.6916C66.0034 162.3 72.9167 156.227 81.2371 156.227C89.5579 156.227 96.4712 162.3 97.783 170.252H129.282C130.594 162.3 137.507 156.227 145.828 156.227C155.083 156.227 162.597 163.741 162.597 172.997C162.597 182.252 155.083 189.766 145.828 189.766C137.507 189.766 130.594 183.693 129.282 175.742H97.783C96.4712 183.693 89.5579 189.766 81.2371 189.766C72.9167 189.766 66.0034 183.693 64.6916 175.742ZM34.3854 50.464L58.6465 133.276H151.472C160.74 133.276 168.808 126.942 171.008 117.938L187.489 50.464H34.3854ZM59.3532 44.9738H71.3355V27.2361C71.3355 24.1338 73.3716 21.5036 76.1795 20.6099L73.0583 8.96122C72.9577 8.58671 72.7126 8.26742 72.3768 8.07352C72.041 7.87961 71.6419 7.82696 71.2673 7.92711L52.3022 13.0091C51.9277 13.1096 51.6084 13.3547 51.4145 13.6905C51.2206 14.0264 51.1679 14.4254 51.2681 14.8L59.3532 44.9738ZM76.8257 44.9738H99.3842V27.2361C99.384 26.8485 99.2299 26.4767 98.9557 26.2026C98.6816 25.9285 98.3099 25.7744 97.9222 25.7742H78.2877C77.9 25.7744 77.5283 25.9285 77.2542 26.2026C76.98 26.4767 76.826 26.8485 76.8257 27.2361V44.9738ZM117.981 44.9738H140.54V18.8812C140.54 18.4934 140.386 18.1215 140.111 17.8473C139.837 17.5731 139.465 17.419 139.078 17.4189H119.443C119.056 17.419 118.684 17.5731 118.409 17.8473C118.135 18.1215 117.981 18.4934 117.981 18.8812V44.9738ZM146.03 44.9738H166.254L182.116 17.5008C182.309 17.1649 182.362 16.7659 182.262 16.3913C182.161 16.0167 181.916 15.6973 181.581 15.5032L164.577 5.68632C164.241 5.4925 163.842 5.44001 163.467 5.54039C163.092 5.64077 162.773 5.8858 162.579 6.22162L146.03 34.8855V44.9738ZM92.5167 172.997C92.5167 166.771 87.4626 161.717 81.2371 161.717C75.012 161.717 69.9579 166.771 69.9579 172.997C69.9579 179.222 75.012 184.276 81.2371 184.276C87.4626 184.276 92.5167 179.222 92.5167 172.997ZM134.548 172.997C134.548 179.222 139.602 184.276 145.828 184.276C152.053 184.276 157.107 179.222 157.107 172.997C157.107 166.771 152.053 161.717 145.828 161.717C139.602 161.717 134.548 166.771 134.548 172.997ZM97.3148 69.393V76.7161C97.3148 80.2522 94.4442 83.1228 90.9081 83.1228H83.585C80.0489 83.1228 77.1783 80.2522 77.1783 76.7161V69.393C77.1783 65.8569 80.0489 62.9863 83.585 62.9863H90.9081C94.4442 62.9863 97.3148 65.8569 97.3148 69.393ZM91.8246 69.393C91.8245 69.15 91.7279 68.9169 91.556 68.7451C91.3842 68.5732 91.1511 68.4766 90.9081 68.4765H83.585C83.3419 68.4766 83.1089 68.5732 82.937 68.7451C82.7652 68.9169 82.6686 69.15 82.6685 69.393V76.7161C82.6686 76.9592 82.7652 77.1922 82.937 77.3641C83.1089 77.5359 83.3419 77.6325 83.585 77.6326H90.9081C91.1511 77.6325 91.3842 77.5359 91.556 77.3641C91.7279 77.1922 91.8245 76.9592 91.8246 76.7161V69.393ZM82.5234 118.889C82.2895 119.579 81.7915 120.147 81.1389 120.47C80.4862 120.792 79.7322 120.842 79.0426 120.609C78.3532 120.375 77.7849 119.877 77.4625 119.224C77.1402 118.571 77.0901 117.817 77.3234 117.128C81.8391 103.798 95.1312 94.0699 110.856 94.0699C126.58 94.0699 139.872 103.798 144.388 117.128C144.621 117.817 144.571 118.571 144.249 119.224C143.926 119.877 143.358 120.375 142.668 120.609C141.979 120.842 141.225 120.792 140.572 120.47C139.92 120.147 139.422 119.579 139.188 118.889C135.382 107.655 124.108 99.5601 110.856 99.5601C97.603 99.5601 86.3293 107.655 82.5234 118.889ZM144.533 69.393V76.7161C144.533 80.2522 141.662 83.1228 138.126 83.1228H130.803C127.267 83.1228 124.396 80.2522 124.396 76.7161V69.393C124.396 65.8569 127.267 62.9863 130.803 62.9863H138.126C141.662 62.9863 144.533 65.8569 144.533 69.393ZM139.043 69.393C139.043 69.15 138.946 68.9169 138.774 68.7451C138.602 68.5732 138.369 68.4766 138.126 68.4765H130.803C130.56 68.4766 130.327 68.5732 130.155 68.7451C129.983 68.9169 129.887 69.15 129.887 69.393V76.7161C129.887 76.9592 129.983 77.1922 130.155 77.3641C130.327 77.5359 130.56 77.6325 130.803 77.6326H138.126C138.369 77.6325 138.602 77.5359 138.774 77.3641C138.946 77.1922 139.043 76.9592 139.043 76.7161V69.393Z" fill="#E6E9ED"/>
</svg>
