<svg width="30" height="30" viewBox="0 0 30 30" fill="none" xmlns="http://www.w3.org/2000/svg">
<path d="M15.0079 25C14.6766 25 14.3588 24.8683 14.1246 24.634C13.8903 24.3996 13.7587 24.0818 13.7587 23.7504V15.5154L10.8856 18.3895C10.6516 18.6223 10.3349 18.7529 10.0049 18.7529C9.67492 18.7529 9.35832 18.6223 9.12427 18.3895C9.00719 18.2734 8.91426 18.1352 8.85084 17.9829C8.78742 17.8306 8.75477 17.6673 8.75477 17.5023C8.75477 17.3373 8.78742 17.174 8.85084 17.0217C8.91426 16.8695 9.00719 16.7312 9.12427 16.6151L14.1209 11.6166H14.1834C14.2835 11.5311 14.3976 11.4635 14.5207 11.4167C14.8248 11.2917 15.1659 11.2917 15.47 11.4167C15.6175 11.4803 15.7527 11.5691 15.8698 11.6791L20.8664 16.6776C20.9835 16.7937 21.0765 16.9319 21.1399 17.0842C21.2033 17.2365 21.2359 17.3998 21.2359 17.5648C21.2359 17.7297 21.2033 17.8931 21.1399 18.0454C21.0765 18.1976 20.9835 18.3358 20.8664 18.452C20.6324 18.6848 20.3158 18.8154 19.9858 18.8154C19.6558 18.8154 19.3392 18.6848 19.1051 18.452L16.257 15.5154V23.7504C16.257 24.0818 16.1254 24.3996 15.8911 24.634C15.6569 24.8683 15.3392 25 15.0079 25ZM25.4884 21.7385C25.2098 21.7399 24.9387 21.6481 24.7183 21.4777C24.4978 21.3073 24.3406 21.0681 24.2717 20.798C24.2028 20.528 24.2261 20.2427 24.3379 19.9874C24.4497 19.7321 24.6436 19.5216 24.8888 19.3892C25.8619 18.8582 26.631 18.0186 27.0748 17.0025C27.4064 16.2424 27.5438 15.4117 27.4745 14.5853C27.4052 13.7589 27.1314 12.9627 26.6779 12.2685C26.2243 11.5743 25.6052 11.0039 24.8764 10.6087C24.1476 10.2134 23.3319 10.0059 22.5029 10.0046H20.9289C20.6452 10.0136 20.367 9.92566 20.1399 9.75531C19.9128 9.58496 19.7506 9.34234 19.6797 9.0674C19.3424 7.78295 18.7172 6.59219 17.8515 5.58541C16.9858 4.57863 15.9022 3.78226 14.6831 3.25668C13.5035 2.72253 12.2172 2.46604 10.9231 2.50691C9.61439 2.56254 8.3344 2.90826 7.17557 3.5191C5.99753 4.1387 4.97642 5.01913 4.19006 6.09331C3.41243 7.15935 2.88599 8.3876 2.65019 9.68604C2.41439 10.9845 2.47534 12.3195 2.82847 13.591C3.18379 14.8678 3.82451 16.0471 4.70222 17.0399C4.92916 17.2885 5.0481 17.6171 5.03287 17.9534C5.01764 18.2897 4.8695 18.6061 4.62102 18.8331C4.37255 19.0602 4.0441 19.1791 3.70793 19.1639C3.37176 19.1487 3.05541 19.0005 2.82847 18.7519C1.69235 17.476 0.863952 15.9563 0.407011 14.3099C-0.0499307 12.6634 -0.12324 10.9341 0.192724 9.25484C0.489735 7.57917 1.16509 5.99341 2.16736 4.61832C3.16962 3.24322 4.47237 2.11507 5.97637 1.31978C7.47777 0.524683 9.13822 0.076329 10.8356 0.00768333C13.2312 -0.0809263 15.5924 0.598809 17.5745 1.94766C19.5566 3.29651 21.0558 5.24384 21.8533 7.50538H22.5029C24.1691 7.5049 25.788 8.05988 27.1037 9.0826C28.4194 10.1053 29.357 11.5375 29.7682 13.1528C30.1794 14.7681 30.0408 16.4744 29.3743 18.0021C28.7078 19.5297 27.5515 20.7917 26.088 21.5885C25.9026 21.6847 25.6972 21.7361 25.4884 21.7385Z" fill="#94A3B8"/>
</svg>
