<svg width="17" height="18" viewBox="0 0 17 18" fill="none" xmlns="http://www.w3.org/2000/svg">
<path d="M16.0724 9.00423C16.0724 8.4381 16.0268 7.87196 15.9357 7.31738H8.20312V10.5178H12.6331C12.4509 11.5461 11.8587 12.4704 10.9932 13.048V15.1277H13.6353C15.1841 13.6835 16.0724 11.5461 16.0724 9.00423Z" fill="#4285F4"/>
<path d="M8.20345 17.1383C10.4128 17.1383 12.2804 16.3989 13.6356 15.128L10.9936 13.0483C10.2533 13.5567 9.30811 13.8455 8.20345 13.8455C6.06248 13.8455 4.25176 12.3782 3.60263 10.4141H0.880859V12.5631C2.27022 15.3706 5.10587 17.1383 8.20345 17.1383Z" fill="#34A853"/>
<path d="M3.60208 10.4132C3.26038 9.38491 3.26038 8.26419 3.60208 7.22436V5.08691H0.879877C-0.293292 7.43232 -0.293292 10.2052 0.879877 12.5506L3.60208 10.4132Z" fill="#FBBC04"/>
<path d="M8.20345 3.79332C9.37644 3.77021 10.5039 4.22081 11.3466 5.04113L13.6926 2.66105C12.2007 1.2515 10.2419 0.477395 8.20345 0.500503C5.10587 0.500503 2.27022 2.27978 0.880859 5.08734L3.60263 7.23634C4.25176 5.26065 6.06248 3.79332 8.20345 3.79332Z" fill="#EA4335"/>
</svg>
