<svg width="34" height="21" viewBox="0 0 34 21" fill="none" xmlns="http://www.w3.org/2000/svg">
<path d="M23.249 0.800781C28.8383 0.800781 33.369 5.27791 33.3691 10.8008C33.3691 16.3238 28.8383 20.8018 23.249 20.8018C20.7432 20.8017 18.452 19.8989 16.6846 18.4082C14.9171 19.8988 12.6259 20.8018 10.1201 20.8018C4.53091 20.8016 0 16.3237 0 10.8008C0.000138739 5.27799 4.53099 0.80091 10.1201 0.800781C12.6256 0.800781 14.9172 1.70217 16.6846 3.19238C18.4519 1.70208 20.7435 0.800823 23.249 0.800781Z" fill="#ED0006"/>
<path d="M23.251 0.800781C28.8402 0.800781 33.3719 5.27791 33.3721 10.8008C33.3721 16.3238 28.8403 20.8018 23.251 20.8018C20.7446 20.8017 18.4531 19.8985 16.6855 18.4072C18.8599 16.573 20.2402 13.8472 20.2402 10.8008C20.2402 7.75413 18.8602 5.02752 16.6855 3.19336C18.453 1.7025 20.745 0.800879 23.251 0.800781Z" fill="#F9A000"/>
<path d="M16.6846 3.19238C18.8599 5.02656 20.2402 7.75364 20.2402 10.8008C20.2402 13.8477 18.8595 16.574 16.6846 18.4082C14.5098 16.574 13.1289 13.8476 13.1289 10.8008C13.129 7.75375 14.5094 5.02655 16.6846 3.19238Z" fill="#FF5E00"/>
</svg>
