<svg width="48" height="50" viewBox="0 0 48 50" fill="none" xmlns="http://www.w3.org/2000/svg">
<g clip-path="url(#clip0_474_16190)">
<g clip-path="url(#clip1_474_16190)">
<g clip-path="url(#clip2_474_16190)">
<mask id="mask0_474_16190" style="mask-type:luminance" maskUnits="userSpaceOnUse" x="0" y="0" width="48" height="49">
<path d="M48 0.734375H0V48.7493H48V0.734375Z" fill="white"/>
</mask>
<g mask="url(#mask0_474_16190)">
<path d="M24.0008 37.946C31.0838 37.946 36.8258 32.2023 36.8258 25.1171C36.8258 18.0318 31.0838 12.2881 24.0008 12.2881C16.9177 12.2881 11.1758 18.0318 11.1758 25.1171C11.1758 32.2023 16.9177 37.946 24.0008 37.946Z" stroke="white" stroke-miterlimit="10" stroke-linecap="round" stroke-linejoin="round"/>
<path d="M26.8508 28.2676C26.6258 28.6427 26.3258 28.8678 25.8758 29.0929C25.4258 29.3179 24.9758 29.3929 24.3758 29.468V30.3683C24.3758 30.4433 24.3758 30.5933 24.3008 30.5933C24.2258 30.6683 24.1508 30.6683 24.0008 30.6683C23.9258 30.6683 23.7758 30.6683 23.7758 30.5933C23.7008 30.5183 23.7008 30.4433 23.7008 30.2932V29.3929C22.8008 29.3179 21.9758 29.1679 21.2258 28.7928C21.1508 28.7177 21.0758 28.7177 21.0008 28.5677C20.9258 28.4927 20.9258 28.3426 20.9258 28.2676C20.9258 28.1176 21.0008 28.0425 21.0758 27.8925C21.1508 27.8175 21.3008 27.7424 21.4508 27.7424C21.5258 27.7424 21.6008 27.7424 21.6758 27.8175C22.3508 28.1176 23.0258 28.2676 23.7758 28.2676V25.4917C23.2508 25.3417 22.7258 25.1916 22.3508 25.0416C21.9758 24.8916 21.6758 24.6665 21.3758 24.2914C21.1508 23.9913 21.0008 23.6162 21.0008 23.091C21.0008 22.6409 21.0758 22.2657 21.3008 21.8906C21.5258 21.5155 21.8258 21.2154 22.2008 20.9903C22.5758 20.7653 23.1008 20.6152 23.7008 20.5402V19.7149C23.7008 19.6399 23.7008 19.4899 23.7758 19.4148C23.8508 19.3398 23.9258 19.3398 24.0008 19.3398C24.0758 19.3398 24.2258 19.3398 24.3008 19.4148C24.3758 19.4899 24.3758 19.5649 24.3758 19.7149V20.5402C25.2008 20.5402 25.8758 20.6902 26.4758 20.9153C26.7008 20.9903 26.8508 21.1404 26.8508 21.3655C26.8508 21.5155 26.7758 21.5905 26.7008 21.7406C26.6258 21.8156 26.4758 21.8906 26.3258 21.8906C26.2508 21.8906 26.1758 21.8906 26.1008 21.8156C25.5758 21.5905 24.9758 21.5155 24.3008 21.5155V24.4414C24.9008 24.5915 25.3508 24.7415 25.7258 24.8916C26.1008 25.0416 26.4008 25.2667 26.7008 25.6418C26.9258 25.9419 27.0758 26.392 27.0758 26.9172C27.1508 27.5174 27.0758 27.8925 26.8508 28.2676ZM22.4258 23.9913C22.7258 24.2163 23.1008 24.3664 23.6258 24.5164V21.8156C23.1758 21.8906 22.7258 22.0407 22.4258 22.2657C22.1258 22.4908 21.9758 22.7909 21.9758 23.166C22.0508 23.5411 22.1258 23.7662 22.4258 23.9913ZM26.1008 27.0672C26.1008 26.7671 25.9508 26.5421 25.6508 26.317C25.3508 26.1669 24.9008 25.9419 24.3758 25.7918V28.4176C25.5008 28.3426 26.1008 27.8925 26.1008 27.0672Z" fill="white"/>
<path d="M28.4246 40.1973H38.6246V36.8213L46.8746 42.373L38.6246 47.9998V44.5487H25.7246" stroke="white" stroke-miterlimit="10" stroke-linecap="round" stroke-linejoin="round"/>
<path d="M19.575 9.28679H9.375V12.6628L1.125 7.11111L9.375 1.48438V4.93544H22.275" stroke="white" stroke-miterlimit="10" stroke-linecap="round" stroke-linejoin="round"/>
</g>
</g>
</g>
</g>
<defs>
<clipPath id="clip0_474_16190">
<rect width="48" height="49" fill="white" transform="translate(0 0.199219)"/>
</clipPath>
<clipPath id="clip1_474_16190">
<rect width="48" height="49" fill="white" transform="translate(0 0.199219)"/>
</clipPath>
<clipPath id="clip2_474_16190">
<rect width="48" height="49" fill="white" transform="translate(0 0.199219)"/>
</clipPath>
</defs>
</svg>
