<svg width="228" height="200" viewBox="0 0 228 200" fill="none" xmlns="http://www.w3.org/2000/svg">
<path d="M113.999 200C176.678 200 227.489 197.04 227.489 193.389C227.489 189.739 176.678 186.779 113.999 186.779C51.3208 186.779 0.509766 189.739 0.509766 193.389C0.509766 197.04 51.3208 200 113.999 200Z" fill="#F5F5F5" fill-opacity="0.2"/>
<path d="M41.4844 148.105H116.664V186.827C116.664 187.323 116.566 187.814 116.376 188.272C116.186 188.731 115.907 189.147 115.555 189.498C115.203 189.849 114.786 190.127 114.326 190.317C113.867 190.507 113.374 190.605 112.877 190.605H45.2715C44.7741 190.605 44.2817 190.507 43.8222 190.317C43.3627 190.127 42.9453 189.849 42.5936 189.498C42.2419 189.147 41.963 188.731 41.7727 188.272C41.5823 187.814 41.4844 187.323 41.4844 186.827V148.105Z" fill="#E8E8E8"/>
<path d="M41.4829 148.105H94.6836L88.1396 139.749C87.4196 138.832 85.6402 138.091 84.1593 138.091H36.3144C34.8394 138.091 34.2189 138.832 34.9389 139.749L41.4829 148.105Z" fill="#E6E9ED"/>
<path opacity="0.2" d="M41.4829 148.105H94.6836L88.1396 139.749C87.4196 138.832 85.6402 138.091 84.1593 138.091H36.3144C34.8394 138.091 34.2189 138.832 34.9389 139.749L41.4829 148.105Z" fill="black"/>
<path d="M116.664 148.106H63.4688L70.0127 142.657C70.7327 142.073 72.5121 141.577 73.993 141.577H121.832C123.313 141.577 123.928 142.062 123.208 142.657L116.664 148.106Z" fill="#E6E9ED"/>
<path opacity="0.6" d="M63.4688 148.105H116.664V186.827C116.664 187.323 116.566 187.814 116.375 188.272C116.185 188.731 115.906 189.147 115.554 189.498C115.203 189.849 114.785 190.127 114.326 190.317C113.866 190.507 113.374 190.605 112.876 190.605H67.2558C66.7585 190.605 66.2661 190.507 65.8066 190.317C65.3471 190.127 64.9296 189.849 64.578 189.498C64.2263 189.147 63.9473 188.731 63.757 188.272C63.5667 187.814 63.4688 187.323 63.4688 186.827V148.105Z" fill="#B8B8B8"/>
<path opacity="0.5" d="M48.0859 148.105V174.663L49.9239 173.215L51.2175 174.663L52.3413 173.051L53.4944 174.663L55.0982 173.454L56.8659 174.663V148.105H48.0859Z" fill="white"/>
<path d="M59.9863 90.1721L50.5332 82.2539" stroke="#E6E9ED" stroke-miterlimit="10"/>
<path d="M64.8857 94.2769L62.0059 91.8594" stroke="#E6E9ED" stroke-miterlimit="10"/>
<path d="M93.2033 110.85L124.39 71.9651L82.8664 37.1855L55.3558 68.6775L51.2585 76.5549C51.0551 76.7785 50.9001 77.0416 50.8032 77.3277C50.7064 77.6138 50.6697 77.9167 50.6955 78.2176C50.7213 78.5185 50.8091 78.8108 50.9533 79.0763C51.0975 79.3418 51.2951 79.5748 51.5336 79.7607L88.9948 111.142C89.6039 111.631 90.376 111.873 91.1564 111.819C91.9368 111.765 92.6679 111.419 93.2033 110.85Z" fill="#E6E9ED"/>
<path opacity="0.5" d="M71.8137 82.1719L67.3242 89.3836L69.1329 89.7748L69.7475 91.4449L70.9474 91.5149L71.5035 92.9456L72.9727 93.3719L74.1023 95.1646L78.5918 87.9529L71.8137 82.1719Z" fill="white"/>
<path opacity="0.1" d="M123.031 70.8264L95.0643 101.95L55.3379 68.6775L82.866 37.1855L123.031 70.8264Z" fill="black"/>
<path d="M123.032 70.8262L95.0645 101.95L106.642 102.803L134.176 71.3108L123.032 70.8262Z" fill="#E6E9ED"/>
<path opacity="0.3" d="M123.032 70.8262L95.0645 101.95L106.642 102.803L134.176 71.3108L123.032 70.8262Z" fill="black"/>
<path d="M71.7268 36.6953L43.7539 67.8252L55.3376 68.6778L82.8657 37.1858L71.7268 36.6953Z" fill="#E6E9ED"/>
<path opacity="0.4" d="M71.7268 36.6953L43.7539 67.8252L55.3376 68.6778L82.8657 37.1858L71.7268 36.6953Z" fill="black"/>
<path opacity="0.1" d="M114.421 80.4089L123.031 70.8264L82.8658 37.1855L77.7266 49.5417L114.421 80.4089Z" fill="black"/>
<path opacity="0.2" d="M55.3379 68.6775L82.866 37.1855L77.7268 49.5417L58.3406 71.1943L55.3379 68.6775Z" fill="black"/>
<path d="M132.73 12.2282C132.841 12.6019 132.73 12.9698 132.484 13.0399C132.238 13.11 131.951 12.8647 131.84 12.491C131.729 12.1173 131.84 11.7494 132.086 11.6735C132.332 11.5976 132.624 11.8545 132.73 12.2282Z" fill="#263238"/>
<path d="M132.771 12.9629C132.66 14.2477 132.373 15.5112 131.916 16.7176C132.229 16.8259 132.562 16.8648 132.891 16.8315C133.221 16.7982 133.539 16.6936 133.824 16.5249L132.771 12.9629Z" fill="#ED847E"/>
<path d="M133.509 9.73452C133.558 9.70601 133.596 9.6603 133.614 9.60605C133.625 9.57776 133.63 9.5475 133.629 9.51717C133.628 9.48683 133.62 9.45706 133.607 9.4297C133.594 9.40233 133.575 9.37794 133.552 9.35806C133.529 9.33817 133.502 9.32321 133.473 9.31408C133.131 9.18292 132.761 9.1362 132.396 9.17788C132.032 9.21956 131.682 9.3484 131.378 9.5535C131.338 9.59355 131.315 9.64651 131.311 9.70264C131.307 9.75877 131.324 9.81431 131.358 9.85905C131.393 9.9038 131.442 9.93473 131.497 9.94618C131.552 9.95763 131.61 9.94883 131.659 9.92138C131.902 9.76228 132.18 9.66338 132.469 9.63291C132.758 9.60244 133.05 9.64128 133.321 9.7462C133.352 9.75724 133.384 9.76191 133.416 9.7599C133.448 9.75789 133.48 9.74925 133.509 9.73452Z" fill="#263238"/>
<path d="M145.749 14.7268C146.006 17.8217 146.773 23.4859 148.605 24.7939C148.605 24.7939 148.172 28.5137 141.581 29.4655C134.358 30.5283 137.601 26.3939 137.601 26.3939C141.4 24.8757 140.867 21.9735 139.778 19.3341L142.564 16.1458C143.636 14.9662 145.608 13.1443 145.749 14.7268Z" fill="#FFC3BD"/>
<path d="M150.963 26.3072C151.548 25.7758 150.377 23.6502 149.658 23.3524C147.773 22.5641 140.064 23.3524 137.167 25.8342C136.926 26.2448 136.781 26.7038 136.741 27.1777C136.702 27.6516 136.769 28.1283 136.938 28.5728L150.963 26.3072Z" fill="white"/>
<path d="M175.513 182.394C175.323 182.481 175.117 182.528 174.908 182.534C174.699 182.54 174.491 182.505 174.295 182.429C174.218 182.368 174.162 182.285 174.134 182.191C174.105 182.097 174.107 181.997 174.137 181.904C174.153 181.827 174.185 181.755 174.232 181.693C174.278 181.63 174.338 181.579 174.407 181.542C175.039 181.174 176.602 181.658 176.666 181.682C176.688 181.687 176.707 181.699 176.721 181.716C176.736 181.733 176.745 181.753 176.748 181.775C176.751 181.798 176.747 181.822 176.737 181.843C176.726 181.863 176.71 181.881 176.689 181.892C176.315 182.099 175.921 182.267 175.513 182.394ZM174.658 181.682L174.524 181.74C174.484 181.762 174.449 181.792 174.422 181.828C174.394 181.864 174.375 181.906 174.366 181.95C174.325 182.161 174.407 182.225 174.43 182.242C174.711 182.441 175.665 182.155 176.327 181.822C175.788 181.653 175.218 181.605 174.658 181.682Z" fill="#E6E9ED"/>
<path d="M176.664 181.897C176.645 181.903 176.625 181.903 176.606 181.897C176.02 181.78 174.797 181.051 174.733 180.502C174.723 180.415 174.745 180.328 174.793 180.256C174.841 180.183 174.913 180.13 174.996 180.105C175.077 180.068 175.165 180.05 175.254 180.05C175.342 180.05 175.43 180.068 175.511 180.105C176.19 180.385 176.717 181.693 176.734 181.745C176.746 181.763 176.752 181.783 176.752 181.804C176.752 181.825 176.746 181.845 176.734 181.862C176.726 181.873 176.716 181.882 176.703 181.888C176.691 181.894 176.678 181.897 176.664 181.897ZM175.142 180.303C175.125 180.298 175.107 180.298 175.09 180.303C174.955 180.361 174.961 180.432 174.967 180.461C175.002 180.788 175.833 181.378 176.424 181.594C176.249 181.214 175.839 180.478 175.423 180.303C175.333 180.268 175.233 180.268 175.142 180.303Z" fill="#E6E9ED"/>
<path d="M141.206 188.665C140.58 188.665 139.977 188.578 139.772 188.297C139.72 188.224 139.691 188.136 139.691 188.046C139.691 187.956 139.72 187.868 139.772 187.795C139.811 187.727 139.863 187.668 139.926 187.621C139.988 187.574 140.059 187.54 140.135 187.521C140.949 187.305 142.658 188.274 142.728 188.315C142.75 188.325 142.767 188.342 142.779 188.364C142.79 188.385 142.794 188.409 142.79 188.433C142.786 188.457 142.774 188.479 142.757 188.495C142.739 188.512 142.717 188.522 142.693 188.525C142.202 188.616 141.705 188.663 141.206 188.665ZM140.433 187.719C140.358 187.716 140.283 187.726 140.211 187.748C140.117 187.769 140.035 187.826 139.983 187.906C139.901 188.052 139.93 188.122 139.983 188.163C140.211 188.478 141.446 188.484 142.324 188.356C141.741 188.024 141.099 187.808 140.433 187.719Z" fill="#E6E9ED"/>
<path d="M142.681 188.532H142.634C142.048 188.269 140.878 187.212 140.966 186.663C140.966 186.535 141.083 186.371 141.399 186.342C141.513 186.329 141.629 186.34 141.739 186.375C141.848 186.409 141.95 186.465 142.037 186.541C142.663 187.049 142.792 188.362 142.798 188.415C142.801 188.435 142.798 188.456 142.79 188.475C142.782 188.493 142.768 188.509 142.751 188.52C142.729 188.532 142.705 188.536 142.681 188.532ZM141.51 186.558H141.44C141.229 186.558 141.217 186.663 141.211 186.687C141.159 187.019 141.955 187.854 142.552 188.211C142.501 187.654 142.276 187.127 141.908 186.704C141.798 186.608 141.656 186.555 141.51 186.558Z" fill="#E6E9ED"/>
<path d="M148.055 188.415H143.167L142.682 177.133H147.569L148.055 188.415Z" fill="#FFC3BD"/>
<path d="M182.383 180.713L177.882 182.26L173.211 171.627L177.712 170.079L182.383 180.713Z" fill="#FFC3BD"/>
<path d="M176.812 181.144L182.08 179.538C182.174 179.51 182.274 179.514 182.364 179.55C182.455 179.586 182.53 179.652 182.578 179.737L184.773 183.591C184.826 183.685 184.856 183.79 184.863 183.898C184.869 184.005 184.851 184.113 184.81 184.213C184.769 184.313 184.706 184.402 184.626 184.475C184.545 184.547 184.45 184.6 184.346 184.63C182.502 185.162 181.583 185.325 179.277 186.032C177.854 186.464 174.272 187.819 172.253 188.221C170.233 188.624 169.584 186.697 170.368 186.353C173.88 184.805 175.32 183.048 176.157 181.681C176.303 181.429 176.536 181.238 176.812 181.144Z" fill="#263238"/>
<path d="M143.201 187.849H148.534C148.63 187.85 148.723 187.883 148.799 187.944C148.874 188.004 148.927 188.088 148.949 188.181L149.915 192.514C149.939 192.619 149.939 192.727 149.914 192.832C149.89 192.936 149.842 193.034 149.775 193.117C149.707 193.2 149.621 193.267 149.524 193.312C149.426 193.358 149.32 193.38 149.213 193.379C147.287 193.349 144.53 193.233 142.089 193.233C139.262 193.233 138.074 193.39 134.755 193.39C132.753 193.39 132.197 191.37 133.034 191.183C136.856 190.348 138.723 190.26 142.025 188.228C142.375 187.997 142.782 187.866 143.201 187.849Z" fill="#263238"/>
<path d="M157.397 27.9014C158.819 29.2036 160.048 30.5058 161.324 31.8663C162.6 33.2269 163.783 34.6342 164.93 36.1349C166.128 37.6596 167.216 39.2675 168.184 40.9466C168.714 41.8721 169.172 42.8364 169.554 43.8313C169.654 44.1057 169.753 44.3685 169.835 44.6663C169.931 44.9675 170.011 45.2736 170.075 45.5831L170.175 46.0678L170.245 46.605C170.31 47.0972 170.31 47.596 170.245 48.0882C170.11 49.0174 169.766 49.9039 169.238 50.6809C168.853 51.2483 168.401 51.7678 167.892 52.2284C167.074 52.9689 166.179 53.6207 165.223 54.1729C163.538 55.1341 161.776 55.9525 159.955 56.6196C156.499 57.8992 152.939 58.8761 149.313 59.5393L148.289 56.0357C151.467 54.6634 154.687 53.1802 157.654 51.5977C159.099 50.8417 160.489 49.9871 161.816 49.04C162.369 48.6484 162.877 48.1981 163.332 47.697C163.47 47.5488 163.587 47.3817 163.677 47.2006C163.724 47.1014 163.677 47.113 163.619 47.3233C163.578 47.7145 163.584 47.4108 163.49 47.2006C163.461 47.1014 163.408 46.9671 163.355 46.8386C163.303 46.7101 163.238 46.5641 163.174 46.424C162.857 45.7871 162.503 45.1691 162.115 44.5729C161.211 43.2338 160.234 41.9453 159.188 40.713C158.111 39.44 156.975 38.1729 155.811 36.9291C154.646 35.6853 153.422 34.4298 152.299 33.2736L157.397 27.9014Z" fill="#FFC3BD"/>
<path d="M149.63 55.4805L145.023 56.8702L147.985 61.7286C147.985 61.7286 150.707 60.6075 151.31 58.3009L149.63 55.4805Z" fill="#FFC3BD"/>
<path d="M143.162 58.5927L144.977 62.5986L147.956 61.7343L144.994 56.8701L143.162 58.5927Z" fill="#FFC3BD"/>
<path d="M146.602 29.2206C146.163 33.8922 156.067 41.1214 156.067 41.1214L165.602 34.6104C163.946 31.5639 161.526 28.9985 158.578 27.1652C153.111 23.6732 147.152 23.4163 146.602 29.2206Z" fill="#E6E9ED"/>
<g opacity="0.3">
<path d="M146.602 29.2206C146.163 33.8922 156.067 41.1214 156.067 41.1214L165.602 34.6104C163.946 31.5639 161.526 28.9985 158.578 27.1652C153.111 23.6732 147.152 23.4163 146.602 29.2206Z" fill="white"/>
</g>
<path d="M130.388 28.8473C130.388 28.8473 126.11 35.3991 136.271 70.5407L162.107 66.7334C161.745 63.1713 157.425 47.6327 157.278 30.6458C157.272 29.8255 157.1 29.0149 156.771 28.2629C156.443 27.5109 155.965 26.8332 155.366 26.2706C154.768 25.7079 154.061 25.2721 153.289 24.9893C152.517 24.7066 151.696 24.5828 150.875 24.6254C150.126 24.6663 149.353 24.7188 148.586 24.7947C144.898 25.1228 141.232 25.6629 137.606 26.4122C135.141 27.0379 132.728 27.852 130.388 28.8473Z" fill="#E6E9ED"/>
<g opacity="0.3">
<path d="M130.388 28.8473C130.388 28.8473 126.11 35.3991 136.271 70.5407L162.107 66.7334C161.745 63.1713 157.425 47.6327 157.278 30.6458C157.272 29.8255 157.1 29.0149 156.771 28.2629C156.443 27.5109 155.965 26.8332 155.366 26.2706C154.768 25.7079 154.061 25.2721 153.289 24.9893C152.517 24.7066 151.696 24.5828 150.875 24.6254C150.126 24.6663 149.353 24.7188 148.586 24.7947C144.898 25.1228 141.232 25.6629 137.606 26.4122C135.141 27.0379 132.728 27.852 130.388 28.8473Z" fill="white"/>
</g>
<path opacity="0.2" d="M129.758 40.1403L129.846 40.041L135.921 40.5782C136.846 44.4906 133.463 49.8279 131.678 52.3038C130.818 48.2868 130.177 44.2264 129.758 40.1403Z" fill="black"/>
<path opacity="0.2" d="M142.682 177.138L142.933 182.954H147.821L147.569 177.138H142.682Z" fill="black"/>
<path opacity="0.2" d="M177.712 170.079L173.211 171.627L175.622 177.11L180.124 175.562L177.712 170.079Z" fill="black"/>
<path d="M145.111 7.74325C146.188 12.4557 147.055 15.1593 145.41 18.2542C142.94 22.8615 136.583 22.4177 134.119 18.1199C131.9 14.2484 130.507 7.19435 134.511 4.01771C135.388 3.31492 136.431 2.84704 137.54 2.65835C138.649 2.46965 139.788 2.56638 140.85 2.93937C141.911 3.31236 142.859 3.94928 143.605 4.78989C144.351 5.63051 144.869 6.64701 145.111 7.74325Z" fill="#FFC3BD"/>
<path d="M135.622 12.3624L133.825 13.4602L133.995 7.32883C132.836 7.37847 131.693 7.04827 130.74 6.38869C131.39 5.76971 141.504 2.23687 144.659 2.85001C144.987 2.7157 145.385 2.1084 145.385 2.1084C145.385 2.1084 145.508 2.87336 144.975 3.16534C145.362 3.08942 146.328 3.27628 146.597 3.8427C146.154 3.72196 145.683 3.74861 145.256 3.91862C145.256 3.91862 148.768 4.45 147.522 9.30839C146.123 14.6631 146.585 17.7405 146.585 17.7405C146.585 17.7405 143.975 19.7551 141.703 19.3814C139.28 16.7186 135.78 13.5186 135.622 12.3624Z" fill="#263238"/>
<path d="M132.179 5.90483C129.328 5.90483 128.304 4.51505 127.572 3.34717C129.621 3.13111 133.888 1.81724 137.055 1.59535C140.221 1.37345 143.692 1.96323 142.645 3.34717C141.597 4.73111 132.179 5.90483 132.179 5.90483Z" fill="#263238"/>
<path d="M132.806 4.6365C130.465 4.30949 128.182 2.10803 129.938 0C130.588 1.54744 134.972 1.36642 138.086 0.71825C142.183 -0.134305 145.022 1.2438 143.571 4.0292C142.775 5.55328 132.806 4.6365 132.806 4.6365Z" fill="#263238"/>
<path d="M138.15 10.9669C138.485 12.1199 138.431 13.3508 137.998 14.4706C137.412 15.9363 136.113 15.6384 135.434 14.3713C134.849 13.2034 134.404 11.0837 135.399 10.0268C136.394 8.96984 137.728 9.58298 138.15 10.9669Z" fill="#FFC3BD"/>
<path d="M145.439 69.1918C145.439 69.1918 149.63 104.783 152.674 118.728C156.005 134.003 172.435 175.65 172.435 175.65L180.63 172.824C180.63 172.824 170.094 141.466 167.296 120.111C165.148 103.714 162.086 66.7334 162.086 66.7334L145.439 69.1918Z" fill="#263238"/>
<path d="M170.337 173.033C170.296 173.033 172.017 176.536 172.017 176.536L181.587 173.436L180.463 170.586L170.337 173.033Z" fill="#E6E9ED"/>
<path opacity="0.3" d="M147.75 87.4512C149.061 97.3431 150.741 109.057 152.216 116.537C154.388 105.075 154.897 90.5986 147.75 87.4512Z" fill="black"/>
<path d="M136.271 70.5404C136.271 70.5404 132.794 103.977 133.344 118.832C133.894 134.283 141.129 181.828 141.129 181.828H149.4C149.4 181.828 147.878 135.183 148.229 120.012C148.633 103.469 154.849 67.8018 154.849 67.8018L136.271 70.5404Z" fill="#263238"/>
<path d="M139.519 178.54C139.484 178.54 139.988 181.962 139.988 181.962H150.049L150.325 178.908L139.519 178.54Z" fill="#E6E9ED"/>
<path d="M134.669 37.0567C133.755 38.5049 132.831 39.8071 131.871 41.1443C130.911 42.4815 129.904 43.772 128.88 45.0567C126.792 47.6628 124.529 50.1249 122.107 52.426C121.452 53.01 120.849 53.5939 120.141 54.1253L119.626 54.5399L119.368 54.7443C119.274 54.8202 119.233 54.8611 119.04 55.0012C118.46 55.4139 117.823 55.7404 117.15 55.9706C116.106 56.3261 115.015 56.5229 113.913 56.5545C112.98 56.5857 112.047 56.5447 111.121 56.4319C107.735 55.9891 104.432 55.0566 101.316 53.664L102.329 50.1603C105.324 50.5148 108.34 50.6592 111.355 50.5925C112.022 50.5576 112.686 50.4855 113.345 50.3764C113.841 50.304 114.323 50.1543 114.773 49.9326C114.914 49.8567 114.99 49.7808 114.972 49.7633C114.955 49.7457 115.048 49.6873 115.101 49.6348L115.3 49.4538L115.692 49.0859C116.219 48.6187 116.716 48.0523 117.232 47.5384C118.244 46.4523 119.251 45.337 120.205 44.1516C121.159 42.9662 122.125 41.7749 123.061 40.5487C123.998 39.3224 124.905 38.0786 125.818 36.8348C126.731 35.591 127.621 34.283 128.464 33.0742L134.669 37.0567Z" fill="#FFC3BD"/>
<path d="M138.07 35.5096C140.037 41.933 128.617 49.0512 128.617 49.0512L121.195 39.6206C122.868 36.511 124.934 33.6282 127.341 31.0425C132.393 25.5593 136.572 30.6221 138.07 35.5096Z" fill="#E6E9ED"/>
<g opacity="0.3">
<path d="M138.07 35.5096C140.037 41.933 128.617 49.0512 128.617 49.0512L121.195 39.6206C122.868 36.511 124.934 33.6282 127.341 31.0425C132.393 25.5593 136.572 30.6221 138.07 35.5096Z" fill="white"/>
</g>
<path d="M104.048 50.3761L98.0371 49.2783L98.6693 54.4637C98.6693 54.4637 101.795 56.2155 104.06 53.4769L104.048 50.3761Z" fill="#FFC3BD"/>
<path d="M95.7188 50.4462L97.0182 54.1893L98.6571 54.4637L98.025 49.2783L95.7188 50.4462Z" fill="#FFC3BD"/>
</svg>
