<svg width="48" height="50" viewBox="0 0 48 50" fill="none" xmlns="http://www.w3.org/2000/svg">
<g clip-path="url(#clip0_474_16208)">
<g clip-path="url(#clip1_474_16208)">
<path d="M38.9266 20.0153L37.4266 21.5158L38.2516 23.4664C38.6266 24.2916 38.1766 25.2669 37.3516 25.6421L35.4016 26.4673V28.568C35.4016 29.4682 34.6516 30.2185 33.7516 30.2185H31.6516L30.8266 32.1691C30.4516 32.9943 29.4766 33.4445 28.6516 33.0694H28.5016L26.6266 32.3191L25.1266 33.8196C24.9766 33.9696 24.7516 34.1197 24.5266 34.1947H23.4766C23.2516 34.1197 22.9516 33.9696 22.8016 33.8196L21.3016 32.3191L19.4266 33.0694L19.2766 33.1444C18.4516 33.5195 17.4766 33.0694 17.1016 32.2441L16.2766 30.2935H14.2516C13.3516 30.2935 12.6016 29.5433 12.6016 28.643V26.5423L10.6516 25.7171C9.82656 25.342 9.37656 24.3667 9.75156 23.5414L10.5766 21.5908L9.07656 20.0903C8.40156 19.4151 8.40156 18.3648 9.07656 17.7646L10.5766 16.2641L9.75156 14.1635C9.37656 13.3382 9.82656 12.3629 10.6516 11.9878L12.6016 11.1626V9.06192C12.6016 8.16164 13.3516 7.41141 14.2516 7.41141H16.3516L17.1766 5.4608C17.5516 4.63555 18.5266 4.18541 19.3516 4.56052L21.3016 5.38578L22.8016 3.88531C23.4766 3.21011 24.5266 3.21011 25.1266 3.88531L26.6266 5.38578L28.5766 4.56052C29.4016 4.18541 30.3766 4.63555 30.7516 5.4608L31.5766 7.41141H33.7516C34.6516 7.41141 35.4016 8.16164 35.4016 9.06192V11.2376L37.3516 12.0628C38.1766 12.438 38.6266 13.4133 38.2516 14.2385L37.4266 16.1891L38.9266 17.6896C39.6016 18.2898 39.6016 19.3401 38.9266 20.0153Z" stroke="white" stroke-width="0.8" stroke-miterlimit="10" stroke-linecap="round" stroke-linejoin="round"/>
<path d="M23.4781 34.1942L17.2531 46.123L15.9031 39.5959L9.07812 41.8466L15.1531 30.293H16.3531L17.1781 32.2436C17.5531 33.0689 18.5281 33.519 19.3531 33.1439L19.5031 33.0689L21.3781 32.3187L22.8781 33.8191C23.0281 33.9692 23.2531 34.1192 23.4781 34.1942Z" stroke="white" stroke-width="0.8" stroke-miterlimit="10" stroke-linecap="round" stroke-linejoin="round"/>
<path d="M39.0773 41.7714L32.2523 39.5207L30.9023 46.0478L24.5273 34.1191C24.7523 34.044 24.9023 33.894 25.1273 33.7439L26.6273 32.2435L28.5023 32.9937L28.6523 33.0687C29.4773 33.4438 30.4523 32.9937 30.8273 32.1685L31.6523 30.2178H33.0023L39.0773 41.7714Z" stroke="white" stroke-width="0.8" stroke-miterlimit="10" stroke-linecap="round" stroke-linejoin="round"/>
<path d="M42.75 14.6885L46.05 12.8877" stroke="white" stroke-width="0.8" stroke-miterlimit="10" stroke-linecap="round" stroke-linejoin="round"/>
<path d="M42.75 18.5889H47.475" stroke="white" stroke-width="0.8" stroke-miterlimit="10" stroke-linecap="round" stroke-linejoin="round"/>
<path d="M42.75 22.5664L46.05 24.3672" stroke="white" stroke-width="0.8" stroke-miterlimit="10" stroke-linecap="round" stroke-linejoin="round"/>
<path d="M5.25313 22.5654L1.95312 24.3662" stroke="white" stroke-width="0.8" stroke-miterlimit="10" stroke-linecap="round" stroke-linejoin="round"/>
<path d="M5.25156 18.5889H0.601562" stroke="white" stroke-width="0.8" stroke-miterlimit="10" stroke-linecap="round" stroke-linejoin="round"/>
<path d="M5.25313 14.6885L1.95312 12.8877" stroke="white" stroke-width="0.8" stroke-miterlimit="10" stroke-linecap="round" stroke-linejoin="round"/>
<path d="M19.5 19.3401L22.125 21.9659L28.5 15.5889" stroke="white" stroke-width="0.8" stroke-miterlimit="10" stroke-linecap="round" stroke-linejoin="round"/>
<path d="M24 28.5685C29.3848 28.5685 33.75 24.202 33.75 18.8155C33.75 13.4291 29.3848 9.0625 24 9.0625C18.6152 9.0625 14.25 13.4291 14.25 18.8155C14.25 24.202 18.6152 28.5685 24 28.5685Z" stroke="white" stroke-width="0.8" stroke-miterlimit="10" stroke-linecap="round" stroke-linejoin="round"/>
</g>
</g>
<defs>
<clipPath id="clip0_474_16208">
<rect width="48" height="49" fill="white" transform="translate(0 0.199219)"/>
</clipPath>
<clipPath id="clip1_474_16208">
<rect width="48" height="49" fill="white" transform="translate(0 0.199219)"/>
</clipPath>
</defs>
</svg>
