<svg width="48" height="50" viewBox="0 0 48 50" fill="none" xmlns="http://www.w3.org/2000/svg">
<g clip-path="url(#clip0_474_16181)">
<g clip-path="url(#clip1_474_16181)">
<path d="M24.467 14.2132C24.3809 14.1635 24.2831 14.1373 24.1836 14.1373C24.0841 14.1373 23.9864 14.1635 23.9002 14.2132L15.2568 19.2051C15.1707 19.2548 15.0991 19.3264 15.0494 19.4126C14.9996 19.4988 14.9734 19.5966 14.9734 19.6961V29.6798C14.9734 29.7793 14.9996 29.877 15.0494 29.9632C15.0991 30.0494 15.1707 30.121 15.2568 30.1708L23.9002 35.1627C23.9864 35.2124 24.0841 35.2386 24.1836 35.2386C24.2831 35.2386 24.3809 35.2124 24.467 35.1627L33.1105 30.1708C33.1967 30.121 33.2682 30.0494 33.318 29.9632C33.3677 29.877 33.3939 29.7793 33.3939 29.6798V19.6961C33.3939 19.5966 33.3677 19.4988 33.318 19.4126C33.2682 19.3264 33.1967 19.2548 33.1105 19.2051L24.467 14.2132ZM24.1836 15.3589L31.6934 19.6961L24.1836 24.0332L16.6738 19.6961L24.1836 15.3589ZM16.107 20.6782L23.6168 25.0152V33.69L16.107 29.3529V20.6782ZM24.7504 33.6896V25.0148L32.2603 20.6777V29.3524L24.7504 33.6896ZM5.26567 26.9871C5.27447 27.0611 5.26861 27.1361 5.24842 27.2078C5.22823 27.2795 5.1941 27.3465 5.148 27.4051C5.10189 27.4636 5.04471 27.5124 4.97972 27.5488C4.91473 27.5852 4.8432 27.6084 4.76923 27.6172C4.74687 27.6198 4.72438 27.6212 4.70186 27.6212C4.5632 27.621 4.42941 27.57 4.32582 27.4778C4.22224 27.3856 4.15604 27.2586 4.13976 27.1208C4.04662 26.3312 3.99995 25.5369 4 24.7418C4.00081 21.2183 4.93165 17.7575 6.69841 14.7093C8.46517 11.6611 11.0052 9.13355 14.0617 7.38224C17.1182 5.63093 20.5827 4.71795 24.1051 4.7356C27.6274 4.75325 31.0827 5.70091 34.1215 7.48277C36.5841 8.93345 38.7096 10.8923 40.3563 13.2289L40.3107 6.69694C40.3102 6.62248 40.3243 6.54865 40.3523 6.47965C40.3803 6.41066 40.4216 6.34786 40.4738 6.29484C40.5794 6.18775 40.7231 6.12698 40.8734 6.12591C41.0238 6.12483 41.1684 6.18354 41.2754 6.28911C41.3825 6.39468 41.4432 6.53846 41.4443 6.68884L41.5036 15.1981C41.5042 15.2729 41.4899 15.347 41.4616 15.4163C41.4334 15.4855 41.3917 15.5485 41.339 15.6016C41.2864 15.6546 41.2237 15.6968 41.1547 15.7255C41.0856 15.7542 41.0116 15.769 40.9368 15.769C40.9314 15.769 40.9259 15.769 40.9206 15.769L33.0183 15.541C32.9436 15.5394 32.8699 15.5229 32.8016 15.4927C32.7332 15.4625 32.6715 15.419 32.62 15.3648C32.5686 15.3106 32.5283 15.2468 32.5016 15.177C32.4748 15.1071 32.4622 15.0327 32.4643 14.958C32.4664 14.8833 32.4833 14.8097 32.514 14.7415C32.5447 14.6733 32.5885 14.6119 32.643 14.5607C32.6975 14.5096 32.7616 14.4697 32.8316 14.4434C32.9015 14.4171 32.976 14.4049 33.0507 14.4076L39.9171 14.6057C38.2071 11.9331 35.8537 9.73275 33.0727 8.20639C30.2917 6.68003 27.1721 5.87652 24 5.86955C13.597 5.86955 5.1336 14.3356 5.1336 24.7418C5.13364 25.4922 5.17774 26.2419 5.26567 26.9871ZM44 24.7418C43.9988 28.1779 43.1132 31.5558 41.4285 34.5502C39.7438 37.5446 37.3168 40.0548 34.3811 41.8388C31.4454 43.6229 28.0999 44.6209 24.6669 44.7366C21.2338 44.8523 17.8288 44.0819 14.7797 42.4996C12.4597 41.2869 10.3979 39.6341 8.70907 37.6336L8.45895 43.4601C8.45269 43.6061 8.39035 43.744 8.28494 43.8451C8.17952 43.9462 8.03916 44.0027 7.89312 44.0028C7.88502 44.0028 7.87692 44.0028 7.86834 44.0023C7.71815 43.9958 7.57668 43.9299 7.47505 43.8191C7.37342 43.7083 7.31994 43.5617 7.3264 43.4115L7.64219 36.0497C7.64809 35.9031 7.71075 35.7645 7.81692 35.6633C7.9231 35.562 8.06447 35.506 8.21117 35.5071L16.3482 35.5468C16.4226 35.5469 16.4963 35.5618 16.565 35.5904C16.6337 35.6191 16.6961 35.661 16.7486 35.7138C16.8011 35.7665 16.8427 35.8291 16.871 35.898C16.8993 35.9669 16.9138 36.0406 16.9136 36.1151C16.9135 36.1895 16.8986 36.2632 16.87 36.3319C16.8413 36.4007 16.7994 36.4631 16.7467 36.5156C16.6939 36.5681 16.6313 36.6097 16.5625 36.6381C16.4937 36.6664 16.4199 36.6809 16.3455 36.6807H16.3428L9.36178 36.6469C11.1344 38.8193 13.3669 40.5711 15.8982 41.7759C18.4296 42.9807 21.1967 43.6085 24 43.614C34.403 43.614 42.8664 35.148 42.8664 24.7418C42.8664 24.5914 42.9261 24.4472 43.0324 24.3409C43.1387 24.2345 43.2829 24.1748 43.4332 24.1748C43.5835 24.1748 43.7277 24.2345 43.834 24.3409C43.9403 24.4472 44 24.5914 44 24.7418Z" fill="white"/>
</g>
</g>
<defs>
<clipPath id="clip0_474_16181">
<rect width="48" height="49" fill="white" transform="translate(0 0.199219)"/>
</clipPath>
<clipPath id="clip1_474_16181">
<rect width="48" height="49" fill="white" transform="translate(0 0.199219)"/>
</clipPath>
</defs>
</svg>
