<svg width="38" height="25" viewBox="0 0 38 25" fill="none" xmlns="http://www.w3.org/2000/svg">
<g clip-path="url(#clip0_474_5644)">
<g clip-path="url(#clip1_474_5644)">
<path d="M34.5 1.35059H3.5C1.84315 1.35059 0.5 2.69373 0.5 4.35059V21.3506C0.5 23.0074 1.84315 24.3506 3.5 24.3506H34.5C36.1569 24.3506 37.5 23.0074 37.5 21.3506V4.35059C37.5 2.69373 36.1569 1.35059 34.5 1.35059Z" fill="white" stroke="black" stroke-opacity="0.07"/>
<path fill-rule="evenodd" clip-rule="evenodd" d="M32 16.6209L34 9.21094L36 13.0309L32 16.6209Z" fill="#097A44"/>
<path fill-rule="evenodd" clip-rule="evenodd" d="M30.7598 16.6402L32.7598 9.24023L34.7598 13.0602L30.7598 16.6402Z" fill="#F46F20"/>
<path fill-rule="evenodd" clip-rule="evenodd" d="M20.67 9.05022C20.4651 8.85079 20.2198 8.69761 19.9507 8.60101C19.6816 8.50441 19.3949 8.46663 19.11 8.49022H16.11L14.16 15.3002H15.91L16.57 12.9902H17.8C18.4687 13.0142 19.1297 12.8402 19.7 12.4902C20.2685 12.0707 20.6663 11.4598 20.82 10.7702C20.9439 10.4946 20.9952 10.1918 20.9689 9.89069C20.9427 9.5896 20.8398 9.30026 20.67 9.05022ZM17.46 9.99022H18.58C18.7759 9.96696 18.9731 10.0207 19.13 10.1402C19.24 10.2502 19.2 10.4902 19.13 10.6702C19.0736 10.9174 18.932 11.1369 18.73 11.2902C18.5227 11.4272 18.2783 11.497 18.03 11.4902H17L17.46 9.99022ZM9.14 9.85022C9.11417 9.63569 9.0462 9.42839 8.94 9.24022C8.80596 9.00796 8.60337 8.82283 8.36 8.71022C8.0157 8.57843 7.64843 8.51722 7.28 8.53022H4L2 15.2802H3.73L4.45 12.7602H5.7C6.17 12.7602 6.28 12.8602 6.3 12.8902C6.32 12.9202 6.39 13.0402 6.3 13.5402L6.14 14.1402C6.08575 14.3332 6.04894 14.5307 6.03 14.7302V15.2802H7.82L7.94 14.8502L7.83 14.7702C7.83 14.7702 7.76 14.7202 7.77 14.5702C7.797 14.3802 7.84 14.1932 7.9 14.0102L8 13.5902C8.13079 13.2355 8.16529 12.8526 8.1 12.4802C8.05349 12.3219 7.9634 12.1798 7.84 12.0702C8.10348 11.9422 8.33562 11.7578 8.52 11.5302C8.76313 11.2366 8.94351 10.8963 9.05 10.5302C9.12 10.3102 9.151 10.0802 9.14 9.85022ZM7.28 10.6802C7.25148 10.8132 7.19107 10.9373 7.10397 11.0419C7.01688 11.1464 6.9057 11.2282 6.78 11.2802C6.57389 11.3488 6.35703 11.3793 6.14 11.3702H4.86L5.24 10.0402H6.67C6.85139 10.0259 7.0335 10.0568 7.2 10.1302C7.25 10.1302 7.41 10.2002 7.28 10.6302V10.6802ZM12.18 12.8502C12.1199 13.0894 12.0184 13.3161 11.88 13.5202C11.7834 13.6599 11.6529 13.7726 11.5007 13.8478C11.3484 13.9231 11.1796 13.9583 11.01 13.9502C10.67 13.9502 10.65 13.8102 10.63 13.7502C10.616 13.5739 10.6398 13.3966 10.7 13.2302L11.59 10.1202H9.9L9.04 13.1202C8.89198 13.5435 8.84072 13.9945 8.89 14.4402C8.97 14.8602 9.29 15.3502 10.3 15.3502C10.547 15.3542 10.793 15.3202 11.03 15.2502C11.242 15.1806 11.4438 15.0831 11.63 14.9602L11.55 15.2602H13.17L14.64 10.1302H13L12.18 12.8502ZM25.11 13.9502L25.74 11.7702C25.98 10.9402 25.67 10.5602 25.37 10.3802C24.9497 10.1531 24.4776 10.0394 24 10.0502C23.2711 10.0144 22.556 10.2575 22 10.7302C21.6855 11.0365 21.4489 11.4137 21.31 11.8302L21.22 12.0902H22.83V11.9802C22.8884 11.8417 22.9733 11.716 23.08 11.6102C23.2403 11.4883 23.439 11.4279 23.64 11.4402C23.7977 11.4255 23.9565 11.4531 24.1 11.5202V11.7002C24.1 11.7602 24.1 11.8502 23.85 11.9302C23.6944 11.9819 23.5333 12.0155 23.37 12.0302L22.93 12.0802C22.4988 12.1185 22.0766 12.2266 21.68 12.4002C21.11 12.6712 20.69 13.1802 20.53 13.7902C20.4506 13.9909 20.4245 14.2088 20.4543 14.4226C20.4841 14.6364 20.5687 14.8389 20.7 15.0102C20.989 15.3172 21.4 15.4782 21.82 15.4502C22.1911 15.4497 22.5571 15.3642 22.89 15.2002L23.29 14.9702V15.3002H25L25.13 14.8202L25 14.7502C24.9867 14.6775 24.9867 14.6029 25 14.5302C25 14.2802 25.07 14.1002 25.11 13.9502ZM22.19 13.8502C22.214 13.7627 22.2568 13.6816 22.3156 13.6125C22.3743 13.5433 22.4475 13.488 22.53 13.4502C22.7123 13.3745 22.9041 13.3241 23.1 13.3002L23.39 13.2502L23.69 13.1802V13.2502C23.6208 13.5556 23.4386 13.8236 23.18 14.0002C22.9628 14.1326 22.7143 14.205 22.46 14.2102C22.4151 14.2141 22.3699 14.2091 22.327 14.1953C22.2841 14.1816 22.2443 14.1595 22.21 14.1302C22.1792 14.0402 22.1723 13.9437 22.19 13.8502ZM30.1 10.1702L28.41 13.1702V10.1702H26.61L27 15.3002L26.88 15.4902C26.8221 15.5891 26.7437 15.6743 26.65 15.7402C26.5761 15.7826 26.4945 15.8098 26.41 15.8202H25.73L25.34 17.1902H26.17C26.6262 17.2279 27.0816 17.1078 27.46 16.8502C27.9458 16.3294 28.3718 15.7558 28.73 15.1402L31.9 10.1402L30.1 10.1702Z" fill="#302F82"/>
</g>
</g>
<defs>
<clipPath id="clip0_474_5644">
<rect width="38" height="24" fill="white" transform="translate(0 0.850586)"/>
</clipPath>
<clipPath id="clip1_474_5644">
<rect width="38" height="24" fill="white" transform="translate(0 0.850586)"/>
</clipPath>
</defs>
</svg>
