<svg width="24" height="24" viewBox="0 0 24 24" fill="none" xmlns="http://www.w3.org/2000/svg">
<path d="M11.5 21.75C5.85 21.75 1.25 17.15 1.25 11.5C1.25 5.85 5.85 1.25 11.5 1.25C17.15 1.25 21.75 5.85 21.75 11.5C21.75 17.15 17.15 21.75 11.5 21.75ZM11.5 2.75C6.67 2.75 2.75 6.68 2.75 11.5C2.75 16.32 6.67 20.25 11.5 20.25C16.33 20.25 20.25 16.32 20.25 11.5C20.25 6.68 16.33 2.75 11.5 2.75Z" fill="#94A3B8"/>
<path d="M21.9975 22.75C21.8075 22.75 21.6175 22.68 21.4675 22.53L19.4675 20.53C19.1775 20.24 19.1775 19.76 19.4675 19.47C19.7575 19.18 20.2375 19.18 20.5275 19.47L22.5275 21.47C22.8175 21.76 22.8175 22.24 22.5275 22.53C22.3775 22.68 22.1875 22.75 21.9975 22.75Z" fill="#94A3B8"/>
</svg>
