<svg width="84" height="21" viewBox="0 0 84 21" fill="none" xmlns="http://www.w3.org/2000/svg">
<path fill-rule="evenodd" clip-rule="evenodd" d="M55.9826 0.419922C54.2965 0.419922 52.9297 1.76681 52.9297 3.42852V17.1116C52.9297 18.773 54.2965 20.1199 55.9826 20.1199H80.8616C82.5477 20.1199 83.9145 18.773 83.9145 17.1116V3.42852C83.9145 1.76706 82.5477 0.419922 80.8616 0.419922L55.9826 0.419922ZM60.3405 14.1773V10.7092H62.5546C64.5775 10.7092 65.6531 9.59118 65.6531 7.89748C65.6531 6.20377 64.5775 5.18991 62.5546 5.18991H58.9141V14.1773H60.3405ZM60.3405 6.52622H62.2272C63.5366 6.52622 64.1799 7.05641 64.1799 7.94351C64.1799 8.8306 63.56 9.3608 62.2856 9.3608H60.3405V6.52622ZM68.1681 14.3617C69.2554 14.3617 69.9686 13.8891 70.296 13.0827C70.3896 13.9811 70.9393 14.4422 72.1318 14.1313L72.1436 13.1748C71.6641 13.2208 71.5705 13.048 71.5705 12.5525V10.2019C71.5705 8.81928 70.6468 8.00135 68.9398 8.00135C67.2559 8.00135 66.2855 8.83085 66.2855 10.2363H67.5952C67.5952 9.56829 68.0745 9.16487 68.9164 9.16487C69.8049 9.16487 70.2143 9.54516 70.2025 10.2021V10.5017L68.6941 10.6629C66.9987 10.8472 66.0634 11.4811 66.0634 12.5872C66.0634 13.4975 66.718 14.3617 68.1681 14.3617ZM68.4603 13.3247C67.7237 13.3247 67.4315 12.9328 67.4315 12.541C67.4315 12.011 68.0395 11.7691 69.232 11.6307L70.1675 11.5271C70.1089 12.5412 69.4191 13.3247 68.4603 13.3247ZM76.4747 14.6268C75.8784 16.0554 74.9196 16.4817 73.423 16.4817H72.7798V15.3066H73.4698C74.2881 15.3066 74.6857 15.0531 75.1185 14.3272L72.4642 8.18596H73.9373L75.8317 12.6682L77.5153 8.18596H78.9535L76.4747 14.6268Z" fill="white"/>
<path d="M7.29261 9.07923C5.33941 8.66152 4.46916 8.49833 4.46916 7.75646C4.46916 7.05889 5.05802 6.71134 6.23575 6.71134C7.27144 6.71134 8.02869 7.1576 8.5858 8.0314C8.62789 8.09884 8.71479 8.12223 8.78569 8.08604L10.9834 6.99145C11.002 6.98217 11.0185 6.96916 11.0319 6.95322C11.0452 6.93728 11.0552 6.91877 11.0611 6.89882C11.067 6.87887 11.0688 6.85792 11.0662 6.83727C11.0637 6.81662 11.0569 6.79671 11.0464 6.77878C10.1343 5.22021 8.44917 4.36708 6.23058 4.36708C3.31506 4.36708 1.50391 5.78289 1.50391 8.03411C1.50391 10.4251 3.70969 11.0294 5.66535 11.4469C7.62101 11.8646 8.49397 12.0278 8.49397 12.7696C8.49397 13.5115 7.85784 13.8613 6.58804 13.8613C5.41548 13.8613 4.54547 13.3321 4.01963 12.3054C4.0009 12.2691 3.96859 12.2417 3.92973 12.229C3.89088 12.2164 3.8486 12.2196 3.8121 12.238L1.61961 13.3089C1.60138 13.318 1.58513 13.3305 1.5718 13.3459C1.55847 13.3612 1.54832 13.3791 1.54195 13.3984C1.53558 13.4177 1.53312 13.4381 1.5347 13.4583C1.53629 13.4786 1.54188 13.4984 1.55117 13.5164C2.42142 15.2409 4.20624 16.211 6.5905 16.211C9.6269 16.211 11.4617 14.8183 11.4617 12.4972C11.4617 10.176 9.24581 9.50185 7.29261 9.0844V9.07923ZM19.0697 4.36708C17.8235 4.36708 16.7221 4.80275 15.9309 5.5781C15.8809 5.62487 15.7994 5.59115 15.7994 5.5237V0.573042C15.7995 0.552751 15.7955 0.53265 15.7877 0.513916C15.7799 0.495181 15.7684 0.478189 15.754 0.463932C15.7396 0.449676 15.7224 0.438443 15.7036 0.43089C15.6847 0.423336 15.6646 0.419614 15.6443 0.419942H12.8945C12.8742 0.419614 12.854 0.423336 12.8352 0.43089C12.8163 0.438443 12.7992 0.449676 12.7848 0.463932C12.7703 0.478189 12.7589 0.495181 12.7511 0.513916C12.7433 0.53265 12.7393 0.552751 12.7394 0.573042V15.9387C12.7393 15.959 12.7433 15.9791 12.7511 15.9978C12.7589 16.0165 12.7704 16.0334 12.7848 16.0477C12.7993 16.0619 12.8164 16.0731 12.8352 16.0807C12.8541 16.0882 12.8742 16.0919 12.8945 16.0916H15.6443C15.6646 16.0919 15.6847 16.0882 15.7035 16.0807C15.7223 16.0731 15.7395 16.0619 15.7539 16.0477C15.7683 16.0334 15.7798 16.0165 15.7876 15.9978C15.7954 15.9791 15.7994 15.959 15.7994 15.9387V9.19836C15.7994 7.89652 16.8112 6.89816 18.1758 6.89816C19.5401 6.89816 20.5285 7.87584 20.5285 9.19836V15.9387C20.5285 15.959 20.5325 15.9791 20.5403 15.9978C20.5481 16.0165 20.5596 16.0334 20.574 16.0477C20.5885 16.0619 20.6056 16.0731 20.6244 16.0807C20.6432 16.0882 20.6634 16.0919 20.6836 16.0916H23.4335C23.4537 16.0919 23.4739 16.0882 23.4927 16.0807C23.5115 16.0731 23.5286 16.0619 23.5431 16.0477C23.5575 16.0334 23.569 16.0165 23.5768 15.9978C23.5846 15.9791 23.5886 15.959 23.5886 15.9387V9.19836C23.5886 6.36649 21.7063 4.36954 19.0697 4.36954V4.36708ZM29.1719 3.9287C27.6789 3.9287 26.2751 4.37742 25.2707 5.02822C25.2376 5.04942 25.214 5.08257 25.2047 5.12076C25.1954 5.15896 25.2013 5.19925 25.221 5.23325L26.4327 7.27427C26.4775 7.34688 26.572 7.37272 26.6456 7.32842C27.4096 6.87431 28.2832 6.63769 29.1719 6.64414C31.572 6.64414 33.3358 8.31422 33.3358 10.5209C33.3358 12.4014 31.9242 13.7938 30.134 13.7938C28.6752 13.7938 27.6631 12.9562 27.6631 11.7737C27.6631 11.0969 27.9548 10.5418 28.7145 10.1502C28.7332 10.1409 28.7497 10.1279 28.763 10.1119C28.7763 10.0959 28.7862 10.0773 28.7919 10.0573C28.7976 10.0372 28.799 10.0162 28.7961 9.99562C28.7933 9.975 28.7861 9.95521 28.7751 9.93753L27.6316 8.02894C27.6129 7.99805 27.584 7.97466 27.5499 7.96279C27.5158 7.95093 27.4786 7.95134 27.4447 7.96396C25.9123 8.52418 24.8369 9.87279 24.8369 11.6829C24.8369 14.4215 27.0479 16.465 30.1316 16.465C33.7329 16.465 36.3223 14.004 36.3223 10.4744C36.3223 6.69066 33.3098 3.92624 29.1668 3.92624L29.1719 3.9287ZM44.3635 4.3464C42.9729 4.3464 41.7321 4.85198 40.8252 5.744C40.8144 5.75473 40.8007 5.76204 40.7858 5.765C40.7709 5.76797 40.7555 5.76647 40.7414 5.76068C40.7274 5.75489 40.7153 5.74508 40.7068 5.73248C40.6984 5.71987 40.6938 5.70504 40.6937 5.68985V4.61593C40.6937 4.59566 40.6897 4.57558 40.6819 4.55688C40.6741 4.53817 40.6627 4.52121 40.6482 4.50698C40.6338 4.49275 40.6167 4.48154 40.5978 4.474C40.579 4.46646 40.5589 4.46275 40.5386 4.46308H37.8599C37.8396 4.46275 37.8195 4.46646 37.8007 4.474C37.7819 4.48154 37.7647 4.49275 37.7503 4.50698C37.7359 4.52121 37.7244 4.53817 37.7166 4.55688C37.7088 4.57558 37.7048 4.59566 37.7048 4.61593V19.9582C37.7048 19.9785 37.7087 19.9986 37.7165 20.0174C37.7243 20.0361 37.7358 20.0531 37.7502 20.0673C37.7647 20.0816 37.7818 20.0928 37.8006 20.1004C37.8195 20.1079 37.8396 20.1117 37.8599 20.1113H40.6095C40.6298 20.1117 40.65 20.108 40.6689 20.1005C40.6877 20.0929 40.7049 20.0817 40.7194 20.0674C40.7338 20.0532 40.7453 20.0362 40.7531 20.0174C40.7609 19.9987 40.7649 19.9785 40.7649 19.9582V14.9271C40.7649 14.8596 40.8463 14.8262 40.8961 14.8702C41.8005 15.7 42.9965 16.1851 44.3662 16.1851C47.5917 16.1851 50.1074 13.6097 50.1074 10.2644C50.1074 6.91884 47.589 4.3437 44.3662 4.3437L44.3635 4.3464ZM43.8458 13.5866C42.0108 13.5866 40.6201 12.1471 40.6201 10.2435C40.6201 8.34006 42.0081 6.90087 43.8458 6.90087C45.6836 6.90087 47.0686 8.31668 47.0686 10.2435C47.0686 12.1703 45.7015 13.5863 43.8431 13.5863L43.8458 13.5866Z" fill="white"/>
</svg>
