<svg width="38" height="25" viewBox="0 0 38 25" fill="none" xmlns="http://www.w3.org/2000/svg">
<g clip-path="url(#clip0_474_5622)">
<g clip-path="url(#clip1_474_5622)">
<path opacity="0.07" d="M35 0.850586H3C1.3 0.850586 0 2.15059 0 3.85059V21.8506C0 23.5506 1.4 24.8506 3 24.8506H35C36.7 24.8506 38 23.5506 38 21.8506V3.85059C38 2.15059 36.6 0.850586 35 0.850586Z" fill="black"/>
<path d="M35 1.85059C36.1 1.85059 37 2.75059 37 3.85059V21.8506C37 22.9506 36.1 23.8506 35 23.8506H3C1.9 23.8506 1 22.9506 1 21.8506V3.85059C1 2.75059 1.9 1.85059 3 1.85059H35Z" fill="white"/>
<path d="M30.2969 18.0107L34.832 12.7842L32.6836 7.37793L30.2969 18.0107Z" fill="#097939"/>
<path d="M28.7695 18.0107L33.3047 12.7842L31.1562 7.37793L28.7695 18.0107Z" fill="#ED752E"/>
<path d="M7.0978 7.44051L5.18765 16.0304L11.965 16.0889L13.8283 7.44051H15.547L13.3126 17.4952C13.2267 17.878 12.9025 18.1905 12.5861 18.1905H3.89858C3.37124 18.1905 3.05874 17.671 3.20327 17.0304L5.33218 7.44051H7.0978ZM28.0548 7.37801H29.7736L27.3869 18.1905H25.6173L28.0548 7.37801ZM15.7384 11.8819L24.3322 11.8233L24.9025 9.54207H16.1681L16.6916 7.4366L26.0041 7.33113C26.5822 7.32332 26.9259 7.88973 26.7736 8.59676L25.8986 12.6475C25.7423 13.3546 25.1486 13.9249 24.5705 13.9249H16.883L15.9767 18.3702H14.3048L15.7384 11.8819Z" fill="#747474"/>
</g>
</g>
<defs>
<clipPath id="clip0_474_5622">
<rect width="38" height="24" fill="white" transform="translate(0 0.850586)"/>
</clipPath>
<clipPath id="clip1_474_5622">
<rect width="38" height="24" fill="white" transform="translate(0 0.850586)"/>
</clipPath>
</defs>
</svg>
