<svg width="21" height="18" viewBox="0 0 21 18" fill="none" xmlns="http://www.w3.org/2000/svg">
<path d="M10.5048 13.3203C8.1239 13.3203 6.19126 11.3846 6.19126 8.99994C6.19126 6.61524 8.1239 4.67954 10.5048 4.67954C12.8858 4.67954 14.8184 6.61524 14.8184 8.99994C14.8184 11.3846 12.8858 13.3203 10.5048 13.3203ZM10.5048 6.17622C8.95075 6.17622 7.68557 7.4434 7.68557 8.99994C7.68557 10.5565 8.95075 11.8237 10.5048 11.8237C12.0589 11.8237 13.3241 10.5565 13.3241 8.99994C13.3241 7.4434 12.0589 6.17622 10.5048 6.17622Z" fill="#232C34"/>
<path d="M10.505 18C6.75925 18 3.22272 15.8049 0.791983 11.9933C-0.263994 10.347 -0.263994 7.66297 0.791983 6.00665C3.23268 2.19512 6.76921 0 10.505 0C14.2407 0 17.7773 2.19512 20.208 6.00665C21.264 7.65299 21.264 10.337 20.208 11.9933C17.7773 15.8049 14.2407 18 10.505 18ZM10.505 1.49667C7.28724 1.49667 4.20897 3.43237 2.05716 6.81486C1.31001 7.98226 1.31001 10.0177 2.05716 11.1851C4.20897 14.5676 7.28724 16.5033 10.505 16.5033C13.7227 16.5033 16.801 14.5676 18.9528 11.1851C19.7 10.0177 19.7 7.98226 18.9528 6.81486C16.801 3.43237 13.7227 1.49667 10.505 1.49667Z" fill="#232C34"/>
</svg>
