<svg width="38" height="25" viewBox="0 0 38 25" fill="none" xmlns="http://www.w3.org/2000/svg">
<g clip-path="url(#clip0_474_5629)">
<g clip-path="url(#clip1_474_5629)">
<g clip-path="url(#clip2_474_5629)">
<path opacity="0.07" d="M35 0.850586H3C1.3 0.850586 0 2.15059 0 3.85059V21.8506C0 23.5506 1.4 24.8506 3 24.8506H35C36.7 24.8506 38 23.5506 38 21.8506V3.85059C38 2.15059 36.6 0.850586 35 0.850586Z" fill="black"/>
<path d="M35 1.85059C36.1 1.85059 37 2.75059 37 3.85059V21.8506C37 22.9506 36.1 23.8506 35 23.8506H3C1.9 23.8506 1 22.9506 1 21.8506V3.85059C1 2.75059 1.9 1.85059 3 1.85059H35Z" fill="white"/>
<path d="M28.3 10.9506H28C27.6 11.9506 27.3 12.4506 27 13.9506H28.9C28.6 12.4506 28.6 11.7506 28.3 10.9506ZM31.2 16.8506H29.5C29.4 16.8506 29.4 16.8506 29.3 16.7506L29.1 15.8506L29 15.6506H26.6C26.5 15.6506 26.4 15.6506 26.4 15.8506L26.1 16.7506C26.1 16.8506 26 16.8506 26 16.8506H23.9L24.1 16.3506L27 9.55059C27 9.05059 27.3 8.85059 27.8 8.85059H29.3C29.4 8.85059 29.5 8.85059 29.5 9.05059L30.9 15.5506C31 15.9506 31.1 16.2506 31.1 16.6506C31.2 16.7506 31.2 16.7506 31.2 16.8506ZM17.8 16.5506L18.2 14.7506C18.3 14.7506 18.4 14.8506 18.4 14.8506C19.1 15.1506 19.8 15.3506 20.5 15.2506C20.7 15.2506 21 15.1506 21.2 15.0506C21.7 14.8506 21.7 14.3506 21.3 13.9506C21.1 13.7506 20.8 13.6506 20.5 13.4506C20.1 13.2506 19.7 13.0506 19.4 12.7506C18.2 11.7506 18.6 10.3506 19.3 9.65059C19.9 9.25059 20.2 8.85059 21 8.85059C22.2 8.85059 23.5 8.85059 24.1 9.05059H24.2C24.1 9.65059 24 10.1506 23.8 10.7506C23.3 10.5506 22.8 10.3506 22.3 10.3506C22 10.3506 21.7 10.3506 21.4 10.4506C21.2 10.4506 21.1 10.5506 21 10.6506C20.8 10.8506 20.8 11.1506 21 11.3506L21.5 11.7506C21.9 11.9506 22.3 12.1506 22.6 12.3506C23.1 12.6506 23.6 13.1506 23.7 13.7506C23.9 14.6506 23.6 15.4506 22.8 16.0506C22.3 16.4506 22.1 16.6506 21.4 16.6506C20 16.6506 18.9 16.7506 18 16.4506C17.9 16.6506 17.9 16.6506 17.8 16.5506ZM14.3 16.8506C14.4 16.1506 14.4 16.1506 14.5 15.8506C15 13.6506 15.5 11.3506 15.9 9.15059C16 8.95059 16 8.85059 16.2 8.85059H18C17.8 10.0506 17.6 10.9506 17.3 12.0506C17 13.5506 16.7 15.0506 16.3 16.5506C16.3 16.7506 16.2 16.7506 16 16.7506M5 9.05059C5 8.95059 5.2 8.85059 5.3 8.85059H8.7C9.2 8.85059 9.6 9.15059 9.7 9.65059L10.6 14.0506C10.6 14.1506 10.6 14.1506 10.7 14.2506C10.7 14.1506 10.8 14.1506 10.8 14.1506L12.9 9.05059C12.8 8.95059 12.9 8.85059 13 8.85059H15.1C15.1 8.95059 15.1 8.95059 15 9.05059L11.9 16.3506C11.8 16.5506 11.8 16.6506 11.7 16.7506C11.6 16.8506 11.4 16.7506 11.2 16.7506H9.7C9.6 16.7506 9.5 16.7506 9.5 16.5506L7.9 10.3506C7.7 10.1506 7.4 9.85059 7 9.75059C6.4 9.45059 5.3 9.25059 5.1 9.25059L5 9.05059Z" fill="#142688"/>
</g>
</g>
</g>
<defs>
<clipPath id="clip0_474_5629">
<rect width="38" height="24" fill="white" transform="translate(0 0.850586)"/>
</clipPath>
<clipPath id="clip1_474_5629">
<rect width="38" height="24" fill="white" transform="translate(0 0.850586)"/>
</clipPath>
<clipPath id="clip2_474_5629">
<rect width="38" height="24" fill="white" transform="translate(0 0.850586)"/>
</clipPath>
</defs>
</svg>
