<svg width="28" height="28" viewBox="0 0 28 28" fill="none" xmlns="http://www.w3.org/2000/svg">
<path d="M1.39675 27H8.12888V9.15304H1.39675V27ZM2.92019 10.6889H6.60544V25.4641H2.92019V10.6889ZM4.76284 1C2.68797 1 1 2.70175 1 4.79344C1 6.88513 2.68797 8.58693 4.76284 8.58693C6.83771 8.58693 8.52573 6.88518 8.52573 4.79344C8.52573 2.7017 6.83766 1 4.76284 1ZM2.52344 4.79344C2.52344 3.5486 3.52799 2.53583 4.76284 2.53583C5.99769 2.53583 7.00229 3.54855 7.00229 4.79344C7.00229 6.03833 5.99769 7.0511 4.76284 7.0511C3.52799 7.0511 2.52344 6.03828 2.52344 4.79344ZM26.9837 14.7572C26.7441 11.2834 23.8699 8.60649 20.3065 8.60649C18.7127 8.60649 17.2081 9.16512 16.0226 10.1563V9.15293H9.57182V26.9999H16.304V17.239C16.304 16.1389 17.1917 15.244 18.2829 15.244C19.3741 15.244 20.2618 16.1389 20.2618 17.2395L20.2683 26.9999H27V14.7736L26.9837 14.7572ZM14.7806 25.4642H11.0953V10.6888H14.4991V12.8823L15.7181 12.8894L15.9446 12.5349C16.9018 11.0367 18.5324 10.1424 20.3065 10.1424C23.1419 10.1424 25.4122 12.3233 25.475 15.1074L25.4766 25.4642H21.7908L21.7853 17.239C21.7853 15.2921 20.2141 13.7081 18.2829 13.7081C16.3517 13.7081 14.7806 15.2921 14.7806 17.239V25.4642Z" fill="white"/>
</svg>
