<svg width="28" height="28" viewBox="0 0 28 28" fill="none" xmlns="http://www.w3.org/2000/svg">
<path d="M17.4987 26.5423H10.4987C4.1637 26.5423 1.45703 23.8357 1.45703 17.5007V10.5007C1.45703 4.16565 4.1637 1.45898 10.4987 1.45898H17.4987C23.8337 1.45898 26.5404 4.16565 26.5404 10.5007V17.5007C26.5404 23.8357 23.8337 26.5423 17.4987 26.5423ZM10.4987 3.20898C5.12036 3.20898 3.20703 5.12232 3.20703 10.5007V17.5007C3.20703 22.879 5.12036 24.7923 10.4987 24.7923H17.4987C22.877 24.7923 24.7904 22.879 24.7904 17.5007V10.5007C24.7904 5.12232 22.877 3.20898 17.4987 3.20898H10.4987Z" fill="white"/>
<path d="M14.0013 18.9577C11.2713 18.9577 9.04297 16.7294 9.04297 13.9993C9.04297 11.2693 11.2713 9.04102 14.0013 9.04102C16.7313 9.04102 18.9596 11.2693 18.9596 13.9993C18.9596 16.7294 16.7313 18.9577 14.0013 18.9577ZM14.0013 10.791C12.228 10.791 10.793 12.226 10.793 13.9993C10.793 15.7727 12.228 17.2077 14.0013 17.2077C15.7746 17.2077 17.2096 15.7727 17.2096 13.9993C17.2096 12.226 15.7746 10.791 14.0013 10.791Z" fill="white"/>
<path d="M19.8346 8.7494C19.683 8.7494 19.5313 8.7144 19.3913 8.65607C19.2513 8.59773 19.123 8.51607 19.0063 8.41107C18.9013 8.2944 18.808 8.16607 18.7496 8.02607C18.6913 7.88607 18.668 7.7344 18.668 7.58273C18.668 7.43107 18.6913 7.2794 18.7496 7.1394C18.8196 6.98773 18.9013 6.87107 19.0063 6.7544C19.0646 6.70773 19.123 6.6494 19.1813 6.6144C19.2513 6.56773 19.3213 6.53273 19.3913 6.5094C19.4613 6.4744 19.5313 6.45107 19.613 6.4394C19.9863 6.35773 20.383 6.48607 20.663 6.7544C20.768 6.87107 20.8496 6.98773 20.908 7.1394C20.9663 7.2794 21.0013 7.43107 21.0013 7.58273C21.0013 7.7344 20.9663 7.88607 20.908 8.02607C20.8496 8.16607 20.768 8.2944 20.663 8.41107C20.5463 8.51607 20.418 8.59773 20.278 8.65607C20.138 8.7144 19.9863 8.7494 19.8346 8.7494Z" fill="white"/>
</svg>
