<svg width="28" height="28" viewBox="0 0 28 28" fill="none" xmlns="http://www.w3.org/2000/svg">
<path d="M8.78056 27.6719C7.96611 27.6681 7.30692 27.0093 7.30288 26.1956L7.33209 22.2686L9.58868 14.9382C9.22464 14.1936 9.04014 13.3742 9.04994 12.5456C9.04994 9.31668 10.4184 7.30953 12.617 7.30953C14.1529 7.30953 15.456 8.5676 15.456 10.0511C15.4564 10.3197 15.4171 10.5868 15.3395 10.8439L14.342 14.1454C14.3079 14.2736 14.2907 14.4057 14.2911 14.5383C14.2911 15.9636 15.8053 16.0363 16.1111 16.0363C17.9673 16.0363 19.5323 13.6364 19.5323 10.8002C19.5323 7.59315 16.788 4.98232 13.4176 4.98232C10.0474 4.98232 7.30288 7.59309 7.30288 10.8002C7.30028 11.6853 7.51001 12.5581 7.91451 13.3456L8.11095 13.7238L5.29393 16.5453L4.90068 15.9564C3.81235 14.3477 3.22943 12.4511 3.22656 10.5094C3.22656 4.89516 8.05996 0.328125 14 0.328125C19.94 0.328125 24.7734 4.89516 24.7734 10.5094C24.7734 16.1237 21.1191 20.6905 16.6206 20.6905C15.3316 20.6853 14.0701 20.3174 12.9808 19.6288L12.202 23.3449L10.0546 26.952C9.92258 27.1717 9.73582 27.3535 9.51254 27.4797C9.28927 27.6058 9.03708 27.672 8.78056 27.6719ZM8.46773 22.5232V26.1956C8.46448 26.2667 8.48554 26.3367 8.52745 26.3941C8.56936 26.4516 8.62961 26.4931 8.69829 26.5118C8.76697 26.5304 8.83995 26.525 8.90519 26.4967C8.97044 26.4683 9.02405 26.4185 9.0572 26.3556L11.1028 22.9158L12.2237 17.5999L12.9591 18.1888C14.0582 19.0615 15.3248 19.527 16.6206 19.527C20.4715 19.527 23.6088 15.4836 23.6088 10.5094C23.6088 5.535 19.2994 1.49162 14 1.49162C8.70063 1.49162 4.39119 5.535 4.39119 10.5094C4.3925 11.9766 4.77098 13.4189 5.49036 14.6981L6.69873 13.4909C6.32742 12.6425 6.13656 11.7262 6.13825 10.8002C6.13825 6.95309 9.40672 3.81883 13.4176 3.81883C17.4287 3.81883 20.6971 6.95309 20.6971 10.8002C20.6971 14.3274 18.637 17.1998 16.1111 17.1998C14.6769 17.1998 13.1265 16.3707 13.1265 14.5383C13.1257 14.2975 13.1575 14.0577 13.2211 13.8254V13.8109L14.2256 10.5094C14.2702 10.3608 14.2922 10.2063 14.2911 10.0511C14.2911 9.20765 13.5122 8.47302 12.617 8.47302C10.3822 8.47302 10.2148 11.593 10.2148 12.5456C10.2036 13.2594 10.3792 13.9638 10.7243 14.589L10.848 14.8072L8.46773 22.5232Z" fill="white"/>
</svg>
