<svg width="28" height="28" viewBox="0 0 28 28" fill="none" xmlns="http://www.w3.org/2000/svg">
<path d="M2.33398 26.5418C2.10065 26.5418 1.87895 26.4485 1.71562 26.2851C1.49395 26.0635 1.40067 25.7368 1.48234 25.4334L2.95235 19.9384C1.97235 18.1185 1.45898 16.0651 1.45898 13.9884C1.45898 7.07011 7.08232 1.44678 14.0006 1.44678C20.919 1.44678 26.5423 7.07011 26.5423 13.9884C26.5423 20.9068 20.919 26.5301 14.0006 26.5301C11.889 26.5301 9.82401 26.0051 7.98068 25.0018L2.56733 26.5068C2.48566 26.5301 2.41565 26.5418 2.33398 26.5418ZM8.09732 23.1935C8.24899 23.1935 8.40066 23.2401 8.54066 23.3101C10.1857 24.2785 12.0756 24.7918 14.0006 24.7918C19.9506 24.7918 24.7923 19.9501 24.7923 14.0001C24.7923 8.05012 19.9506 3.20846 14.0006 3.20846C8.05065 3.20846 3.20898 8.05012 3.20898 14.0001C3.20898 15.9018 3.71064 17.7568 4.65564 19.3901C4.7723 19.5884 4.80732 19.8335 4.74899 20.0551L3.58232 24.4184L7.87565 23.2285C7.94565 23.2051 8.02732 23.1935 8.09732 23.1935Z" fill="white"/>
<path d="M17.1969 20.7197C16.4736 20.7197 15.7269 20.5563 14.9453 20.218C14.2103 19.903 13.4753 19.483 12.7636 18.958C12.0636 18.4447 11.3753 17.8613 10.7453 17.2313C10.1153 16.5897 9.53193 15.913 9.0186 15.213C8.4936 14.478 8.07359 13.7547 7.77025 13.043C7.44359 12.273 7.28027 11.5147 7.28027 10.7913C7.28027 10.278 7.37358 9.78802 7.54858 9.33302C7.73525 8.85468 8.0386 8.42301 8.43526 8.04968C9.18193 7.31468 10.2553 7.04637 11.107 7.4547C11.3986 7.58303 11.6436 7.79303 11.8303 8.07303L13.1836 9.97467C13.3236 10.1613 13.4286 10.3597 13.5103 10.558C13.6036 10.7913 13.662 11.0247 13.662 11.2464C13.662 11.5497 13.5803 11.853 13.417 12.1214C13.312 12.2964 13.1603 12.5064 12.9619 12.7047L12.8103 12.868C12.8803 12.9613 12.9619 13.078 13.0903 13.218C13.3353 13.498 13.6036 13.8013 13.8953 14.093C14.1869 14.373 14.4786 14.653 14.7703 14.898C14.9103 15.0147 15.027 15.108 15.1203 15.1663L15.2836 15.003C15.4936 14.793 15.7036 14.6297 15.9136 14.5247C16.2986 14.2797 16.8936 14.2214 17.4186 14.443C17.6053 14.513 17.7919 14.618 17.9903 14.758L19.9386 16.1347C20.207 16.3213 20.4169 16.578 20.5569 16.8697C20.6736 17.1613 20.7203 17.418 20.7203 17.6864C20.7203 18.0364 20.6386 18.3747 20.4869 18.7013C20.3353 19.0047 20.1603 19.273 19.9503 19.518C19.5769 19.9264 19.1453 20.2297 18.6786 20.428C18.212 20.6264 17.7103 20.7197 17.1969 20.7197ZM10.2553 9.02967C10.1853 9.02967 9.95199 9.02967 9.66032 9.32134C9.43865 9.53134 9.28695 9.75302 9.18195 9.99802C9.07695 10.243 9.03027 10.523 9.03027 10.803C9.03027 11.293 9.14693 11.818 9.38026 12.378C9.62526 12.9613 9.98695 13.5797 10.4303 14.198C10.8853 14.8164 11.3986 15.4347 11.9703 16.0064C12.542 16.5664 13.1486 17.0913 13.7786 17.558C14.3853 18.0013 15.0036 18.3513 15.622 18.6197C16.5086 19.0047 17.3253 19.098 17.9903 18.818C18.2236 18.7247 18.4336 18.5614 18.6436 18.3514C18.7486 18.2347 18.8303 18.118 18.9003 17.9663C18.9353 17.8847 18.9586 17.7913 18.9586 17.7097C18.9586 17.6863 18.9586 17.6514 18.9236 17.5814L16.9753 16.228C16.8936 16.1697 16.8119 16.123 16.7419 16.0997C16.6953 16.123 16.6253 16.158 16.497 16.2863L16.0536 16.7297C15.7153 17.068 15.1786 17.1613 14.747 17.0097L14.537 16.9163C14.2686 16.7763 13.9653 16.5664 13.6269 16.2747C13.3003 15.9947 12.9853 15.703 12.647 15.3763C12.3203 15.038 12.0286 14.723 11.7486 14.3963C11.4453 14.0347 11.2353 13.743 11.0953 13.498L10.967 13.1947C10.932 13.078 10.9203 12.9497 10.9203 12.833C10.9203 12.5063 11.037 12.2147 11.2586 11.9813L11.702 11.5264C11.8303 11.398 11.877 11.328 11.9003 11.2814C11.8653 11.1997 11.8186 11.1297 11.7603 11.048L10.3953 9.12302L10.2553 9.02967Z" fill="white"/>
</svg>
