<svg width="26" height="22" viewBox="0 0 26 22" fill="none" xmlns="http://www.w3.org/2000/svg">
<path d="M18.833 21.2082H7.16634C3.15301 21.2082 0.458008 18.5132 0.458008 14.4998V7.49984C0.458008 3.4865 3.15301 0.791504 7.16634 0.791504H18.833C22.8463 0.791504 25.5413 3.4865 25.5413 7.49984V14.4998C25.5413 18.5132 22.8463 21.2082 18.833 21.2082ZM7.16634 2.5415C4.15634 2.5415 2.20801 4.48984 2.20801 7.49984V14.4998C2.20801 17.5098 4.15634 19.4582 7.16634 19.4582H18.833C21.843 19.4582 23.7913 17.5098 23.7913 14.4998V7.49984C23.7913 4.48984 21.843 2.5415 18.833 2.5415H7.16634Z" fill="white"/>
</svg>
